<svg width="21" height="20" viewBox="0 0 21 20" fill="none" xmlns="http://www.w3.org/2000/svg">
<g clip-path="url(#clip0_16_5431)">
<path d="M10.4997 0.208496C5.09134 0.208496 0.708008 4.59183 0.708008 10.0002C0.708008 15.4085 5.09134 19.7918 10.4997 19.7918C15.908 19.7918 20.2913 15.4085 20.2913 10.0002C20.2913 4.59183 15.908 0.208496 10.4997 0.208496ZM11.5413 14.8918C11.5413 15.1681 11.4316 15.433 11.2362 15.6284C11.0409 15.8237 10.7759 15.9335 10.4997 15.9335C10.2234 15.9335 9.95845 15.8237 9.7631 15.6284C9.56775 15.433 9.45801 15.1681 9.45801 14.8918V8.69183C9.45801 8.41556 9.56775 8.15061 9.7631 7.95526C9.95845 7.75991 10.2234 7.65016 10.4997 7.65016C10.7759 7.65016 11.0409 7.75991 11.2362 7.95526C11.4316 8.15061 11.5413 8.41556 11.5413 8.69183V14.8918ZM11.458 5.5085C11.408 5.6335 11.333 5.75016 11.233 5.84183C11.133 5.94183 11.0247 6.01683 10.8997 6.07516C10.7747 6.12516 10.633 6.15016 10.4997 6.15016C10.2163 6.15016 9.95801 6.04183 9.75801 5.84183C9.66634 5.75016 9.58301 5.6335 9.53301 5.5085C9.45769 5.31793 9.43886 5.10971 9.47876 4.90872C9.51866 4.70774 9.61561 4.5225 9.75801 4.37516C9.99967 4.1335 10.3663 4.01683 10.6997 4.09183C10.7663 4.10016 10.833 4.12516 10.8913 4.15016C10.958 4.17516 11.0163 4.2085 11.0747 4.24183C11.133 4.2835 11.183 4.32516 11.233 4.37516C11.4247 4.56683 11.5413 4.8335 11.5413 5.1085C11.5413 5.25016 11.5163 5.3835 11.458 5.5085Z" fill="#8B8B8B"/>
</g>
<defs>
<clipPath id="clip0_16_5431">
<rect width="20" height="20" fill="white" transform="translate(0.5)"/>
</clipPath>
</defs>
</svg>
