<svg width="24" height="24" viewBox="0 0 24 24" fill="none" xmlns="http://www.w3.org/2000/svg">
<circle cx="11.8324" cy="11.89" r="11.6244" fill="#0D5785"/>
<path d="M9.71918 17.3249C9.56925 17.3257 9.42246 17.2819 9.29752 17.1991C9.17258 17.1162 9.07516 16.998 9.01766 16.8595C8.96017 16.721 8.94522 16.5686 8.97471 16.4216C9.0042 16.2746 9.0768 16.1397 9.18325 16.0341L13.1839 12.0411L9.18325 8.048C9.04111 7.90586 8.96126 7.71308 8.96126 7.51207C8.96126 7.41254 8.98087 7.31398 9.01896 7.22203C9.05704 7.13007 9.11287 7.04652 9.18325 6.97614C9.25363 6.90576 9.33718 6.84993 9.42914 6.81184C9.52109 6.77375 9.61965 6.75415 9.71918 6.75415C9.92019 6.75415 10.113 6.834 10.2551 6.97614L14.7841 11.5051C14.9247 11.6466 15.0036 11.8379 15.0036 12.0373C15.0036 12.2367 14.9247 12.428 14.7841 12.5694L10.2551 17.0984C10.1852 17.1697 10.1018 17.2265 10.0098 17.2654C9.91785 17.3042 9.81905 17.3245 9.71918 17.3249Z" fill="#DDF2FF"/>
</svg>
