<svg width="28" height="27" viewBox="0 0 28 27" fill="none" xmlns="http://www.w3.org/2000/svg">
<path d="M23.8916 3.6084C22.1938 1.91057 19.9451 0.975586 17.5597 0.975586H10.4403C8.05494 0.975586 5.80624 1.91057 4.1084 3.6084C2.41057 5.30624 1.47559 7.55494 1.47559 9.94032V17.0597C1.47559 19.4451 2.41062 21.6938 4.1084 23.3916C5.80619 25.0894 8.05494 26.0244 10.4403 26.0244H17.5597C19.9451 26.0244 22.1938 25.0894 23.8916 23.3916C25.5894 21.6938 26.5244 19.4451 26.5244 17.0597V9.94032C26.5244 7.55494 25.5894 5.30619 23.8916 3.6084ZM25.2061 17.0597C25.2061 21.2759 21.7759 24.7061 17.5597 24.7061H10.4403C6.2241 24.7061 2.79395 21.2759 2.79395 17.0597V9.94032C2.79395 5.7241 6.2241 2.29395 10.4403 2.29395H17.5597C21.7759 2.29395 25.2061 5.7241 25.2061 9.94032V17.0597ZM17.4725 9.27619L12.0084 13.5L17.4725 17.7238C17.7605 17.9465 17.8135 18.3604 17.5909 18.6485C17.5293 18.7283 17.4502 18.7929 17.3597 18.8373C17.2692 18.8817 17.1697 18.9047 17.0689 18.9045C16.9281 18.9045 16.7863 18.8596 16.6662 18.7668L10.5275 14.0215C10.4478 13.9599 10.3833 13.8809 10.339 13.7905C10.2946 13.7001 10.2715 13.6007 10.2715 13.5C10.2715 13.3993 10.2946 13.2999 10.339 13.2095C10.3833 13.1191 10.4478 13.0401 10.5275 12.9785L16.6662 8.23315C16.9542 8.01056 17.3682 8.06345 17.5909 8.35154C17.8135 8.63958 17.7605 9.0536 17.4725 9.27619Z" fill="white"/>
</svg>
