<svg width="51" height="51" viewBox="0 0 51 51" fill="none" xmlns="http://www.w3.org/2000/svg">
<path fill-rule="evenodd" clip-rule="evenodd" d="M4.98145 15.027V16.3711H45.8251V15.027L25.4033 4.27466L4.98145 15.027Z" fill="#7986BF"/>
<path fill-rule="evenodd" clip-rule="evenodd" d="M25.4033 4.27466L41.6813 16.3711H45.8251V15.027L25.4033 4.27466Z" fill="#5D689E"/>
<path fill-rule="evenodd" clip-rule="evenodd" d="M32.4172 20.4785C32.4172 20.7543 32.3 20.9898 32.1137 21.1499C31.7035 21.5023 31.4897 21.9681 31.4897 22.5089V34.0037C31.4897 34.5446 31.7035 35.0101 32.1137 35.3627C32.3 35.5228 32.4172 35.7582 32.4172 36.0342V37.5062H27.7314V36.0342C27.7314 35.7581 27.8486 35.5228 28.035 35.3627C28.4452 35.0102 28.659 34.5447 28.659 34.0037V22.5089C28.659 21.9681 28.4451 21.5024 28.035 21.1499C27.8487 20.9899 27.7314 20.7545 27.7314 20.4785V19.0065H32.4172V20.4785Z" fill="#7986BF"/>
<path fill-rule="evenodd" clip-rule="evenodd" d="M31.2019 37.5062H27.7314V36.0342C27.7314 35.7581 27.8486 35.5228 28.035 35.3627C28.4452 35.0102 28.659 34.5447 28.659 34.0037V22.5089C28.659 21.9681 28.4451 21.5024 28.035 21.1499C27.8487 20.9899 27.7314 20.7545 27.7314 20.4785V19.0065H31.2019V20.4785C31.2019 20.7543 31.0847 20.9898 30.8984 21.1499C30.4882 21.5023 30.2744 21.9681 30.2744 22.5089V34.0037C30.2744 34.5446 30.4882 35.0101 30.8984 35.3627C31.0847 35.5228 31.2019 35.7582 31.2019 36.0342V37.5062Z" fill="#909CD1"/>
<path fill-rule="evenodd" clip-rule="evenodd" d="M32.4931 36.9666H27.6563C27.1385 36.9666 26.7148 37.3902 26.7148 37.908V38.8495H33.4345V37.908C33.4345 37.3902 33.0108 36.9666 32.493 36.9666H32.4931Z" fill="#3D4A75"/>
<path fill-rule="evenodd" clip-rule="evenodd" d="M31.2778 36.9666H27.6563C27.1385 36.9666 26.7148 37.3902 26.7148 37.908V38.8495H32.2192V37.908C32.2192 37.3902 31.7955 36.9666 31.2777 36.9666H31.2778Z" fill="#5D689E"/>
<path fill-rule="evenodd" clip-rule="evenodd" d="M32.4931 19.546H27.6563C27.1385 19.546 26.7148 19.1224 26.7148 18.6045V17.6631H33.4345V18.6045C33.4345 19.1224 33.0108 19.546 32.493 19.546H32.4931Z" fill="#3D4A75"/>
<path fill-rule="evenodd" clip-rule="evenodd" d="M31.2778 19.546H27.6563C27.1385 19.546 26.7148 19.1224 26.7148 18.6045V17.6631H32.2192V18.6045C32.2192 19.1224 31.7955 19.546 31.2777 19.546H31.2778Z" fill="#5D689E"/>
<path fill-rule="evenodd" clip-rule="evenodd" d="M41.76 20.4785C41.76 20.7543 41.6427 20.9898 41.4565 21.1499C41.0462 21.5023 40.8324 21.9681 40.8324 22.5089V34.0037C40.8324 34.5446 41.0462 35.0101 41.4565 35.3627C41.6428 35.5228 41.76 35.7582 41.76 36.0342V37.5062H37.0742V36.0342C37.0742 35.7581 37.1914 35.5228 37.3777 35.3627C37.788 35.0102 38.0018 34.5447 38.0018 34.0037V22.5089C38.0018 21.9681 37.7879 21.5024 37.3777 21.1499C37.1915 20.9899 37.0742 20.7545 37.0742 20.4785V19.0065H41.76V20.4785Z" fill="#7986BF"/>
<path fill-rule="evenodd" clip-rule="evenodd" d="M40.5447 37.5062H37.0742V36.0342C37.0742 35.7581 37.1914 35.5228 37.3777 35.3627C37.788 35.0102 38.0018 34.5447 38.0018 34.0037V22.5089C38.0018 21.9681 37.7879 21.5024 37.3777 21.1499C37.1915 20.9899 37.0742 20.7545 37.0742 20.4785V19.0065H40.5447V20.4785C40.5447 20.7543 40.4274 20.9898 40.2412 21.1499C39.8309 21.5023 39.6171 21.9681 39.6171 22.5089V34.0037C39.6171 34.5446 39.8309 35.0101 40.2412 35.3627C40.4275 35.5228 40.5447 35.7582 40.5447 36.0342V37.5062Z" fill="#909CD1"/>
<path fill-rule="evenodd" clip-rule="evenodd" d="M41.8359 36.9666H36.9991C36.4813 36.9666 36.0576 37.3902 36.0576 37.908V38.8495H42.7773V37.908C42.7773 37.3902 42.3536 36.9666 41.8359 36.9666Z" fill="#3D4A75"/>
<path fill-rule="evenodd" clip-rule="evenodd" d="M40.6206 36.9666H36.9991C36.4813 36.9666 36.0576 37.3902 36.0576 37.908V38.8495H41.5619V37.908C41.5619 37.3902 41.1383 36.9666 40.6205 36.9666H40.6206Z" fill="#5D689E"/>
<path fill-rule="evenodd" clip-rule="evenodd" d="M41.8359 19.546H36.9991C36.4813 19.546 36.0576 19.1224 36.0576 18.6045V17.6631H42.7773V18.6045C42.7773 19.1224 42.3536 19.546 41.8359 19.546Z" fill="#3D4A75"/>
<path fill-rule="evenodd" clip-rule="evenodd" d="M40.6206 19.546H36.9991C36.4813 19.546 36.0576 19.1224 36.0576 18.6045V17.6631H41.5619V18.6045C41.5619 19.1224 41.1383 19.546 40.6205 19.546H40.6206Z" fill="#5D689E"/>
<path fill-rule="evenodd" clip-rule="evenodd" d="M23.0744 20.4785C23.0744 20.7543 22.9572 20.9898 22.7709 21.1499C22.3607 21.5023 22.1469 21.9681 22.1469 22.5089V34.0037C22.1469 34.5446 22.3607 35.0101 22.7709 35.3627C22.9573 35.5228 23.0744 35.7582 23.0744 36.0342V37.5062H18.3887V36.0342C18.3887 35.7581 18.5059 35.5228 18.6922 35.3627C19.1024 35.0102 19.3162 34.5447 19.3162 34.0037V22.5089C19.3162 21.9681 19.1023 21.5024 18.6922 21.1499C18.5059 20.9899 18.3887 20.7545 18.3887 20.4785V19.0065H23.0744V20.4785Z" fill="#7986BF"/>
<path fill-rule="evenodd" clip-rule="evenodd" d="M21.8591 37.5062H18.3887V36.0342C18.3887 35.7581 18.5059 35.5228 18.6922 35.3627C19.1024 35.0102 19.3162 34.5447 19.3162 34.0037V22.5089C19.3162 21.9681 19.1023 21.5024 18.6922 21.1499C18.5059 20.9899 18.3887 20.7545 18.3887 20.4785V19.0065H21.8591V20.4785C21.8591 20.7543 21.7419 20.9898 21.5556 21.1499C21.1454 21.5023 20.9316 21.9681 20.9316 22.5089V34.0037C20.9316 34.5446 21.1454 35.0101 21.5556 35.3627C21.742 35.5228 21.8591 35.7582 21.8591 36.0342V37.5062Z" fill="#909CD1"/>
<path fill-rule="evenodd" clip-rule="evenodd" d="M23.1503 36.9666H18.3135C17.7958 36.9666 17.3721 37.3902 17.3721 37.908V38.8495H24.0917V37.908C24.0917 37.3902 23.6681 36.9666 23.1503 36.9666Z" fill="#3D4A75"/>
<path fill-rule="evenodd" clip-rule="evenodd" d="M21.935 36.9666H18.3135C17.7958 36.9666 17.3721 37.3902 17.3721 37.908V38.8495H22.8764V37.908C22.8764 37.3902 22.4528 36.9666 21.935 36.9666Z" fill="#5D689E"/>
<path fill-rule="evenodd" clip-rule="evenodd" d="M23.1503 19.546H18.3135C17.7958 19.546 17.3721 19.1224 17.3721 18.6045V17.6631H24.0917V18.6045C24.0917 19.1224 23.6681 19.546 23.1503 19.546Z" fill="#3D4A75"/>
<path fill-rule="evenodd" clip-rule="evenodd" d="M21.935 19.546H18.3135C17.7958 19.546 17.3721 19.1224 17.3721 18.6045V17.6631H22.8764V18.6045C22.8764 19.1224 22.4528 19.546 21.935 19.546Z" fill="#5D689E"/>
<path fill-rule="evenodd" clip-rule="evenodd" d="M13.7326 20.4785C13.7326 20.7543 13.6154 20.9898 13.4291 21.1499C13.0189 21.5023 12.8051 21.9681 12.8051 22.5089V34.0037C12.8051 34.5446 13.0189 35.0101 13.4291 35.3627C13.6155 35.5228 13.7326 35.7582 13.7326 36.0342V37.5062H9.04688V36.0342C9.04688 35.7581 9.16406 35.5228 9.3504 35.3627C9.76062 35.0102 9.97443 34.5447 9.97443 34.0037V22.5089C9.97443 21.9681 9.76053 21.5024 9.3504 21.1499C9.16414 20.9899 9.04688 20.7545 9.04688 20.4785V19.0065H13.7326V20.4785Z" fill="#7986BF"/>
<path fill-rule="evenodd" clip-rule="evenodd" d="M12.5173 37.5062H9.04688V36.0342C9.04688 35.7581 9.16406 35.5228 9.3504 35.3627C9.76062 35.0102 9.97443 34.5447 9.97443 34.0037V22.5089C9.97443 21.9681 9.76053 21.5024 9.3504 21.1499C9.16414 20.9899 9.04688 20.7545 9.04688 20.4785V19.0065H12.5173V20.4785C12.5173 20.7543 12.4001 20.9898 12.2138 21.1499C11.8036 21.5023 11.5898 21.9681 11.5898 22.5089V34.0037C11.5898 34.5446 11.8036 35.0101 12.2138 35.3627C12.4002 35.5228 12.5173 35.7582 12.5173 36.0342V37.5062Z" fill="#909CD1"/>
<path fill-rule="evenodd" clip-rule="evenodd" d="M13.8076 36.9666H8.97075C8.45299 36.9666 8.0293 37.3902 8.0293 37.908V38.8495H14.749V37.908C14.749 37.3902 14.3253 36.9666 13.8076 36.9666Z" fill="#3D4A75"/>
<path fill-rule="evenodd" clip-rule="evenodd" d="M12.5923 36.9666H8.97075C8.45299 36.9666 8.0293 37.3902 8.0293 37.908V38.8495H13.5337V37.908C13.5337 37.3902 13.11 36.9666 12.5923 36.9666Z" fill="#5D689E"/>
<path fill-rule="evenodd" clip-rule="evenodd" d="M13.8076 19.546H8.97075C8.45299 19.546 8.0293 19.1224 8.0293 18.6045V17.6631H14.749V18.6045C14.749 19.1224 14.3253 19.546 13.8076 19.546Z" fill="#3D4A75"/>
<path fill-rule="evenodd" clip-rule="evenodd" d="M12.5923 19.546H8.97075C8.45299 19.546 8.0293 19.1224 8.0293 18.6045V17.6631H13.5337V18.6045C13.5337 19.1224 13.11 19.546 12.5923 19.546Z" fill="#5D689E"/>
<path d="M4.98152 38.8493H45.8253C45.9506 38.8494 46.0709 38.8992 46.1595 38.9879C46.2482 39.0765 46.298 39.1968 46.2981 39.3222V41.0127C46.298 41.138 46.2482 41.2583 46.1595 41.3469C46.0709 41.4356 45.9506 41.4854 45.8253 41.4855H4.9816C4.85622 41.4854 4.73598 41.4356 4.64732 41.3469C4.55866 41.2583 4.50883 41.138 4.50879 41.0127V39.3222C4.50883 39.1968 4.55865 39.0766 4.6473 38.9879C4.73594 38.8993 4.85616 38.8495 4.98152 38.8494V38.8493ZM4.9816 15.027H45.8253C45.9506 15.027 46.0709 15.0769 46.1595 15.1655C46.2482 15.2542 46.298 15.3744 46.2981 15.4998V17.1903C46.298 17.3157 46.2482 17.4359 46.1595 17.5246C46.0709 17.6132 45.9506 17.6631 45.8253 17.6631H4.98152C4.85616 17.6631 4.73594 17.6132 4.6473 17.5246C4.55865 17.436 4.50883 17.3157 4.50879 17.1904V15.4999C4.50883 15.3745 4.55866 15.2543 4.64732 15.1656C4.73598 15.0769 4.85622 15.027 4.9816 15.027Z" fill="#3D4A75"/>
<path d="M25.5392 12.9845C26.7334 12.909 27.6402 11.8797 27.5646 10.6856C27.4891 9.49145 26.4598 8.58466 25.2657 8.66021C24.0715 8.73575 23.1648 9.76503 23.2403 10.9592C23.3159 12.1533 24.3451 13.0601 25.5392 12.9845Z" fill="#F3F3FF"/>
<path d="M11.417 32.1788H39.3902V46.0578H11.417V32.1788Z" fill="#2DD62D"/>
<path fill-rule="evenodd" clip-rule="evenodd" d="M36.2259 33.6318C36.0829 34.671 36.7644 35.3668 37.4653 35.3668V37.6757H13.3418V35.3668C14.0427 35.3668 14.7241 34.671 14.5811 33.6318H36.2259Z" fill="#29B933"/>
<path fill-rule="evenodd" clip-rule="evenodd" d="M15.0767 34.1036H35.7304C35.7304 35.0618 36.5071 35.8386 37.4653 35.8386V42.398C36.5071 42.398 35.7304 43.1747 35.7304 44.1329H15.0767C15.0767 43.1747 14.3 42.398 13.3418 42.398V35.8386C14.3 35.8386 15.0767 35.0618 15.0767 34.1036Z" fill="#96FF96"/>
<path d="M28.9313 42.6508C30.8831 40.699 30.8831 37.5344 28.9313 35.5826C26.9795 33.6308 23.815 33.6308 21.8632 35.5826C19.9114 37.5344 19.9114 40.699 21.8632 42.6508C23.815 44.6026 26.9795 44.6026 28.9313 42.6508Z" fill="#29B933"/>
<path fill-rule="evenodd" clip-rule="evenodd" d="M25.4034 34.1204C28.0612 34.1204 30.2341 36.1951 30.3918 38.8133C30.2341 41.4315 28.0612 43.5061 25.4034 43.5061C22.7456 43.5061 20.5727 41.4314 20.415 38.8133C20.5727 36.1951 22.7456 34.1204 25.4034 34.1204Z" fill="#2DD62D"/>
<path fill-rule="evenodd" clip-rule="evenodd" d="M25.4037 43.0509C25.268 43.0508 25.1378 42.9968 25.0419 42.9008C24.946 42.8048 24.8921 42.6746 24.8921 42.5389V42.1096C23.9397 41.9428 23.2459 41.3934 23.0671 40.6291C23.0034 40.3538 23.1743 40.0784 23.4492 40.0143C23.5147 39.999 23.5826 39.9968 23.6489 40.0077C23.7152 40.0187 23.7787 40.0426 23.8358 40.0781C23.8929 40.1135 23.9425 40.1599 23.9816 40.2146C24.0208 40.2692 24.0488 40.3311 24.0641 40.3965C24.1436 40.7372 24.4873 40.955 24.8921 41.0614V39.549C24.5002 39.4453 24.1023 39.308 23.7903 39.0658C23.4016 38.7646 23.1702 38.3561 23.1377 37.9164C23.1061 37.4865 23.2647 37.0665 23.5836 36.7341C23.9134 36.3904 24.3903 36.1939 24.892 36.1157V35.6972C24.8945 35.5631 24.9494 35.4354 25.0451 35.3414C25.1408 35.2475 25.2695 35.1948 25.4036 35.1948C25.5377 35.1948 25.6665 35.2475 25.7621 35.3414C25.8578 35.4354 25.9128 35.5631 25.9152 35.6972V36.1121C26.0445 36.131 26.1696 36.1571 26.288 36.19C27.0627 36.4049 27.5878 36.889 27.7313 37.5174C27.7612 37.6498 27.7375 37.7886 27.6652 37.9035C27.5929 38.0183 27.4781 38.0999 27.3458 38.1302C27.2803 38.1451 27.2125 38.147 27.1462 38.1357C27.08 38.1244 27.0166 38.1002 26.9597 38.0644C26.9028 38.0286 26.8536 37.9819 26.8148 37.9271C26.7759 37.8722 26.7483 37.8102 26.7335 37.7447C26.6521 37.3892 26.2038 37.2289 26.0143 37.1764C25.9815 37.1673 25.9485 37.159 25.9152 37.1516V38.747C25.946 38.7551 25.9766 38.7635 26.0069 38.7721C26.7955 38.9961 27.3252 39.345 27.5809 39.8086C27.7671 40.146 27.8037 40.538 27.6853 40.9432C27.4736 41.6667 26.7085 42.0429 25.9153 42.138V42.5389C25.9153 42.6747 25.8614 42.8049 25.7655 42.9009C25.6696 42.9969 25.5394 43.0509 25.4037 43.051V43.0509ZM24.8921 38.4835V37.1555C24.6529 37.2129 24.4494 37.3108 24.3225 37.443C24.2066 37.5634 24.1482 37.7048 24.1586 37.8416C24.1696 37.9903 24.2592 38.1342 24.4178 38.2575C24.5371 38.35 24.7034 38.4221 24.8921 38.4834V38.4835ZM25.9153 39.8147V41.1041C26.3227 41.0336 26.642 40.8625 26.7028 40.6558C26.7574 40.4676 26.7188 40.3645 26.6847 40.3032C26.6247 40.1936 26.445 39.9941 25.9153 39.8147ZM16.3408 39.63C16.2051 39.63 16.0749 39.5761 15.979 39.4801C15.883 39.3841 15.8291 39.254 15.8291 39.1183C15.8291 38.9826 15.883 38.8524 15.979 38.7564C16.0749 38.6605 16.2051 38.6066 16.3408 38.6066H17.3917C17.5274 38.6066 17.6575 38.6605 17.7535 38.7564C17.8495 38.8524 17.9034 38.9826 17.9034 39.1183C17.9034 39.254 17.8495 39.3841 17.7535 39.4801C17.6575 39.5761 17.5274 39.63 17.3917 39.63H16.3408ZM33.4157 39.63C33.2799 39.63 33.1498 39.5761 33.0538 39.4801C32.9579 39.3841 32.9039 39.254 32.9039 39.1183C32.9039 38.9826 32.9579 38.8524 33.0538 38.7564C33.1498 38.6605 33.2799 38.6066 33.4157 38.6066H34.4665C34.6022 38.6066 34.7324 38.6605 34.8284 38.7564C34.9243 38.8524 34.9782 38.9826 34.9782 39.1183C34.9782 39.254 34.9243 39.3841 34.8284 39.4801C34.7324 39.5761 34.6022 39.63 34.4665 39.63H33.4157Z" fill="#009914"/>
<path d="M38.7422 32.1788H39.3903V46.0578H38.7422V32.1788Z" fill="#29B933"/>
</svg>
