<svg width="51" height="51" viewBox="0 0 51 51" fill="none" xmlns="http://www.w3.org/2000/svg">
<path d="M38.8682 8.91718V44.5711C38.8678 45.0744 38.6677 45.5571 38.3118 45.913C37.9559 46.2689 37.4733 46.469 36.97 46.4693H8.25661C7.75329 46.469 7.27068 46.2689 6.91477 45.913C6.55887 45.5571 6.35876 45.0744 6.3584 44.5711V8.91787C6.35876 8.41454 6.55887 7.93193 6.91477 7.57603C7.27068 7.22012 7.75329 7.02001 8.25661 7.01965H36.97C37.4733 7.02001 37.9559 7.22012 38.3118 7.57603C38.6677 7.93193 38.8678 8.41386 38.8682 8.91718Z" fill="#CFCFFF"/>
<path d="M36.5529 6.6069V42.2649C36.5535 42.5141 36.5049 42.7609 36.4098 42.9912C36.3148 43.2215 36.1751 43.4307 35.9989 43.6069C35.8227 43.783 35.6134 43.9226 35.3831 44.0176C35.1527 44.1126 34.9059 44.1611 34.6567 44.1604H5.95154C5.70233 44.1612 5.45542 44.1127 5.22501 44.0178C4.99459 43.9228 4.78523 43.7833 4.60894 43.6071C4.43266 43.431 4.29294 43.2217 4.19782 42.9914C4.10271 42.761 4.05406 42.5141 4.05469 42.2649V6.6069C4.05433 6.10333 4.25379 5.62019 4.6093 5.26353C4.9648 4.90688 5.44729 4.70585 5.95086 4.70459H34.6567C35.1603 4.70585 35.6428 4.90688 35.9983 5.26353C36.3538 5.62019 36.5533 6.10333 36.5529 6.6069Z" fill="#E9E9FF"/>
<path d="M13.4228 7.48497V8.2014C13.4228 8.22323 13.4186 8.24487 13.4103 8.26506C13.402 8.28526 13.3898 8.30362 13.3744 8.31909C13.359 8.33455 13.3407 8.34683 13.3206 8.3552C13.3004 8.36358 13.2788 8.36789 13.257 8.36789H7.00076C6.95679 8.36789 6.91462 8.35042 6.88352 8.31933C6.85243 8.28823 6.83496 8.24606 6.83496 8.20209V7.48497C6.83496 7.39285 6.91002 7.31848 7.00076 7.31848H13.2576C13.3484 7.31848 13.4228 7.39422 13.4228 7.48497Z" fill="#FDC72E"/>
<path d="M15.7338 10.0806V10.797C15.7339 10.8189 15.7296 10.8405 15.7214 10.8607C15.7131 10.8809 15.7009 10.8992 15.6855 10.9147C15.67 10.9302 15.6517 10.9425 15.6316 10.9508C15.6114 10.9592 15.5898 10.9635 15.568 10.9635H7.00076C6.97899 10.9635 6.95743 10.9592 6.93731 10.9509C6.9172 10.9426 6.89892 10.9304 6.88352 10.915C6.86813 10.8996 6.85591 10.8813 6.84758 10.8612C6.83925 10.8411 6.83496 10.8195 6.83496 10.7977V10.0813C6.83496 9.98917 6.91002 9.91479 7.00076 9.91479H15.568C15.6594 9.91479 15.7338 9.98985 15.7338 10.0806Z" fill="#ED524E"/>
<path d="M32.9759 29.4517V29.8849C32.9755 29.9286 32.9664 29.9717 32.9493 30.0118C32.9322 30.052 32.9074 30.0884 32.8762 30.1189C32.845 30.1494 32.8081 30.1736 32.7676 30.1898C32.7272 30.2061 32.6839 30.2143 32.6402 30.2138H7.96754C7.9239 30.2143 7.8806 30.2061 7.84011 30.1898C7.79963 30.1736 7.76274 30.1494 7.73157 30.1189C7.7004 30.0884 7.67554 30.052 7.65843 30.0118C7.64132 29.9717 7.63228 29.9286 7.63184 29.8849V29.4517C7.63184 29.2647 7.78058 29.116 7.96822 29.116H32.6402C32.8272 29.116 32.9759 29.2647 32.9759 29.4517ZM20.0555 33.0645V33.4971C20.0552 33.5409 20.0462 33.5841 20.029 33.6244C20.0119 33.6647 19.987 33.7012 19.9558 33.7318C19.9245 33.7624 19.8875 33.7866 19.8469 33.8028C19.8063 33.8191 19.7629 33.8272 19.7191 33.8267H7.96822C7.92447 33.8272 7.88104 33.8191 7.84043 33.8028C7.79982 33.7866 7.76282 33.7624 7.73157 33.7318C7.70032 33.7012 7.67542 33.6647 7.6583 33.6244C7.64119 33.5841 7.63219 33.5409 7.63184 33.4971V33.0645C7.63184 32.8769 7.78058 32.7282 7.96822 32.7282H19.7191C19.9068 32.7282 20.0555 32.8769 20.0555 33.0645ZM32.9759 33.0645V33.4971C32.9756 33.5408 32.9666 33.584 32.9495 33.6243C32.9324 33.6645 32.9076 33.7009 32.8764 33.7316C32.8452 33.7622 32.8083 33.7863 32.7678 33.8027C32.7273 33.819 32.6839 33.8272 32.6402 33.8267H22.5037C22.46 33.8272 22.4166 33.819 22.3761 33.8027C22.3356 33.7863 22.2987 33.7622 22.2675 33.7316C22.2363 33.7009 22.2114 33.6645 22.1944 33.6243C22.1773 33.584 22.1683 33.5408 22.168 33.4971V33.0645C22.168 32.8769 22.3167 32.7282 22.5037 32.7282H32.6402C32.8272 32.7282 32.9759 32.8769 32.9759 33.0645ZM21.7579 36.6767V37.1093C21.7575 37.1531 21.7486 37.1963 21.7314 37.2366C21.7143 37.2769 21.6894 37.3134 21.6582 37.344C21.6269 37.3746 21.5899 37.3988 21.5493 37.4151C21.5087 37.4313 21.4653 37.4394 21.4215 37.4389H7.96822C7.92447 37.4394 7.88104 37.4313 7.84043 37.4151C7.79982 37.3988 7.76282 37.3746 7.73157 37.344C7.70032 37.3134 7.67542 37.2769 7.6583 37.2366C7.64119 37.1963 7.63219 37.1531 7.63184 37.1093V36.6767C7.63184 36.4898 7.78058 36.3411 7.96822 36.3411H21.4215C21.6092 36.3411 21.7579 36.4898 21.7579 36.6767Z" fill="#CFCFFF"/>
<path d="M32.9759 36.6768V37.1094C32.9756 37.1531 32.9666 37.1962 32.9495 37.2365C32.9324 37.2767 32.9076 37.3132 32.8764 37.3438C32.8452 37.3744 32.8083 37.3985 32.7678 37.4149C32.7273 37.4312 32.6839 37.4394 32.6402 37.4389H19.1862C19.1425 37.4394 19.0992 37.4312 19.0587 37.4149C19.0181 37.3985 18.9812 37.3744 18.95 37.3438C18.9188 37.3132 18.894 37.2767 18.8769 37.2365C18.8599 37.1962 18.8509 37.1531 18.8505 37.1094V36.6768C18.8505 36.4898 18.9993 36.3411 19.1862 36.3411H32.6402C32.8272 36.3411 32.9759 36.4898 32.9759 36.6768ZM17.1379 40.2896V40.7222C17.1376 40.7659 17.1286 40.8091 17.1115 40.8494C17.0944 40.8896 17.0696 40.926 17.0384 40.9566C17.0072 40.9873 16.9703 41.0114 16.9298 41.0277C16.8893 41.0441 16.8459 41.0522 16.8022 41.0518H7.96822C7.92447 41.0523 7.88104 41.0442 7.84043 41.0279C7.79982 41.0117 7.76282 40.9875 7.73157 40.9569C7.70032 40.9263 7.67542 40.8898 7.6583 40.8495C7.64119 40.8092 7.63219 40.766 7.63184 40.7222V40.2896C7.63184 40.102 7.78058 39.9533 7.96822 39.9533H16.8022C16.9899 39.9533 17.1379 40.102 17.1379 40.2896ZM32.9759 40.2896V40.7222C32.9756 40.7659 32.9666 40.8091 32.9495 40.8494C32.9324 40.8896 32.9076 40.926 32.8764 40.9566C32.8452 40.9873 32.8083 41.0114 32.7678 41.0277C32.7273 41.0441 32.6839 41.0522 32.6402 41.0518H19.1862C19.1425 41.0522 19.0992 41.0441 19.0587 41.0277C19.0181 41.0114 18.9812 40.9873 18.95 40.9566C18.9188 40.926 18.894 40.8896 18.8769 40.8494C18.8599 40.8091 18.8509 40.7659 18.8505 40.7222V40.2896C18.8505 40.102 18.9993 39.9533 19.1862 39.9533H32.6402C32.8272 39.9533 32.9759 40.102 32.9759 40.2896Z" fill="#CFCFFF"/>
<path d="M12.8216 20.4041V26.2066C12.8216 26.2906 12.7883 26.3712 12.7289 26.4307C12.6696 26.4902 12.5891 26.5237 12.505 26.5238H9.55878C9.47475 26.5237 9.39423 26.4902 9.33487 26.4307C9.27552 26.3712 9.24219 26.2906 9.24219 26.2066V20.4041C9.24219 20.2294 9.38411 20.0875 9.55878 20.0875H12.505C12.6797 20.0875 12.8216 20.2294 12.8216 20.4041Z" fill="#ED524E"/>
<path d="M19.003 17.1214V26.2065C19.003 26.2906 18.9696 26.3713 18.9101 26.4308C18.8506 26.4903 18.7699 26.5238 18.6857 26.5238H15.7401C15.656 26.5238 15.5753 26.4903 15.5158 26.4308C15.4563 26.3713 15.4229 26.2906 15.4229 26.2065V17.1214C15.4229 16.9467 15.5648 16.8048 15.7401 16.8048H18.6857C18.8611 16.8048 19.003 16.9467 19.003 17.1214Z" fill="#70C1F9"/>
<path d="M25.1839 13.6485V26.2066C25.1839 26.2906 25.1506 26.3712 25.0913 26.4307C25.0319 26.4902 24.9514 26.5237 24.8673 26.5239H21.9211C21.8371 26.5237 21.7565 26.4902 21.6972 26.4307C21.6378 26.3712 21.6045 26.2906 21.6045 26.2066V13.6485C21.6045 13.4738 21.7464 13.3319 21.9211 13.3319H24.8673C25.042 13.3319 25.1839 13.4731 25.1839 13.6485Z" fill="#FDC72E"/>
<path d="M31.3663 9.73806V26.2065C31.3663 26.2907 31.3328 26.3714 31.2733 26.4309C31.2138 26.4904 31.1331 26.5238 31.049 26.5238H28.1034C28.0193 26.5238 27.9386 26.4904 27.8791 26.4309C27.8196 26.3714 27.7861 26.2907 27.7861 26.2065V9.73806C27.7861 9.5627 27.9281 9.42078 28.1034 9.42078H31.049C31.2243 9.42078 31.3663 9.5627 31.3663 9.73806Z" fill="#7BD681"/>
<g opacity="0.2">
<path d="M7.63184 4.70459L18.1054 44.1604H28.6521L18.1716 4.70459H7.63184ZM23.8799 4.70459H20.8832L31.3622 44.1597H34.3508L23.8799 4.70459Z" fill="#DDF2FF"/>
</g>
<path d="M47.4733 36.2107L45.2284 35.6171C45.1112 35.2396 44.9596 34.8737 44.7754 34.524L45.9476 32.5241C45.9843 32.4609 45.999 32.3874 45.9895 32.3149C45.98 32.2425 45.9468 32.1752 45.8951 32.1236L44.3639 30.5918C44.3123 30.5384 44.2442 30.5039 44.1707 30.4936C44.0971 30.4833 44.0222 30.498 43.9579 30.5352L41.9533 31.7067L41.7657 31.6126C41.5882 31.5239 41.4057 31.4458 41.2191 31.3785C41.099 31.3314 40.9844 31.2953 40.8643 31.2489L40.2768 29.0088C40.2571 28.9383 40.2148 28.8762 40.1564 28.8321C40.0979 28.788 40.0266 28.7642 39.9534 28.7645H37.7823C37.709 28.7637 37.6375 28.7872 37.5791 28.8314C37.5207 28.8757 37.4786 28.9381 37.4595 29.0088L37.4486 29.0402L37.3865 29.2852L37.2924 29.6604L36.8707 31.2482C36.4941 31.3707 36.1283 31.5241 35.7769 31.7067L33.7777 30.5352C33.7134 30.498 33.6386 30.4833 33.565 30.4936C33.4914 30.5039 33.4234 30.5384 33.3718 30.5918L32.3872 31.5764L32.0385 31.9251L31.8406 32.1229C31.7887 32.1746 31.7554 32.242 31.7459 32.3146C31.7364 32.3872 31.7512 32.4609 31.7881 32.5241L32.8457 34.3418L32.8505 34.3521L32.9549 34.524C32.9446 34.5445 32.9344 34.5602 32.9289 34.5813C32.757 34.9143 32.6164 35.2636 32.5073 35.6225L30.2624 36.2107C30.1913 36.2283 30.1282 36.2692 30.0829 36.3268C30.0377 36.3844 30.013 36.4554 30.0127 36.5287V38.695C30.0127 38.8561 30.1171 38.9816 30.2624 39.0178L32.5073 39.6114C32.6212 39.9885 32.773 40.3531 32.9603 40.6997L31.7881 42.7043C31.7512 42.7676 31.7364 42.8413 31.7459 42.9139C31.7554 42.9865 31.7887 43.0539 31.8406 43.1055L33.3718 44.6414C33.4809 44.7458 33.6474 44.7718 33.7777 44.694L35.7769 43.5224C35.8397 43.5531 35.9025 43.59 35.9646 43.6159C36.1467 43.7046 36.3289 43.7824 36.5172 43.8554C36.6312 43.897 36.7513 43.9387 36.8707 43.9755L37.4595 46.2244C37.4782 46.2955 37.5202 46.3583 37.5786 46.4028C37.6371 46.4473 37.7088 46.471 37.7823 46.4701H39.9534C40.0268 46.4703 40.0982 46.4464 40.1567 46.402C40.2151 46.3576 40.2574 46.2952 40.2768 46.2244L40.865 43.9755C41.2408 43.8579 41.6051 43.7063 41.9533 43.5224L41.9587 43.5272L42.2399 43.6937L42.4111 43.7926L43.4892 44.4176L43.9579 44.694C43.9948 44.7145 44.0364 44.7301 44.078 44.7404C44.1257 44.7452 44.1739 44.7403 44.2196 44.726C44.2653 44.7117 44.3077 44.6883 44.3441 44.6571C44.3519 44.6532 44.3588 44.6479 44.3646 44.6414L45.6972 43.3041L45.8951 43.1062C45.9471 43.0545 45.9805 42.987 45.99 42.9143C45.9996 42.8415 45.9846 42.7677 45.9476 42.7043L44.8852 40.8928L44.776 40.6997C44.7863 40.6792 44.7965 40.6635 44.802 40.6424C44.9739 40.3149 45.1193 39.9655 45.2284 39.6121L47.4733 39.0178C47.5454 39.0005 47.6096 38.9591 47.655 38.9004C47.7004 38.8417 47.7244 38.7692 47.723 38.695V36.5287C47.7227 36.4554 47.698 36.3844 47.6528 36.3268C47.6075 36.2692 47.5443 36.2283 47.4733 36.2107Z" fill="#70C1F9"/>
<path d="M38.8651 41.9504C41.2603 41.9504 43.202 40.0087 43.202 37.6136C43.202 35.2184 41.2603 33.2767 38.8651 33.2767C36.47 33.2767 34.5283 35.2184 34.5283 37.6136C34.5283 40.0087 36.47 41.9504 38.8651 41.9504Z" fill="#4F5D99"/>
<path d="M38.8652 41.2053C40.8488 41.2053 42.4569 39.5972 42.4569 37.6136C42.4569 35.6299 40.8488 34.0219 38.8652 34.0219C36.8815 34.0219 35.2734 35.6299 35.2734 37.6136C35.2734 39.5972 36.8815 41.2053 38.8652 41.2053Z" fill="#DDF2FF"/>
<path d="M38.2885 39.1406C38.2462 39.1407 38.2043 39.1324 38.1652 39.1163C38.1261 39.1001 38.0905 39.0764 38.0606 39.0464L36.8161 37.8005C36.7556 37.7401 36.7217 37.6581 36.7217 37.5726C36.7217 37.4871 36.7556 37.4051 36.8161 37.3447C36.8765 37.2843 36.9585 37.2503 37.044 37.2503C37.1294 37.2503 37.2114 37.2843 37.2719 37.3447L38.2885 38.3614L40.4638 36.1868C40.5242 36.1264 40.6062 36.0924 40.6917 36.0924C40.7771 36.0924 40.8591 36.1264 40.9195 36.1868C40.98 36.2472 41.0139 36.3292 41.0139 36.4147C41.0139 36.5002 40.98 36.5822 40.9195 36.6426L38.5164 39.0457C38.4865 39.0756 38.451 39.0994 38.4119 39.1155C38.3728 39.1317 38.3308 39.1406 38.2885 39.1406Z" fill="#ED524E"/>
</svg>
