<svg width="50" height="50" viewBox="0 0 50 50" fill="none" xmlns="http://www.w3.org/2000/svg">
<path fill-rule="evenodd" clip-rule="evenodd" d="M44.9229 3.12402H31.1288C30.0547 3.12402 29.1758 4.00322 29.1758 5.07734V12.8442C29.1758 13.9183 30.0547 14.7975 31.1288 14.7975H32.1055V18.9478L36.2558 14.7975H44.9229C45.997 14.7975 46.8759 13.9186 46.8759 12.8442V5.07734C46.8759 4.00293 45.997 3.12402 44.9229 3.12402Z" fill="#FFD900"/>
<path d="M43.9866 7.50786C43.9866 7.63737 44.038 7.76158 44.1296 7.85316C44.2212 7.94474 44.3454 7.99619 44.4749 7.99619C44.6044 7.99619 44.7286 7.94474 44.8202 7.85316C44.9118 7.76158 44.9632 7.63737 44.9632 7.50786C44.9632 6.95306 44.6936 6.4568 44.2579 6.10299C43.8496 5.77167 43.2934 5.56665 42.6852 5.56665C42.0771 5.56665 41.5206 5.77167 41.1125 6.10299C40.6768 6.4568 40.4072 6.95306 40.4072 7.50786C40.4072 8.06266 40.6768 8.55921 41.1125 8.91273C41.5206 9.24434 42.0771 9.44907 42.6852 9.44907C43.0656 9.44907 43.4038 9.56931 43.6437 9.76395C43.8554 9.93581 43.9866 10.1662 43.9866 10.4136C43.9866 10.661 43.8554 10.8911 43.6434 11.0633C43.4041 11.2576 43.0656 11.3782 42.6852 11.3782C42.3049 11.3782 41.9664 11.2576 41.7267 11.0633C41.5148 10.8911 41.3836 10.661 41.3836 10.4136C41.3836 10.2841 41.3322 10.16 41.2406 10.0684C41.1491 9.97687 41.0249 9.92543 40.8954 9.92543C40.7659 9.92543 40.6418 9.97687 40.5502 10.0684C40.4587 10.16 40.4072 10.2841 40.4072 10.4136C40.4072 10.9684 40.6768 11.4647 41.1125 11.8185C41.5206 12.1498 42.0771 12.3548 42.6852 12.3548C43.2934 12.3548 43.8496 12.1498 44.2579 11.8185C44.6933 11.4647 44.9632 10.9684 44.9632 10.4136C44.9632 9.85853 44.6936 9.36228 44.2579 9.00846C43.8496 8.67743 43.2934 8.47241 42.6852 8.47241C42.3049 8.47241 41.9664 8.35217 41.7267 8.15753C41.5148 7.98567 41.3836 7.75527 41.3836 7.50786C41.3836 7.26045 41.5151 7.03034 41.7267 6.8582C41.9664 6.66384 42.3049 6.54331 42.6852 6.54331C43.0656 6.54331 43.4038 6.66384 43.6437 6.8582C43.8554 7.03034 43.9866 7.26045 43.9866 7.50786Z" fill="#FF9300"/>
<path d="M43.1741 5.13762C43.1741 5.00811 43.1227 4.8839 43.0311 4.79232C42.9395 4.70074 42.8153 4.64929 42.6858 4.64929C42.5563 4.64929 42.4321 4.70074 42.3405 4.79232C42.2489 4.8839 42.1975 5.00811 42.1975 5.13762V12.7837C42.1975 12.9132 42.2489 13.0374 42.3405 13.129C42.4321 13.2205 42.5563 13.272 42.6858 13.272C42.8153 13.272 42.9395 13.2205 43.0311 13.129C43.1227 13.0374 43.1741 12.9132 43.1741 12.7837V5.13762ZM39.3286 12.5498C39.4581 12.5498 39.5824 12.4984 39.6739 12.4068C39.7655 12.3152 39.817 12.191 39.817 12.0615C39.817 11.932 39.7655 11.8078 39.6739 11.7162C39.5824 11.6246 39.4581 11.5731 39.3286 11.5731H32.0655V5.86024C32.0655 5.73073 32.0141 5.60652 31.9225 5.51494C31.8309 5.42336 31.7067 5.37191 31.5772 5.37191C31.4477 5.37191 31.3235 5.42336 31.2319 5.51494C31.1403 5.60652 31.0889 5.73073 31.0889 5.86024V12.0613C31.0889 12.3309 31.3074 12.5498 31.5771 12.5498H39.3286Z" fill="#FF9300"/>
<path d="M33.1641 12.0614C33.1641 12.1909 33.2155 12.3151 33.3071 12.4067C33.3987 12.4983 33.5229 12.5497 33.6524 12.5497C33.7819 12.5497 33.9061 12.4983 33.9977 12.4067C34.0893 12.3151 34.1407 12.1909 34.1407 12.0614V10.0371C34.1407 9.90761 34.0893 9.7834 33.9977 9.69182C33.9061 9.60024 33.7819 9.54879 33.6524 9.54879C33.5229 9.54879 33.3987 9.60024 33.3071 9.69182C33.2155 9.7834 33.1641 9.90761 33.1641 10.0371V12.0614ZM35.3308 12.0614C35.3308 12.1909 35.3822 12.3151 35.4738 12.4067C35.5654 12.4983 35.6896 12.5497 35.8191 12.5497C35.9486 12.5497 36.0728 12.4983 36.1644 12.4067C36.256 12.3151 36.3074 12.1909 36.3074 12.0614V8.93849C36.3074 8.80898 36.256 8.68477 36.1644 8.59319C36.0728 8.50161 35.9486 8.45016 35.8191 8.45016C35.6896 8.45016 35.5654 8.50161 35.4738 8.59319C35.3822 8.68477 35.3308 8.80898 35.3308 8.93849V12.0614ZM37.4975 12.0614C37.4975 12.1909 37.5489 12.3151 37.6405 12.4067C37.7321 12.4983 37.8563 12.5497 37.9858 12.5497C38.1153 12.5497 38.2395 12.4983 38.3311 12.4067C38.4227 12.3151 38.4741 12.1909 38.4741 12.0614V7.24382C38.4741 7.11431 38.4227 6.9901 38.3311 6.89852C38.2395 6.80694 38.1153 6.75549 37.9858 6.75549C37.8563 6.75549 37.7321 6.80694 37.6405 6.89852C37.5489 6.9901 37.4975 7.11431 37.4975 7.24382V12.0614Z" fill="#FF9300"/>
<path fill-rule="evenodd" clip-rule="evenodd" d="M26.7689 19.836L12.0057 19.7339C9.91363 15.7215 11.7014 12.5775 14.4991 13.1739C15.8884 8.277 31.3148 11.5997 26.7689 19.836Z" fill="#7F5334"/>
<path fill-rule="evenodd" clip-rule="evenodd" d="M25.2635 32.2477H28.261C32.2835 32.2477 35.5751 35.5393 35.5751 39.5618V46.876H20.4572L21.5962 44.1553L23.0665 37.4375L25.2635 32.2477ZM18.2426 46.876H3.125V39.5618C3.125 35.5393 6.41629 32.2477 10.4389 32.2477H13.4366L15.9675 37.5001L17.1036 44.1553L18.2426 46.876Z" fill="#035D7C"/>
<path fill-rule="evenodd" clip-rule="evenodd" d="M17.1035 44.1553L13.4365 32.2477H25.2634L20.7587 46.876L21.5964 44.1553L19.8011 36.3089L21.2311 33.4792H17.4692L18.8988 36.3089L17.1035 44.1553Z" fill="#E6E7E8"/>
<path fill-rule="evenodd" clip-rule="evenodd" d="M17.4692 33.4792H21.2307L20.1021 36.3089L21.5961 44.1553L20.7584 46.876H17.9412L17.1035 44.1553L18.5975 36.3089L17.4692 33.4792Z" fill="#CB1A26"/>
<path fill-rule="evenodd" clip-rule="evenodd" d="M25.5217 19.1909C27.6117 19.1909 27.6117 22.6904 25.5217 22.6901C26.2368 33.2016 12.4627 33.2016 13.1781 22.6901C11.0878 22.6901 11.0878 19.1909 13.1781 19.1909C14.6666 17.3824 17.4428 16.7091 20.2246 18.7616C21.4631 19.6757 22.4865 18.9476 25.5217 19.1909Z" fill="#FFD180"/>
<path fill-rule="evenodd" clip-rule="evenodd" d="M23.6533 32.2477V28.7543C21.3197 31.1802 17.3796 31.1802 15.0459 28.7543V32.2477L17.469 33.4793H21.2306L23.6533 32.2477Z" fill="#FFD180"/>
<path fill-rule="evenodd" clip-rule="evenodd" d="M23.6533 30.3044V28.7545C21.3197 31.1805 17.3796 31.1805 15.0459 28.7545V30.3044C16.2656 31.2583 17.7749 31.7788 19.3496 31.7788C20.924 31.7788 22.4339 31.2583 23.6533 30.3044Z" fill="#E2B371"/>
</svg>
