<svg width="31" height="30" viewBox="0 0 31 30" fill="none" xmlns="http://www.w3.org/2000/svg">
<circle cx="15.5" cy="15" r="15" fill="#EAEAEA"/>
<path d="M19.6896 17.3139L21.8929 18.6282C22.1146 18.7609 22.2898 18.9591 22.3944 19.1955C22.4989 19.4319 22.5276 19.6949 22.4766 19.9483C22.3776 20.4553 22.1756 20.9367 21.883 21.3625C21.5905 21.7883 21.2137 22.1495 20.7759 22.4238C20.3382 22.6981 19.8487 22.8797 19.338 22.9572C18.8272 23.0348 18.306 23.0067 17.8065 22.8746C15.372 22.2071 13.1532 20.9175 11.3682 19.1327C9.58312 17.3478 8.29334 15.129 7.62565 12.6946C7.49348 12.1953 7.46521 11.6741 7.54259 11.1634C7.61998 10.6527 7.80136 10.1633 8.07552 9.7255C8.34968 9.28771 8.71078 8.91087 9.13647 8.61828C9.56215 8.32569 10.0434 8.12359 10.5503 8.02449H10.5637C10.8183 7.97336 11.0825 8.00273 11.3196 8.10853C11.5568 8.21433 11.7551 8.39131 11.8871 8.61492L13.1914 10.8107C13.4142 11.1881 13.4836 11.6365 13.3853 12.0635C13.2871 12.4906 13.0288 12.8636 12.6635 13.1057L11.2817 14.0273C12.2598 16.3707 14.1202 18.2356 16.4613 19.2194L17.3912 17.8309C17.6352 17.4668 18.0096 17.2101 18.4373 17.1139C18.8649 17.0177 19.3131 17.0893 19.6896 17.3139ZM19.7938 13.8329C19.7927 13.0039 19.4629 12.2091 18.8766 11.6228C18.2904 11.0366 17.4956 10.7067 16.6665 10.7056C16.5006 10.7056 16.3415 10.7715 16.2242 10.8888C16.1069 11.0061 16.041 11.1652 16.041 11.3311C16.041 11.497 16.1069 11.6561 16.2242 11.7734C16.3415 11.8907 16.5006 11.9566 16.6665 11.9566C17.1639 11.9572 17.6408 12.1551 17.9926 12.5069C18.3443 12.8586 18.5422 13.3355 18.5429 13.8329C18.5429 13.9988 18.6088 14.1579 18.7261 14.2752C18.8434 14.3925 19.0025 14.4584 19.1683 14.4584C19.3342 14.4584 19.4933 14.3925 19.6106 14.2752C19.7279 14.1579 19.7938 13.9988 19.7938 13.8329ZM21.6702 14.4584C21.5043 14.4584 21.3452 14.3925 21.2279 14.2752C21.1106 14.1579 21.0447 13.9988 21.0447 13.8329C21.0434 12.6722 20.5817 11.5593 19.7609 10.7385C18.9401 9.91774 17.8273 9.45604 16.6665 9.45471C16.5006 9.45471 16.3415 9.38882 16.2242 9.27152C16.1069 9.15422 16.041 8.99513 16.041 8.82925C16.041 8.66337 16.1069 8.50428 16.2242 8.38698C16.3415 8.26968 16.5006 8.20379 16.6665 8.20379C18.1589 8.20555 19.5897 8.79919 20.645 9.85448C21.7003 10.9098 22.2939 12.3405 22.2957 13.8329C22.2957 13.9988 22.2298 14.1579 22.1125 14.2752C21.9952 14.3925 21.8361 14.4584 21.6702 14.4584Z" fill="#2C2C2C"/>
</svg>
