<svg width="35" height="36" viewBox="0 0 35 36" fill="none" xmlns="http://www.w3.org/2000/svg">
<path d="M24.3751 8.40672C23.8292 8.40672 23.4477 8.59876 23.2317 8.98144C23.0097 9.36533 22.9017 9.90889 22.9017 10.6133C22.9017 11.319 23.0121 11.8613 23.2317 12.2416C23.4477 12.6231 23.8292 12.8139 24.3751 12.8139C24.9175 12.8139 25.3002 12.6231 25.5173 12.2416C25.7369 11.8613 25.8449 11.3178 25.8449 10.6133C25.8449 9.90889 25.7345 9.36412 25.5173 8.98144C25.3016 8.59876 24.9199 8.40672 24.3751 8.40672ZM24.866 11.74C24.7904 11.9993 24.6261 12.13 24.3775 12.13C24.1268 12.13 23.9611 12.0005 23.8808 11.74C23.8016 11.4796 23.7596 11.1042 23.7596 10.6133C23.7596 10.0985 23.7992 9.71704 23.8808 9.4699C23.9625 9.22275 24.1268 9.09788 24.3775 9.09788C24.6259 9.09788 24.7904 9.22275 24.866 9.4699C24.9428 9.71704 24.9848 10.0975 24.9848 10.6133C24.9824 11.1042 24.9428 11.4796 24.866 11.74ZM6.89986 33.5988H28.0998C29.4198 33.5988 30.4996 32.5189 30.4996 31.1989V4.8011C30.4994 3.48112 29.4196 2.40125 28.0998 2.40125H6.89986C5.57987 2.40125 4.5 3.48112 4.5 4.8011V31.1989C4.5 32.5187 5.57987 33.5988 6.89986 33.5988ZM13.1082 28.6251C13.1084 28.7075 13.0924 28.7892 13.061 28.8654C13.0296 28.9416 12.9835 29.0109 12.9253 29.0693C12.8671 29.1277 12.798 29.1741 12.7219 29.2057C12.6458 29.2374 12.5642 29.2538 12.4818 29.2539H8.00849C7.84215 29.2532 7.68285 29.1867 7.56546 29.0688C7.44807 28.951 7.38213 28.7914 7.38208 28.6251V27.1493C7.38234 26.9831 7.44839 26.8238 7.56577 26.7062C7.68315 26.5886 7.84232 26.5222 8.00849 26.5217H12.4816C12.6479 26.5219 12.8073 26.5881 12.9247 26.7058C13.0422 26.8235 13.1081 26.983 13.108 27.1493L13.1082 28.6251ZM13.1082 23.9899C13.1083 24.1562 13.0424 24.3157 12.925 24.4334C12.8075 24.5511 12.6481 24.6173 12.4818 24.6175H8.00849C7.84232 24.6169 7.68315 24.5506 7.56577 24.433C7.44839 24.3154 7.38234 24.1561 7.38208 23.9899V22.5129C7.3824 22.3468 7.4485 22.1877 7.5659 22.0703C7.68331 21.9529 7.84245 21.8868 8.00849 21.8864H12.4816C12.6477 21.8868 12.8068 21.9529 12.9242 22.0703C13.0416 22.1877 13.1077 22.3468 13.108 22.5129L13.1082 23.9899ZM13.1082 19.3523C13.1083 19.5185 13.0424 19.6781 12.925 19.7957C12.8075 19.9134 12.6481 19.9797 12.4818 19.9799H8.00849C7.84232 19.9793 7.68315 19.9129 7.56577 19.7953C7.44839 19.6777 7.38234 19.5184 7.38208 19.3523V17.8764C7.38208 17.531 7.66401 17.2476 8.00849 17.2476H12.4816C12.648 17.2481 12.8074 17.3146 12.9249 17.4325C13.0423 17.5504 13.1082 17.71 13.108 17.8764L13.1082 19.3523ZM20.4059 28.6251C20.406 28.7077 20.3897 28.7895 20.3581 28.8658C20.3265 28.9421 20.2802 29.0114 20.2218 29.0698C20.1634 29.1282 20.0941 29.1745 20.0178 29.2061C19.9415 29.2377 19.8597 29.254 19.7771 29.2539H15.3064C15.14 29.2532 14.9808 29.1867 14.8634 29.0688C14.746 28.951 14.68 28.7914 14.68 28.6251V27.1493C14.6802 26.9831 14.7463 26.8238 14.8637 26.7062C14.9811 26.5886 15.1402 26.5222 15.3064 26.5217H19.7773C19.9439 26.5216 20.1037 26.5876 20.2216 26.7053C20.3396 26.823 20.4059 26.9827 20.4061 27.1493V28.6251H20.4059ZM20.4059 23.9899C20.4057 24.1565 20.3394 24.3162 20.2214 24.4339C20.1035 24.5516 19.9437 24.6176 19.7771 24.6175H15.3064C15.1402 24.6169 14.9811 24.5506 14.8637 24.433C14.7463 24.3154 14.6802 24.1561 14.68 23.9899V22.5129C14.6803 22.3468 14.7464 22.1877 14.8638 22.0703C14.9812 21.9529 15.1404 21.8868 15.3064 21.8864H19.7773C19.9436 21.8865 20.1032 21.9524 20.221 22.0698C20.3389 22.1872 20.4054 22.3465 20.4061 22.5129V23.9899H20.4059ZM20.4059 19.3523C20.4057 19.5189 20.3394 19.6786 20.2214 19.7962C20.1035 19.9139 19.9437 19.98 19.7771 19.9799H15.3064C15.1402 19.9793 14.9811 19.9129 14.8637 19.7953C14.7463 19.6777 14.6802 19.5184 14.68 19.3523V17.8764C14.68 17.531 14.9619 17.2476 15.3064 17.2476H19.7773C19.944 17.2478 20.1039 17.3141 20.2218 17.432C20.3397 17.5499 20.406 17.7097 20.4061 17.8764V19.3523H20.4059ZM27.7038 28.6251C27.704 28.7915 27.6381 28.9512 27.5207 29.0691C27.4032 29.187 27.2438 29.2534 27.0774 29.2539H22.6065C22.4398 29.2538 22.2799 29.1875 22.162 29.0696C22.0441 28.9517 21.9778 28.7918 21.9777 28.6251V27.1493C21.9781 26.9827 22.0445 26.8232 22.1624 26.7055C22.2803 26.5879 22.44 26.5218 22.6065 26.5217H27.0774C27.2436 26.5221 27.4029 26.5884 27.5203 26.706C27.6377 26.8237 27.7037 26.9831 27.7038 27.1493V28.6251ZM27.7038 23.9899C27.7037 24.1561 27.6377 24.3155 27.5203 24.4331C27.4029 24.5508 27.2436 24.6171 27.0774 24.6175H22.6065C22.44 24.6174 22.2803 24.5513 22.1624 24.4336C22.0445 24.316 21.9781 24.1564 21.9777 23.9899V22.5129C21.9782 22.3465 22.0446 22.187 22.1625 22.0696C22.2804 21.9522 22.4401 21.8863 22.6065 21.8864H27.0774C27.2434 21.887 27.4024 21.9531 27.5198 22.0705C27.6371 22.1879 27.7033 22.3469 27.7038 22.5129V23.9899ZM27.7038 19.3523C27.7037 19.5185 27.6377 19.6779 27.5203 19.7955C27.4029 19.9132 27.2436 19.9794 27.0774 19.9799H22.6065C22.44 19.9798 22.2803 19.9137 22.1624 19.796C22.0445 19.6784 21.9781 19.5188 21.9777 19.3523V17.8764C21.9781 17.7098 22.0444 17.55 22.1623 17.4322C22.2801 17.3144 22.4398 17.248 22.6065 17.2476H27.0774C27.2438 17.2483 27.4031 17.3149 27.5204 17.4327C27.6378 17.5505 27.7038 17.7101 27.7038 17.8764V19.3523ZM7.29581 6.74487H27.6425V14.1327H7.29581V6.74487Z" fill="white"/>
</svg>
