<svg width="28" height="27" viewBox="0 0 28 27" fill="none" xmlns="http://www.w3.org/2000/svg">
<path fill-rule="evenodd" clip-rule="evenodd" d="M5.55757 14.1955C6.27634 14.1955 6.86106 13.6107 6.86106 12.8922C6.86106 12.6831 6.81138 12.4857 6.72353 12.3104L10.2671 9.75153C10.5028 9.98604 10.8277 10.1312 11.1858 10.1312C11.7077 10.1312 12.1586 9.82288 12.3667 9.37902L15.5189 10.2652C15.5134 10.3133 15.5107 10.3617 15.5106 10.4101C15.5106 11.129 16.0953 11.7137 16.8141 11.7137C17.5329 11.7137 18.1176 11.129 18.1176 10.4101C18.1178 10.1254 18.0243 9.84853 17.8515 9.62223L21.7111 5.54971C21.9266 5.69663 22.1815 5.77509 22.4424 5.77483C23.1611 5.77483 23.7459 5.19006 23.7459 4.4715C23.7459 3.75268 23.1611 3.16791 22.4424 3.16791C21.7236 3.16791 21.1388 3.75268 21.1388 4.4715C21.1388 4.76724 21.2382 5.04051 21.405 5.25946L17.5455 9.33198C17.3299 9.18503 17.075 9.10657 16.8141 9.10685C16.2922 9.10685 15.8412 9.41519 15.6333 9.85927L12.4811 8.97285C12.4864 8.92524 12.4893 8.87709 12.4893 8.82768C12.4893 8.10912 11.9046 7.52435 11.1858 7.52435C10.467 7.52435 9.88232 8.10912 9.88232 8.82768C9.88232 9.03677 9.93199 9.23421 10.0198 9.4095L6.47641 11.9686C6.24053 11.7338 5.91569 11.5887 5.55757 11.5887C4.8388 11.5887 4.25408 12.1735 4.25408 12.8923C4.25408 13.6107 4.8388 14.1955 5.55757 14.1955ZM25.8652 23.4104C25.9206 23.4112 25.9734 23.4338 26.0122 23.4733C26.051 23.5128 26.0728 23.5659 26.0728 23.6213C26.0728 23.6766 26.051 23.7298 26.0122 23.7692C25.9734 23.8087 25.9206 23.8313 25.8652 23.8322H2.13474C2.0788 23.8322 2.02516 23.81 1.9856 23.7704C1.94605 23.7309 1.92383 23.6772 1.92383 23.6213C1.92383 23.5653 1.94605 23.5117 1.9856 23.4721C2.02516 23.4326 2.0788 23.4104 2.13474 23.4104H3.68059V16.3435C3.68061 16.2876 3.70284 16.2339 3.7424 16.1943C3.78197 16.1548 3.83563 16.1325 3.89159 16.1325H7.22345C7.27941 16.1325 7.33307 16.1548 7.37263 16.1943C7.41219 16.2339 7.43442 16.2876 7.43444 16.3435V23.4104H9.30899V12.3853C9.30899 12.3577 9.31444 12.3302 9.32504 12.3047C9.33564 12.2791 9.35118 12.2558 9.37076 12.2363C9.39034 12.2167 9.41359 12.2012 9.43918 12.1906C9.46476 12.18 9.49218 12.1746 9.51987 12.1746H12.8517C12.8794 12.1745 12.9069 12.18 12.9325 12.1906C12.958 12.2012 12.9813 12.2167 13.0009 12.2362C13.0205 12.2558 13.036 12.2791 13.0466 12.3046C13.0573 12.3302 13.0627 12.3577 13.0627 12.3853V23.4104H14.9373V14.2142C14.9373 14.1865 14.9427 14.1591 14.9533 14.1335C14.9639 14.108 14.9795 14.0847 14.999 14.0651C15.0186 14.0456 15.0419 14.0301 15.0675 14.0195C15.0931 14.0089 15.1205 14.0034 15.1482 14.0035H18.48C18.5077 14.0034 18.5351 14.0089 18.5607 14.0194C18.5863 14.03 18.6096 14.0456 18.6292 14.0651C18.6488 14.0847 18.6643 14.1079 18.6749 14.1335C18.6855 14.1591 18.691 14.1865 18.691 14.2142V23.4104H20.5655V7.88779C20.5655 7.83187 20.5878 7.77824 20.6273 7.73871C20.6669 7.69917 20.7205 7.67696 20.7764 7.67696H24.1083C24.136 7.67693 24.1634 7.68237 24.189 7.69295C24.2146 7.70353 24.2379 7.71906 24.2575 7.73864C24.2771 7.75822 24.2926 7.78147 24.3032 7.80707C24.3138 7.83266 24.3193 7.86009 24.3192 7.88779V23.4104H25.8652Z" fill="white"/>
</svg>
