<svg width="20" height="21" viewBox="0 0 20 21" fill="none" xmlns="http://www.w3.org/2000/svg">
<path d="M13.1244 8.2875L10.8806 10.5L13.1244 12.7125C13.1868 12.771 13.2366 12.8416 13.2706 12.9201C13.3047 12.9986 13.3222 13.0832 13.3222 13.1688C13.3222 13.2543 13.3047 13.3389 13.2706 13.4174C13.2366 13.4959 13.1868 13.5665 13.1244 13.625C13.066 13.6829 12.9967 13.7288 12.9206 13.7599C12.8444 13.791 12.7629 13.8067 12.6806 13.8063C12.5167 13.8056 12.3595 13.7405 12.2431 13.625L9.99937 11.3813L7.78687 13.625C7.67046 13.7405 7.51333 13.8056 7.34937 13.8063C7.26711 13.8067 7.18558 13.791 7.10943 13.7599C7.03328 13.7288 6.96402 13.6829 6.90562 13.625C6.78921 13.5079 6.72387 13.3495 6.72387 13.1844C6.72387 13.0193 6.78921 12.8609 6.90562 12.7438L9.11812 10.5L6.90562 8.2875C6.80323 8.16794 6.74972 8.01414 6.7558 7.85685C6.76187 7.69955 6.82708 7.55034 6.93839 7.43903C7.0497 7.32772 7.19891 7.26251 7.35621 7.25643C7.51351 7.25036 7.66731 7.30386 7.78687 7.40625L9.99937 9.61875L12.2119 7.40625C12.2697 7.34634 12.3388 7.29841 12.4152 7.2652C12.4916 7.23199 12.5738 7.21414 12.6571 7.21269C12.7404 7.21124 12.8231 7.22621 12.9006 7.25674C12.9781 7.28727 13.0488 7.33277 13.1087 7.39063C13.1687 7.44849 13.2166 7.51759 13.2498 7.59398C13.283 7.67037 13.3009 7.75255 13.3023 7.83583C13.3038 7.91911 13.2888 8.00187 13.2583 8.07936C13.2277 8.15686 13.1822 8.22759 13.1244 8.2875ZM16.1869 16.6875C14.9631 17.9111 13.404 18.7444 11.7067 19.0819C10.0094 19.4195 8.25012 19.2462 6.65131 18.5839C5.05251 17.9216 3.686 16.8001 2.72458 15.3612C1.76316 13.9222 1.25 12.2306 1.25 10.5C1.25 8.76946 1.76316 7.07777 2.72458 5.63886C3.686 4.19995 5.05251 3.07844 6.65131 2.41614C8.25012 1.75385 10.0094 1.58052 11.7067 1.91807C13.404 2.25562 14.9631 3.08888 16.1869 4.3125C16.9995 5.12503 17.6441 6.08966 18.0839 7.15132C18.5236 8.21298 18.75 9.35086 18.75 10.5C18.75 11.6491 18.5236 12.787 18.0839 13.8487C17.6441 14.9103 16.9995 15.875 16.1869 16.6875ZM15.3056 5.19375C14.2557 4.14747 12.9193 3.43575 11.4651 3.14847C10.011 2.86119 8.50432 3.01123 7.13539 3.57965C5.76647 4.14807 4.59666 5.10938 3.7737 6.34218C2.95074 7.57499 2.51153 9.024 2.51153 10.5063C2.51153 11.9885 2.95074 13.4375 3.7737 14.6703C4.59666 15.9031 5.76647 16.8644 7.13539 17.4329C8.50432 18.0013 10.011 18.1513 11.4651 17.864C12.9193 17.5768 14.2557 16.865 15.3056 15.8188C16.0048 15.122 16.5596 14.294 16.9381 13.3824C17.3167 12.4708 17.5115 11.4934 17.5115 10.5063C17.5115 9.51915 17.3167 8.54175 16.9381 7.63012C16.5596 6.71848 16.0048 5.89053 15.3056 5.19375Z" fill="white"/>
</svg>
