<svg width="51" height="50" viewBox="0 0 51 50" fill="none" xmlns="http://www.w3.org/2000/svg">
<path d="M40.2471 44.7266H12.1221C10.8275 44.7251 9.58641 44.2102 8.67103 43.2948C7.75564 42.3794 7.24073 41.1383 7.23926 39.8438V10.1562C7.24073 8.8617 7.75564 7.62059 8.67103 6.70521C9.58641 5.78982 10.8275 5.27491 12.1221 5.27344H40.2471C41.5416 5.27491 42.7827 5.78982 43.6981 6.70521C44.6135 7.62059 45.1284 8.8617 45.1299 10.1562V39.8438C45.1284 41.1383 44.6135 42.3794 43.6981 43.2948C42.7827 44.2102 41.5416 44.7251 40.2471 44.7266Z" fill="url(#paint0_linear_100_317)"/>
<path d="M9.77832 14.7461H6.65332C6.39432 14.7461 6.14593 14.6432 5.96279 14.4601C5.77965 14.2769 5.67676 14.0285 5.67676 13.7695C5.67676 13.5105 5.77965 13.2621 5.96279 13.079C6.14593 12.8959 6.39432 12.793 6.65332 12.793H9.77832C10.0373 12.793 10.2857 12.8959 10.4689 13.079C10.652 13.2621 10.7549 13.5105 10.7549 13.7695C10.7549 14.0285 10.652 14.2769 10.4689 14.4601C10.2857 14.6432 10.0373 14.7461 9.77832 14.7461Z" fill="url(#paint1_linear_100_317)"/>
<path d="M38.0085 35.1456C37.7913 33.0953 37.0116 31.1448 35.7555 29.5098C34.4994 27.8747 32.8157 26.6187 30.8906 25.8804C32.1743 25.0229 33.1482 23.7752 33.6684 22.3217C34.1886 20.8682 34.2276 19.286 33.7795 17.8086C33.3315 16.3313 32.4202 15.0372 31.1802 14.1176C29.9403 13.1979 28.4374 12.7014 26.8936 12.7014C25.3498 12.7014 23.847 13.1979 22.607 14.1176C21.3671 15.0372 20.4558 16.3313 20.0077 17.8086C19.5597 19.286 19.5986 20.8682 20.1189 22.3217C20.6391 23.7752 21.613 25.0229 22.8967 25.8804C20.9715 26.6187 19.2878 27.8748 18.0317 29.5099C16.7756 31.1449 15.9959 33.0954 15.7787 35.1458C15.7496 35.4165 15.7778 35.6903 15.8614 35.9494C15.9449 36.2085 16.0821 36.4472 16.2639 36.6498C16.4456 36.8525 16.668 37.0147 16.9165 37.1259C17.165 37.2371 17.4342 37.2947 17.7064 37.2952H36.0809C36.3532 37.2947 36.6223 37.237 36.8708 37.1258C37.1194 37.0147 37.3417 36.8524 37.5235 36.6497C37.7053 36.447 37.8424 36.2084 37.9259 35.9493C38.0095 35.6901 38.0376 35.4163 38.0085 35.1456Z" fill="url(#paint2_linear_100_317)"/>
<path d="M9.77832 25.9766H6.65332C6.39432 25.9766 6.14593 25.8737 5.96279 25.6905C5.77965 25.5074 5.67676 25.259 5.67676 25C5.67676 24.741 5.77965 24.4926 5.96279 24.3095C6.14593 24.1263 6.39432 24.0234 6.65332 24.0234H9.77832C10.0373 24.0234 10.2857 24.1263 10.4689 24.3095C10.652 24.4926 10.7549 24.741 10.7549 25C10.7549 25.259 10.652 25.5074 10.4689 25.6905C10.2857 25.8737 10.0373 25.9766 9.77832 25.9766Z" fill="url(#paint3_linear_100_317)"/>
<path d="M9.77832 37.207H6.65332C6.39432 37.207 6.14593 37.1041 5.96279 36.921C5.77965 36.7379 5.67676 36.4895 5.67676 36.2305C5.67676 35.9715 5.77965 35.7231 5.96279 35.5399C6.14593 35.3568 6.39432 35.2539 6.65332 35.2539H9.77832C10.0373 35.2539 10.2857 35.3568 10.4689 35.5399C10.652 35.7231 10.7549 35.9715 10.7549 36.2305C10.7549 36.4895 10.652 36.7379 10.4689 36.921C10.2857 37.1041 10.0373 37.207 9.77832 37.207Z" fill="url(#paint4_linear_100_317)"/>
<defs>
<linearGradient id="paint0_linear_100_317" x1="47.6631" y1="46.4785" x2="2.98486" y2="1.8003" gradientUnits="userSpaceOnUse">
<stop stop-color="#2F80ED"/>
<stop offset="1" stop-color="#56CCF2"/>
</linearGradient>
<linearGradient id="paint1_linear_100_317" x1="8.21582" y1="15.4375" x2="8.21582" y2="12.2486" gradientUnits="userSpaceOnUse">
<stop stop-color="#B3B3B3"/>
<stop offset="1" stop-color="white"/>
</linearGradient>
<linearGradient id="paint2_linear_100_317" x1="40.0768" y1="41.6898" x2="14.5245" y2="16.1373" gradientUnits="userSpaceOnUse">
<stop stop-color="#C6E9F7"/>
<stop offset="1" stop-color="#F2F2F2"/>
</linearGradient>
<linearGradient id="paint3_linear_100_317" x1="8.21582" y1="26.668" x2="8.21582" y2="23.4791" gradientUnits="userSpaceOnUse">
<stop stop-color="#B3B3B3"/>
<stop offset="1" stop-color="white"/>
</linearGradient>
<linearGradient id="paint4_linear_100_317" x1="8.21582" y1="37.8984" x2="8.21582" y2="34.7096" gradientUnits="userSpaceOnUse">
<stop stop-color="#B3B3B3"/>
<stop offset="1" stop-color="white"/>
</linearGradient>
</defs>
</svg>
