<svg width="51" height="51" viewBox="0 0 51 51" fill="none" xmlns="http://www.w3.org/2000/svg">
<path d="M45.3317 28.0043L35.3975 37.9385C34.1419 39.1941 32.1054 39.1941 30.8503 37.9379L13.5748 20.6625C13.3219 20.4105 13.1128 20.1179 12.9564 19.7969C12.3727 18.5982 12.5786 17.1117 13.5748 16.1145L23.5084 6.18082C24.7646 4.92491 26.8009 4.92491 28.0561 6.18082L45.3316 23.4563C46.5877 24.7118 46.5878 26.7483 45.3317 28.0043Z" fill="#4395FB"/>
<path d="M45.3313 28.0043L35.3971 37.9385C34.1416 39.194 32.105 39.194 30.8499 37.9379L13.5744 20.6625C13.3215 20.4105 13.1124 20.1179 12.9561 19.7969H41.6718L45.3312 23.4564C46.5874 24.7119 46.5874 26.7483 45.3312 28.0044L45.3313 28.0043Z" fill="#2482FF"/>
<path d="M19.1016 10.5879L22.5018 7.18738L44.3247 29.0106L40.9245 32.4108L19.1016 10.5879Z" fill="#2C5BAB"/>
<path d="M35.111 19.7968H28.3105L40.925 32.4105L44.3249 29.0106L35.111 19.7968Z" fill="#274B92"/>
<path d="M44.024 46.3793H7.51047C6.29008 46.3793 5.30078 45.3899 5.30078 44.1696V25.4234C5.30078 24.203 6.29016 23.2137 7.51047 23.2137H44.024C45.2443 23.2137 46.2337 24.203 46.2337 25.4234V44.1696C46.2337 45.39 45.2443 46.3793 44.024 46.3793Z" fill="#1EB7A2"/>
<path d="M43.1698 30.6367V38.9564C43.1698 39.4193 42.8449 39.8167 42.392 39.913C41.9992 39.9968 41.6227 40.1444 41.2777 40.35C40.948 40.545 40.6506 40.7901 40.3961 41.0763L40.3935 41.0788C40.0395 41.4771 39.7755 41.947 39.6192 42.4564C39.4952 42.8613 39.1119 43.1312 38.6886 43.1312H12.8454C12.422 43.1312 12.0388 42.8613 11.9148 42.4564C11.5244 41.1792 10.4631 40.1946 9.14207 39.913C8.68912 39.8167 8.36426 39.4194 8.36426 38.9564V30.6367C8.36426 30.1744 8.68912 29.7762 9.14207 29.6801C9.44103 29.6161 9.73087 29.5152 10.0049 29.3796C10.9145 28.9309 11.6138 28.121 11.9149 27.1364C12.0388 26.7315 12.4221 26.4615 12.8454 26.4615H38.6886C39.112 26.4615 39.4952 26.7315 39.6192 27.1364C40.0096 28.4136 41.0709 29.3982 42.3919 29.6801C42.8449 29.7761 43.1698 30.1744 43.1698 30.6367H43.1698Z" fill="#65D196"/>
<path d="M43.1698 30.6367V38.9564C43.1698 39.4193 42.8449 39.8167 42.392 39.913C41.9992 39.9968 41.6227 40.1444 41.2777 40.35C40.948 40.545 40.6506 40.7901 40.396 41.0763L40.3935 41.0788H14.4861C14.0626 41.0788 13.6797 40.8088 13.5557 40.404C13.165 39.1268 12.1038 38.1413 10.7827 37.8603C10.3297 37.7633 10.0049 37.3659 10.0049 36.903V29.3796C10.9145 28.9309 11.6138 28.121 11.9149 27.1364C12.0388 26.7315 12.422 26.4615 12.8454 26.4615H38.6886C39.112 26.4615 39.4952 26.7315 39.6192 27.1364C40.0096 28.4136 41.0709 29.3982 42.3919 29.6801C42.8449 29.7761 43.1697 30.1744 43.1697 30.6367H43.1698Z" fill="#7AF4AB"/>
<path d="M9.65806 26.5536C9.65806 26.9977 9.29808 27.3576 8.85397 27.3576C8.40986 27.3576 8.0498 26.9977 8.0498 26.5536C8.0498 26.1094 8.40978 25.7494 8.85397 25.7494C9.29816 25.7494 9.65806 26.1094 9.65806 26.5536ZM43.4843 26.5536C43.4843 26.9977 43.1243 27.3576 42.6801 27.3576C42.236 27.3576 41.876 26.9977 41.876 26.5536C41.876 26.1094 42.236 25.7494 42.6801 25.7494C43.1243 25.7494 43.4843 26.1094 43.4843 26.5536ZM9.65806 43.0396C9.65806 43.4837 9.29808 43.8437 8.85397 43.8437C8.40986 43.8437 8.0498 43.4837 8.0498 43.0396C8.0498 42.5955 8.40978 42.2355 8.85397 42.2355C9.29816 42.2355 9.65806 42.5955 9.65806 43.0396ZM43.4843 43.0396C43.4843 43.4837 43.1243 43.8437 42.6801 43.8437C42.236 43.8437 41.876 43.4837 41.876 43.0396C41.876 42.5955 42.236 42.2355 42.6801 42.2355C43.1243 42.2355 43.4843 42.5955 43.4843 43.0396Z" fill="#7AF4A9"/>
<path d="M32.3473 34.7966C32.3473 38.4306 29.4012 41.3766 25.7668 41.3766C22.1327 41.3766 19.1867 38.4306 19.1867 34.7966C19.1867 31.1622 22.1327 28.2164 25.7668 28.2164C29.4012 28.2164 32.3473 31.1622 32.3473 34.7966ZM39.6443 33.9949H35.9324C35.5831 33.9949 35.3 34.2783 35.3 34.6277C35.3 34.977 35.5831 35.2605 35.9324 35.2605H39.6443C39.994 35.2605 40.2771 34.977 40.2771 34.6277C40.2771 34.2783 39.994 33.9949 39.6443 33.9949H39.6443ZM15.6017 34.3323H11.8896C11.7218 34.3323 11.5608 34.399 11.4422 34.5176C11.3235 34.6363 11.2568 34.7973 11.2568 34.9651C11.2568 35.1329 11.3235 35.2938 11.4422 35.4125C11.5608 35.5312 11.7218 35.5979 11.8896 35.5979H15.6015C15.7693 35.5978 15.9301 35.5311 16.0488 35.4124C16.1674 35.2938 16.234 35.1329 16.234 34.9651C16.234 34.7973 16.1674 34.6364 16.0488 34.5178C15.9302 34.3991 15.7694 34.3324 15.6017 34.3323Z" fill="#1A9C91"/>
<path d="M28.102 36.4924C28.102 33.6632 24.8207 34.402 24.8207 32.9722C24.8207 32.4239 25.2061 32.1458 25.9663 32.1458C26.488 32.1458 26.773 32.2927 26.9811 32.4001C27.111 32.4669 27.2234 32.525 27.3521 32.525C27.7055 32.525 27.9221 32.1349 27.9221 31.8552C27.9221 31.3072 27.0881 31.0884 26.455 31.0165V29.9876C26.455 29.9045 26.4387 29.8222 26.4069 29.7454C26.3751 29.6687 26.3285 29.5989 26.2697 29.5401C26.211 29.4814 26.1412 29.4347 26.0644 29.403C25.9876 29.3712 25.9053 29.3548 25.8222 29.3549C25.6544 29.3549 25.4935 29.4215 25.3748 29.5402C25.2561 29.6589 25.1894 29.8198 25.1894 29.9876V31.0652C24.1565 31.2921 23.5611 31.9996 23.5611 33.052C23.5611 35.6273 26.8424 34.7909 26.8424 36.5721C26.8424 37.4199 26.203 37.5979 25.6668 37.5979C24.5326 37.5979 24.4308 36.79 23.9616 36.79C23.6405 36.79 23.3818 37.1563 23.3818 37.4598C23.3818 37.9356 24.0711 38.5992 25.1894 38.7608V39.6321C25.1894 39.7999 25.2561 39.9609 25.3748 40.0795C25.4935 40.1982 25.6544 40.2649 25.8222 40.2649C25.99 40.2649 26.151 40.1982 26.2697 40.0795C26.3883 39.9609 26.455 39.7999 26.455 39.6321V38.715C27.4993 38.4683 28.102 37.6763 28.102 36.4924Z" fill="#7AF4A9"/>
</svg>
