<svg width="51" height="51" viewBox="0 0 51 51" fill="none" xmlns="http://www.w3.org/2000/svg">
<g clip-path="url(#clip0_100_353)">
<path d="M22.2292 6.16992H47.166C48.9537 6.16992 50.403 7.61921 50.403 9.40697V24.1403C50.403 25.928 48.9537 27.3773 47.166 27.3773H22.2292C20.4415 27.3773 18.9922 25.928 18.9922 24.1403V9.40697C18.9922 7.61911 20.4414 6.16992 22.2292 6.16992Z" fill="#FFE563"/>
<path d="M18.9922 10.5061H50.403V15.1077H18.9922V10.5061ZM25.7945 18.6764H21.8931C21.6895 18.6764 21.4943 18.5955 21.3503 18.4515C21.2064 18.3076 21.1255 18.1123 21.1255 17.9087C21.1255 17.7051 21.2064 17.5099 21.3503 17.3659C21.4943 17.222 21.6895 17.1411 21.8931 17.1411H25.7945C25.9981 17.1411 26.1934 17.222 26.3373 17.3659C26.4813 17.5099 26.5622 17.7051 26.5622 17.9087C26.5622 18.1123 26.4813 18.3076 26.3373 18.4515C26.1934 18.5955 25.9981 18.6764 25.7945 18.6764ZM32.2968 18.6764H28.3954C28.1918 18.6764 27.9965 18.5955 27.8526 18.4515C27.7086 18.3076 27.6277 18.1123 27.6277 17.9087C27.6277 17.7051 27.7086 17.5099 27.8526 17.3659C27.9965 17.222 28.1918 17.1411 28.3954 17.1411H32.2968C32.5004 17.1411 32.6956 17.222 32.8396 17.3659C32.9835 17.5099 33.0644 17.7051 33.0644 17.9087C33.0644 18.1123 32.9835 18.3076 32.8396 18.4515C32.6956 18.5955 32.5004 18.6764 32.2968 18.6764ZM38.7991 18.6764H34.8977C34.6941 18.6764 34.4989 18.5955 34.3549 18.4515C34.211 18.3076 34.1301 18.1123 34.1301 17.9087C34.1301 17.7051 34.211 17.5099 34.3549 17.3659C34.4989 17.222 34.6941 17.1411 34.8977 17.1411H38.7991C39.0027 17.1411 39.198 17.222 39.3419 17.3659C39.4859 17.5099 39.5667 17.7051 39.5667 17.9087C39.5667 18.1123 39.4859 18.3076 39.3419 18.4515C39.198 18.5955 39.0027 18.6764 38.7991 18.6764Z" fill="#3E5268"/>
<path d="M40.2145 21.6046H3.38971C1.74043 21.6046 0.40332 22.9417 0.40332 24.5911V42.4619C0.40332 44.1112 1.74043 45.4483 3.38971 45.4483H40.2144C41.8638 45.4483 43.2008 44.1111 43.2008 42.4619V24.5911C43.2009 22.9417 41.8638 21.6046 40.2145 21.6046Z" fill="#70E6D1"/>
<path d="M39.7076 26.5452C40.5066 26.5452 41.1544 25.8974 41.1544 25.0983C41.1544 24.2993 40.5066 23.6515 39.7076 23.6515C38.9085 23.6515 38.2607 24.2993 38.2607 25.0983C38.2607 25.8974 38.9085 26.5452 39.7076 26.5452Z" fill="#0E9C80"/>
<path d="M39.7076 43.4015C40.5066 43.4015 41.1544 42.7537 41.1544 41.9546C41.1544 41.1556 40.5066 40.5078 39.7076 40.5078C38.9085 40.5078 38.2607 41.1556 38.2607 41.9546C38.2607 42.7537 38.9085 43.4015 39.7076 43.4015Z" fill="#0E9C80"/>
<path d="M3.89703 43.4014C4.69609 43.4014 5.34386 42.7536 5.34386 41.9545C5.34386 41.1555 4.69609 40.5077 3.89703 40.5077C3.09796 40.5077 2.4502 41.1555 2.4502 41.9545C2.4502 42.7536 3.09796 43.4014 3.89703 43.4014Z" fill="#0E9C80"/>
<path d="M3.89703 26.5452C4.69609 26.5452 5.34386 25.8974 5.34386 25.0983C5.34386 24.2993 4.69609 23.6515 3.89703 23.6515C3.09796 23.6515 2.4502 24.2993 2.4502 25.0983C2.4502 25.8974 3.09796 26.5452 3.89703 26.5452Z" fill="#0E9C80"/>
<path d="M39.7073 38.4609H39.7076V28.592C37.7782 28.592 36.214 27.0277 36.214 25.0984H7.39121C7.39121 27.0279 5.82698 28.5921 3.89746 28.5921V38.4609C5.82698 38.4609 7.39121 40.0251 7.39121 41.9546H36.2137C36.2137 40.0251 37.7779 38.4609 39.7073 38.4609Z" fill="#0E9C80"/>
<path d="M21.8021 41.9545C26.4568 41.9545 30.2302 38.1812 30.2302 33.5265C30.2302 28.8718 26.4568 25.0984 21.8021 25.0984C17.1474 25.0984 13.374 28.8718 13.374 33.5265C13.374 38.1812 17.1474 41.9545 21.8021 41.9545Z" fill="#70E6D1"/>
<path d="M21.8023 39.3287C25.0068 39.3287 27.6045 36.7309 27.6045 33.5264C27.6045 30.3219 25.0068 27.7241 21.8023 27.7241C18.5978 27.7241 16 30.3219 16 33.5264C16 36.7309 18.5978 39.3287 21.8023 39.3287Z" fill="#0E9C80"/>
<path d="M24.0554 34.9197C24.0554 33.7508 23.3093 33.2841 22.4823 32.9533V31.3257C22.7013 31.3731 22.8574 31.4516 22.9889 31.5185C23.1149 31.5824 23.2237 31.6377 23.3429 31.6377C23.7219 31.6377 23.8858 31.1783 23.8858 30.944C23.8858 30.6842 23.6766 30.4728 23.2808 30.3328C23.0063 30.2357 22.7045 30.1916 22.4823 30.1715V29.5564C22.4823 29.4174 22.4271 29.2841 22.3288 29.1858C22.2305 29.0876 22.0972 29.0323 21.9583 29.0323C21.8193 29.0323 21.686 29.0876 21.5877 29.1858C21.4894 29.2841 21.4342 29.4174 21.4342 29.5564V30.1986C20.8201 30.3094 19.7191 30.6976 19.7191 32.0557C19.7191 33.2302 20.6021 33.623 21.4342 33.9373V35.7529C21.0556 35.6719 20.8048 35.479 20.5996 35.3192C20.4306 35.1876 20.2845 35.0739 20.1208 35.0739C19.7949 35.0739 19.5495 35.5005 19.5495 35.7771C19.5495 36.3007 20.3455 36.9031 21.4341 36.9813V37.4966C21.4341 37.6355 21.4893 37.7688 21.5876 37.8671C21.6859 37.9654 21.8192 38.0206 21.9582 38.0206C22.0971 38.0206 22.2304 37.9654 22.3287 37.8671C22.427 37.7688 22.4822 37.6355 22.4822 37.4966V36.9107C23.4858 36.6642 24.0554 35.9498 24.0554 34.9197ZM22.4823 34.4042C22.6783 34.5458 22.8187 34.7394 22.8187 35.0422C22.8187 35.3548 22.6697 35.5398 22.4823 35.6493V34.4042ZM21.4341 32.5484C21.1281 32.3991 20.9557 32.2277 20.9557 31.9332C20.9557 31.6707 21.1239 31.4775 21.4341 31.3742V32.5484ZM37.2252 34.1816H32.9001C32.7263 34.1816 32.5597 34.1126 32.4369 33.9898C32.314 33.8669 32.245 33.7003 32.245 33.5266C32.245 33.3528 32.314 33.1862 32.4369 33.0634C32.5597 32.9405 32.7263 32.8715 32.9001 32.8715H37.2252C37.3989 32.8715 37.5656 32.9405 37.6884 33.0634C37.8112 33.1862 37.8803 33.3528 37.8803 33.5266C37.8803 33.7003 37.8112 33.8669 37.6884 33.9898C37.5656 34.1126 37.3989 34.1816 37.2252 34.1816ZM10.7049 34.1816H6.37965C6.20593 34.1816 6.03931 34.1126 5.91647 33.9898C5.79362 33.8669 5.72461 33.7003 5.72461 33.5266C5.72461 33.3528 5.79362 33.1862 5.91647 33.0634C6.03931 32.9405 6.20593 32.8715 6.37965 32.8715H10.7049C10.8786 32.8715 11.0452 32.9405 11.1681 33.0634C11.2909 33.1862 11.3599 33.3528 11.3599 33.5266C11.3599 33.7003 11.2909 33.8669 11.1681 33.9898C11.0452 34.1126 10.8786 34.1816 10.7049 34.1816Z" fill="#70E6D1"/>
</g>
<defs>
<clipPath id="clip0_100_353">
<rect width="50" height="50" fill="white" transform="translate(0.40332 0.809082)"/>
</clipPath>
</defs>
</svg>
