<svg width="51" height="50" viewBox="0 0 51 50" fill="none" xmlns="http://www.w3.org/2000/svg">
<g clip-path="url(#clip0_100_290)">
<path d="M50.889 33.5247V34.8677C50.8891 34.9348 50.876 35.0012 50.8503 35.0632C50.8247 35.1252 50.7871 35.1815 50.7397 35.229C50.6922 35.2764 50.6359 35.314 50.5739 35.3397C50.5119 35.3653 50.4455 35.3784 50.3784 35.3784H49.6309V33.0139H50.3784C50.4454 33.0139 50.5119 33.0271 50.5739 33.0527C50.6359 33.0784 50.6922 33.116 50.7396 33.1634C50.787 33.2109 50.8246 33.2672 50.8503 33.3292C50.8759 33.3912 50.8891 33.4576 50.889 33.5247Z" fill="#F7BE56"/>
<path d="M34.3381 30.0179V34.8706H5.14394V34.4904H4.32031V32.0825H5.14394V30.0179H34.3381Z" fill="#3A556A"/>
<path d="M50.128 32.0818V35.3807C50.128 35.5685 50.0534 35.7487 49.9205 35.8815C49.7877 36.0144 49.6075 36.089 49.4197 36.089H33.1426V32.0817H50.128V32.0818Z" fill="#64798A"/>
<path d="M4.50362 32.0825V34.4904H3.88734C3.79834 34.4904 3.71298 34.4551 3.65005 34.3921C3.58711 34.3292 3.55176 34.2438 3.55176 34.1548V32.4181C3.55176 32.3291 3.58711 32.2437 3.65005 32.1808C3.71298 32.1179 3.79834 32.0825 3.88734 32.0825H4.50362Z" fill="#E56353"/>
<path d="M0.888672 11.7609H32.78V31.4822H0.888672V11.7609Z" fill="#F7BE56"/>
<path d="M50.128 28.6421V32.2273H33.1426V16.7979H40.7799C41.3251 16.7979 41.8485 17.0234 42.212 17.4296C43.3976 18.7544 44.4205 21.0057 45.2753 24.2322L49.3037 27.0573C49.5583 27.2359 49.7661 27.4731 49.9096 27.749C50.0531 28.0248 50.128 28.3312 50.128 28.6421Z" fill="#E56353"/>
<path d="M43.7714 24.9821H36.6543V18.6256H37.4149C40.9267 18.6256 43.7714 21.4724 43.7714 24.9821Z" fill="#27A2DB"/>
<path d="M38.6081 26.7439C38.3368 26.8961 38.0521 26.9756 37.7542 26.9756C37.4697 26.9756 37.1718 26.9027 36.874 26.7505L37.0263 26.2078C37.4763 26.4461 37.9396 26.4262 38.4096 26.2078L38.6081 26.7439ZM39.8629 34.1281C39.8629 36.4 41.702 38.2391 43.9743 38.2391C46.2457 38.2391 48.0848 36.4 48.0848 34.1281C48.0848 31.8563 46.2457 30.0173 43.9743 30.0173C41.702 30.0173 39.8629 31.8563 39.8629 34.1281Z" fill="#2F4859"/>
<path d="M41.9268 34.1163C41.9268 35.2513 42.8493 36.1735 43.9842 36.1735C45.0955 36.1735 46.0175 35.2512 46.0175 34.1163C46.0175 32.9815 45.0955 32.0828 43.9842 32.0828C42.8493 32.0828 41.9268 32.9813 41.9268 34.1163Z" fill="#64798A"/>
<path d="M41.9268 34.1158C41.9268 34.2771 41.9415 34.4312 41.9853 34.5778C42.264 34.5192 42.5501 34.5998 42.704 34.8638C42.8508 35.1206 42.7848 35.4213 42.5867 35.6267C42.8068 35.832 43.0707 35.9861 43.3642 36.0814C43.4448 35.81 43.6722 35.5973 43.973 35.5973C44.2737 35.5973 44.5009 35.81 44.5817 36.0888C44.8752 35.9934 45.1392 35.8394 45.3592 35.6267C45.1612 35.4213 45.0951 35.1279 45.2419 34.8638C45.3958 34.5998 45.6819 34.519 45.9607 34.5778C46.0045 34.4311 46.0192 34.2771 46.0192 34.1158C46.0192 33.9617 46.0045 33.815 45.9678 33.6757C45.6891 33.7416 45.3958 33.6537 45.2419 33.397C45.0877 33.1329 45.1612 32.8249 45.3592 32.6195C45.1343 32.4175 44.8694 32.2651 44.5817 32.1721C44.4938 32.4509 44.2737 32.6636 43.973 32.6636C43.6721 32.6636 43.4521 32.4509 43.3642 32.1795C43.0736 32.2707 42.8059 32.4233 42.5793 32.6269C42.7848 32.8395 42.8506 33.1403 42.7039 33.397C42.5572 33.6464 42.2566 33.7344 41.9778 33.6757C41.9415 33.815 41.9268 33.9617 41.9268 34.1158Z" fill="#EBF0F3"/>
<path d="M6.17871 34.1281C6.17871 36.4 8.01784 38.2391 10.2901 38.2391C12.5616 38.2391 14.4007 36.4 14.4007 34.1281C14.4007 31.8562 12.5616 30.0173 10.2901 30.0173C8.01784 30.0173 6.17871 31.8562 6.17871 34.1281Z" fill="#2F4859"/>
<path d="M8.24316 34.1163C8.24316 35.2513 9.16566 36.1735 10.3006 36.1735C11.4119 36.1735 12.3339 35.2512 12.3339 34.1163C12.3339 32.9815 11.4119 32.0828 10.3006 32.0828C9.16566 32.0828 8.24316 32.9813 8.24316 34.1163Z" fill="#64798A"/>
<path d="M8.24316 34.1158C8.24316 34.2771 8.2579 34.4312 8.30167 34.5778C8.58045 34.5192 8.86649 34.5998 9.02046 34.8638C9.16716 35.1206 9.10117 35.4213 8.90311 35.6267C9.12317 35.832 9.38711 35.9861 9.68062 36.0814C9.76123 35.81 9.98865 35.5973 10.2894 35.5973C10.5901 35.5973 10.8173 35.81 10.8981 36.0888C11.1916 35.9934 11.4556 35.8394 11.6756 35.6267C11.4776 35.4213 11.4115 35.1279 11.5583 34.8638C11.7123 34.5998 11.9983 34.519 12.2771 34.5778C12.321 34.4311 12.3356 34.2771 12.3356 34.1158C12.3356 33.9617 12.3208 33.815 12.2842 33.6757C12.0056 33.7416 11.7123 33.6537 11.5583 33.397C11.4041 33.1329 11.4776 32.8249 11.6756 32.6195C11.4507 32.4175 11.1858 32.2651 10.8981 32.1721C10.8103 32.4509 10.5901 32.6636 10.2894 32.6636C9.98855 32.6636 9.76849 32.4509 9.68062 32.1795C9.39 32.2707 9.12234 32.4233 8.89575 32.6269C9.10117 32.8395 9.16705 33.1403 9.02035 33.397C8.87365 33.6464 8.57298 33.7344 8.2942 33.6757C8.25779 33.815 8.24316 33.9617 8.24316 34.1158Z" fill="#EBF0F3"/>
<path d="M29.0602 33.8362V35.0683C29.0602 35.8984 28.3864 36.5722 27.5563 36.5722H19.2614C18.4312 36.5722 17.7598 35.8984 17.7598 35.0683V33.8362C17.7598 33.006 18.4312 32.3324 19.2614 32.3324H27.5563C28.3864 32.3324 29.0602 33.006 29.0602 33.8362Z" fill="#64798A"/>
<path d="M20.5303 32.3323H26.289V36.5722H20.5303V32.3323Z" fill="#D5D6DB"/>
<path d="M33.8389 32.5876H38.2395V33.2543H33.8389V32.5876ZM33.8389 33.361H38.2395V34.0277H33.8389V33.361ZM33.8389 34.1416H38.2395V34.8083H33.8389V34.1416ZM33.8389 34.9196H38.2395V35.5863H33.8389V34.9196Z" fill="#F7BE56"/>
<path d="M2.23047 15.061V13.7693H31.4388L2.23047 15.061ZM31.4388 28.186V29.4776H2.23047L31.4388 28.186Z" fill="#FCD462"/>
</g>
<defs>
<clipPath id="clip0_100_290">
<rect width="50" height="50" fill="white" transform="translate(0.888672)"/>
</clipPath>
</defs>
</svg>
