<svg width="28" height="27" viewBox="0 0 28 27" fill="none" xmlns="http://www.w3.org/2000/svg">
<path d="M1.5 4.75C1.5 4.41848 1.6317 4.10054 1.86612 3.86612C2.10054 3.6317 2.41848 3.5 2.75 3.5H19C19.3315 3.5 19.6495 3.6317 19.8839 3.86612C20.1183 4.10054 20.25 4.41848 20.25 4.75C20.25 5.08152 20.1183 5.39946 19.8839 5.63388C19.6495 5.8683 19.3315 6 19 6H2.75C2.41848 6 2.10054 5.8683 1.86612 5.63388C1.6317 5.39946 1.5 5.08152 1.5 4.75ZM1.5 13.5C1.5 13.1685 1.6317 12.8505 1.86612 12.6161C2.10054 12.3817 2.41848 12.25 2.75 12.25H25.25C25.5815 12.25 25.8995 12.3817 26.1339 12.6161C26.3683 12.8505 26.5 13.1685 26.5 13.5C26.5 13.8315 26.3683 14.1495 26.1339 14.3839C25.8995 14.6183 25.5815 14.75 25.25 14.75H2.75C2.41848 14.75 2.10054 14.6183 1.86612 14.3839C1.6317 14.1495 1.5 13.8315 1.5 13.5ZM2.75 21C2.41848 21 2.10054 21.1317 1.86612 21.3661C1.6317 21.6005 1.5 21.9185 1.5 22.25C1.5 22.5815 1.6317 22.8995 1.86612 23.1339C2.10054 23.3683 2.41848 23.5 2.75 23.5H12.75C13.0815 23.5 13.3995 23.3683 13.6339 23.1339C13.8683 22.8995 14 22.5815 14 22.25C14 21.9185 13.8683 21.6005 13.6339 21.3661C13.3995 21.1317 13.0815 21 12.75 21H2.75Z" fill="white"/>
</svg>
