<svg width="30" height="30" viewBox="0 0 30 30" fill="none" xmlns="http://www.w3.org/2000/svg">
<path d="M26.1763 5.57144H4.0715C2.76915 5.57144 1.71436 6.63278 1.71436 7.92858V22.0714C1.71436 23.3749 2.7769 24.4286 4.0715 24.4286H26.1763C27.4677 24.4286 28.5334 23.3794 28.5334 22.0714V7.92858C28.5334 6.63509 27.4828 5.57144 26.1763 5.57144ZM25.8462 7.14287L16.7906 16.1507C16.3454 16.5959 15.7535 16.841 15.1239 16.841C14.4943 16.841 13.9024 16.5959 13.4557 16.1492L4.4016 7.14287H25.8462ZM3.28578 21.7516V8.24942L10.0763 15.0042L3.28578 21.7516ZM4.4026 22.8572L11.1905 16.1124L12.346 17.2618C13.088 18.0039 14.0745 18.4125 15.1239 18.4125C16.1732 18.4125 17.1598 18.0039 17.9003 17.2633L19.0573 16.1124L25.8452 22.8572H4.4026ZM26.962 21.7516L20.1714 15.0042L26.962 8.24942V21.7516Z" fill="#919191"/>
</svg>
