<svg width="24" height="23" viewBox="0 0 24 23" fill="none" xmlns="http://www.w3.org/2000/svg">
<g clip-path="url(#clip0_11_1424)">
<path d="M9.09083 12.7919C9.00534 12.7919 7.21199 12.7924 6.38488 12.7916C5.95907 12.7913 5.80715 12.6383 5.80715 12.2098C5.80647 11.1091 5.80647 10.0083 5.80715 8.9076C5.80742 8.48452 5.96805 8.32307 6.38842 8.3228C7.21553 8.32225 8.99908 8.32253 9.09083 8.32253V5.92613C9.09138 4.84418 9.28441 3.80852 9.83409 2.86025C10.3968 1.88966 11.2158 1.22481 12.2653 0.840384C12.9375 0.593992 13.6353 0.495708 14.3486 0.495163C15.2411 0.494619 16.1336 0.495435 17.0263 0.497069C17.4099 0.497613 17.58 0.667229 17.5809 1.05356C17.5825 2.08895 17.5825 3.12434 17.5809 4.15946C17.5803 4.54987 17.4172 4.70669 17.0249 4.71105C16.2934 4.71894 15.5613 4.71404 14.8305 4.74345C14.0924 4.74345 13.7042 5.10391 13.7042 5.86786C13.6865 6.67592 13.6969 7.48479 13.6969 8.32225C13.766 8.32225 15.8665 8.32198 16.8482 8.32225C17.2942 8.32225 17.4466 8.47553 17.4466 8.92394C17.4466 10.0187 17.4464 11.1137 17.4456 12.2084C17.4453 12.6503 17.3021 12.7913 16.8534 12.7916C15.8716 12.7922 13.7794 12.7919 13.6879 12.7919V21.6525C13.6879 22.1248 13.5392 22.2754 13.0731 22.2754H9.66366C9.25174 22.2754 9.0911 22.1153 9.0911 21.7034L9.09083 12.7919Z" fill="#3D6AD6"/>
</g>
<defs>
<clipPath id="clip0_11_1424">
<rect width="22.6449" height="22.6449" fill="white" transform="translate(0.37207 0.0628662)"/>
</clipPath>
</defs>
</svg>
