<svg width="35" height="36" viewBox="0 0 35 36" fill="none" xmlns="http://www.w3.org/2000/svg">
<path d="M4.37375 21.0472C4.70188 21.0472 5.02672 20.9007 5.2411 20.6207L5.71688 20.0027C6.0746 22.1156 6.99399 24.0934 8.37872 25.7288C9.76345 27.3643 11.5625 28.5972 13.5875 29.2985C16.0916 30.1718 18.8152 30.1863 21.3285 29.3398C23.8418 28.4934 26.0016 26.8341 27.4672 24.6238C27.6275 24.3819 27.6851 24.0862 27.6273 23.8018C27.5696 23.5174 27.4012 23.2676 27.1593 23.1073C26.9174 22.947 26.6217 22.8894 26.3373 22.9472C26.0529 23.0049 25.8031 23.1733 25.6428 23.4152C24.4457 25.2204 22.6815 26.5755 20.6287 27.2667C18.5758 27.9579 16.3513 27.9458 14.3061 27.2324C12.6202 26.648 11.1268 25.6125 9.98846 24.2385C8.8501 22.8645 8.11035 21.2046 7.84969 19.4394L8.78594 20.1602C9.01583 20.3371 9.3066 20.4155 9.59427 20.3781C9.88195 20.3407 10.143 20.1905 10.3199 19.9606C10.4969 19.7307 10.5753 19.4399 10.5378 19.1523C10.5004 18.8646 10.3502 18.6035 10.1203 18.4266L7.52704 16.4305C6.98344 16.0116 6.21016 15.7764 5.71797 16.4185L3.5086 19.2874C3.38395 19.449 3.30708 19.6424 3.2867 19.8455C3.26633 20.0487 3.30327 20.2534 3.39334 20.4366C3.4834 20.6198 3.62299 20.7741 3.79627 20.8821C3.96956 20.99 4.16961 21.0472 4.37375 21.0472ZM7.84094 12.8933C8.34297 13.2269 9.02219 13.0891 9.35797 12.586C10.5558 10.7815 12.32 9.42696 14.3726 8.73583C16.4252 8.0447 18.6494 8.05629 20.6947 8.76879C22.3806 9.35315 23.874 10.3887 25.0123 11.7627C26.1507 13.1367 26.8904 14.7966 27.1511 16.5618L26.2148 15.841C26.101 15.7534 25.971 15.689 25.8324 15.6516C25.6937 15.6142 25.549 15.6045 25.4065 15.6231C25.2641 15.6416 25.1267 15.688 25.0022 15.7597C24.8777 15.8313 24.7685 15.9268 24.6809 16.0406C24.5932 16.1544 24.5289 16.2844 24.4915 16.4231C24.4541 16.5618 24.4444 16.7065 24.463 16.8489C24.4815 16.9914 24.5279 17.1288 24.5996 17.2533C24.6712 17.3778 24.7666 17.487 24.8805 17.5746L27.4738 19.5707C28.0272 19.9961 28.783 20.2346 29.2828 19.5827L31.4922 16.7138C31.5797 16.6 31.644 16.4701 31.6814 16.3315C31.7187 16.1929 31.7284 16.0483 31.7099 15.906C31.6913 15.7637 31.6449 15.6264 31.5733 15.5019C31.5017 15.3775 31.4063 15.2684 31.2926 15.1809C31.1788 15.0934 31.0489 15.0291 30.9103 14.9917C30.7717 14.9544 30.6271 14.9447 30.4848 14.9632C30.3425 14.9818 30.2052 15.0282 30.0807 15.0998C29.9563 15.1713 29.8472 15.2667 29.7597 15.3805L29.2839 15.9985C28.9262 13.8856 28.0068 11.9078 26.6221 10.2724C25.2373 8.63689 23.4382 7.40394 21.4133 6.70269C18.9092 5.83008 16.186 5.81574 13.6729 6.66196C11.1598 7.50817 8.99983 9.16679 7.5336 11.3763C7.37357 11.6183 7.31605 11.914 7.37367 12.1983C7.43128 12.4827 7.59932 12.7327 7.84094 12.8933Z" fill="white"/>
</svg>
