<svg width="115" height="77" viewBox="0 0 115 77" fill="none" xmlns="http://www.w3.org/2000/svg">
<circle opacity="0.2" cx="9.89342" cy="35.628" r="9.05797" fill="#0D5785"/>
<circle opacity="0.5" cx="102.888" cy="4.52899" r="4.52899" fill="#0D5785"/>
<circle opacity="0.4" cx="107.417" cy="62.802" r="7.54831" fill="#0D5785"/>
<g clip-path="url(#clip0_11_1517)">
<path d="M67.26 58.3083C68.6279 58.3083 69.7368 57.1994 69.7368 55.8315C69.7368 54.4636 68.6279 53.3547 67.26 53.3547C65.8921 53.3547 64.7832 54.4636 64.7832 55.8315C64.7832 57.1994 65.8921 58.3083 67.26 58.3083Z" fill="#0D5785"/>
<path d="M75.5571 71.4352H44.7211C41.9897 71.4352 39.7675 69.213 39.7675 66.4816V46.1719C39.7675 43.4405 41.9897 41.2184 44.7211 41.2184H80.3869C80.9508 41.2184 81.3983 41.2681 81.7549 41.3703C83.0699 41.747 84.4413 40.9864 84.8181 39.6715C85.1948 38.3566 84.4342 36.9852 83.1193 36.6083C82.3127 36.3772 81.419 36.2649 80.3869 36.2649H77.4101V27.53C77.4101 19.5088 70.7436 12.9831 62.5494 12.9831C54.3552 12.9831 47.6887 19.5088 47.6887 27.53V36.2649H44.7211C39.2583 36.2649 34.814 40.7093 34.814 46.1721V66.4817C34.814 71.9445 39.2583 76.3889 44.7211 76.3889H75.5571C76.9251 76.3889 78.0339 75.28 78.0339 73.9121C78.0339 72.5442 76.9251 71.4353 75.5571 71.4352ZM52.6423 27.53C52.6423 22.2402 57.0866 17.9367 62.5494 17.9367C68.0122 17.9367 72.4566 22.2402 72.4566 27.53V36.2649H52.6423V27.53Z" fill="#0D5785"/>
<path d="M57.9719 58.3083C59.3398 58.3083 60.4487 57.1994 60.4487 55.8315C60.4487 54.4636 59.3398 53.3547 57.9719 53.3547C56.604 53.3547 55.4951 54.4636 55.4951 55.8315C55.4951 57.1994 56.604 58.3083 57.9719 58.3083Z" fill="#0D5785"/>
<path d="M94.2706 53.9999C94.2163 49.1963 90.2916 45.3052 85.4754 45.3052C80.6256 45.3052 76.6797 49.2509 76.6797 54.1009C76.6797 55.4688 77.7885 56.5777 79.1565 56.5777C80.5244 56.5777 81.6333 55.4688 81.6333 54.1009C81.6333 51.9824 83.3569 50.2588 85.4755 50.2588C87.5942 50.2588 89.3176 51.9824 89.3176 54.1009C89.3176 54.1234 89.3179 54.1458 89.3185 54.1681C89.3065 54.9107 89.0794 55.6339 88.6648 56.2501C88.2501 56.8663 87.6658 57.3491 86.9824 57.64C84.5624 58.6734 82.9987 61.0602 82.9987 63.7206V65.8625C82.9987 67.2305 84.1076 68.3393 85.4755 68.3393C86.8434 68.3393 87.9523 67.2305 87.9523 65.8625V63.7206C87.9523 63.0472 88.3352 62.4486 88.9275 62.1958C90.5147 61.52 91.8679 60.392 92.8184 58.9524C93.7689 57.5129 94.2747 55.8254 94.2727 54.1004C94.2727 54.0667 94.2719 54.0333 94.2706 53.9999Z" fill="#0D5785"/>
<path d="M85.4641 76.3889C86.832 76.3889 87.9409 75.28 87.9409 73.9121C87.9409 72.5442 86.832 71.4353 85.4641 71.4353C84.0962 71.4353 82.9873 72.5442 82.9873 73.9121C82.9873 75.28 84.0962 76.3889 85.4641 76.3889Z" fill="#0D5785"/>
<path d="M48.6838 58.3083C50.0517 58.3083 51.1606 57.1994 51.1606 55.8315C51.1606 54.4636 50.0517 53.3547 48.6838 53.3547C47.3159 53.3547 46.207 54.4636 46.207 55.8315C46.207 57.1994 47.3159 58.3083 48.6838 58.3083Z" fill="#0D5785"/>
</g>
<defs>
<clipPath id="clip0_11_1517">
<rect width="63.4058" height="63.4058" fill="white" transform="translate(32.8403 12.9831)"/>
</clipPath>
</defs>
</svg>
