<svg width="31" height="30" viewBox="0 0 31 30" fill="none" xmlns="http://www.w3.org/2000/svg">
<circle cx="15.5" cy="15" r="15" fill="#EAEAEA"/>
<path d="M22.8577 14.2886L17.5451 9.13226C17.479 9.06826 17.3955 9.02509 17.3051 9.00809C17.2147 8.99109 17.1212 9.00101 17.0364 9.03663C16.9516 9.07264 16.8792 9.13278 16.8284 9.20956C16.7775 9.28635 16.7503 9.37639 16.7501 9.46851V12.126C11.9107 12.2098 8 16.1723 8 21.0312C8 21.2449 8.15063 21.4199 8.3575 21.4737C8.39366 21.4828 8.43083 21.4875 8.46813 21.4874C8.55473 21.4863 8.6395 21.4624 8.7139 21.418C8.7883 21.3737 8.84969 21.3105 8.89189 21.2349C9.58128 19.9898 10.5914 18.952 11.8175 18.2293C13.0435 17.5065 14.4406 17.1252 15.8639 17.1249H16.7501V19.7811C16.7501 19.9693 16.8632 20.1393 17.0364 20.213C17.1212 20.2486 17.2147 20.2586 17.3051 20.2416C17.3955 20.2246 17.479 20.1814 17.5451 20.1174L22.8577 14.9611C22.9029 14.9175 22.9389 14.8653 22.9634 14.8075C22.988 14.7497 23.0007 14.6876 23.0007 14.6248C23.0007 14.562 22.988 14.4999 22.9634 14.4421C22.9389 14.3844 22.9029 14.3321 22.8577 14.2886Z" fill="#2C2C2C"/>
</svg>
