<svg width="24" height="23" viewBox="0 0 24 23" fill="none" xmlns="http://www.w3.org/2000/svg">
<g clip-path="url(#clip0_11_1418)">
<path d="M5.64896 13.7475L4.86073 16.6901L1.97973 16.751C1.11874 15.1541 0.630371 13.3269 0.630371 11.3853C0.630371 9.50778 1.08698 7.73723 1.89636 6.17822H1.89698L4.46188 6.64846L5.58545 9.19796C5.35029 9.88354 5.22212 10.6195 5.22212 11.3853C5.22221 12.2165 5.37276 13.0128 5.64896 13.7475Z" fill="#FBBB00"/>
<path d="M23.0774 9.27014C23.2074 9.95506 23.2752 10.6624 23.2752 11.3853C23.2752 12.1959 23.19 12.9867 23.0276 13.7494C22.4764 16.3448 21.0362 18.6112 19.0411 20.215L19.0405 20.2144L15.8099 20.0495L15.3527 17.1952C16.6765 16.4189 17.7111 15.2039 18.2561 13.7494H12.2017V9.27014H23.0774Z" fill="#518EF8"/>
<path d="M19.0403 20.2144L19.0409 20.215C17.1006 21.7747 14.6358 22.7078 11.9526 22.7078C7.64072 22.7078 3.89188 20.2978 1.97949 16.7511L5.64872 13.7476C6.6049 16.2994 9.0666 18.116 11.9526 18.116C13.1931 18.116 14.3552 17.7807 15.3524 17.1953L19.0403 20.2144Z" fill="#28B446"/>
<path d="M19.2836 2.60664L15.6156 5.60957C14.5835 4.96446 13.3635 4.59179 12.0565 4.59179C9.10516 4.59179 6.59741 6.49171 5.68913 9.13511L2.00062 6.11537H2C3.88439 2.48223 7.68052 0 12.0565 0C14.8037 0 17.3227 0.978597 19.2836 2.60664Z" fill="#F14336"/>
</g>
<defs>
<clipPath id="clip0_11_1418">
<rect width="22.6449" height="22.6449" fill="white" transform="translate(0.630371 0.0628662)"/>
</clipPath>
</defs>
</svg>
