<svg width="21" height="20" viewBox="0 0 21 20" fill="none" xmlns="http://www.w3.org/2000/svg">
<g clip-path="url(#clip0_16_5402)">
<path d="M19.9608 8.69902L19.9594 8.69766L11.801 0.53957C11.4532 0.191602 10.9909 0 10.4991 0C10.0073 0 9.54497 0.191484 9.19708 0.539414L1.0429 8.69336C1.04017 8.69609 1.03743 8.69898 1.0347 8.70176C0.320558 9.41996 0.321808 10.5853 1.03821 11.3017C1.36548 11.6291 1.79778 11.8188 2.25997 11.8386C2.27872 11.8405 2.29767 11.8414 2.31673 11.8414H2.64189V17.8453C2.64189 19.0334 3.60853 20 4.79689 20H7.98868C8.3122 20 8.57462 19.7377 8.57462 19.4141V14.707C8.57462 14.1649 9.01564 13.7239 9.55779 13.7239H11.4404C11.9826 13.7239 12.4235 14.1649 12.4235 14.707V19.4141C12.4235 19.7377 12.6858 20 13.0095 20H16.2013C17.3897 20 18.3563 19.0334 18.3563 17.8453V11.8414H18.6578C19.1495 11.8414 19.6118 11.6499 19.9599 11.302C20.677 10.5844 20.6773 9.41711 19.9608 8.69902Z" fill="#8B8B8B"/>
</g>
<defs>
<clipPath id="clip0_16_5402">
<rect width="20" height="20" fill="white" transform="translate(0.5)"/>
</clipPath>
</defs>
</svg>
