<svg width="23" height="23" viewBox="0 0 23 23" fill="none" xmlns="http://www.w3.org/2000/svg">
<g clip-path="url(#clip0_11_1427)">
<path d="M14.745 3.50445C15.597 2.59224 16.1734 1.32577 16.0156 0.0628662C14.7881 0.106674 13.3003 0.783448 12.4192 1.69557C11.6293 2.50307 10.9378 3.79363 11.1223 5.03175C12.4921 5.12442 13.8915 4.41517 14.745 3.50445ZM17.3592 12.2261C17.3331 9.39478 19.6008 8.03494 19.7013 7.96923C18.4263 6.04656 16.4407 5.78348 15.7336 5.75381C14.0429 5.57632 12.437 6.77771 11.5786 6.77771C10.7237 6.77771 9.40138 5.77711 7.99913 5.80399C6.15569 5.83436 4.45712 6.90781 3.51035 8.60911C1.59537 12.0317 3.01953 17.1017 4.88557 19.8778C5.79777 21.2369 6.88389 22.7615 8.31014 22.7063C9.68691 22.6512 10.2059 21.7906 11.867 21.7906C13.5287 21.7906 13.994 22.7063 15.4478 22.6787C16.9271 22.6512 17.8633 21.2935 18.7678 19.9302C19.8143 18.354 20.2457 16.828 20.2704 16.751C20.2386 16.7326 17.3896 15.6118 17.3592 12.2261Z" fill="#ABABAB"/>
</g>
<defs>
<clipPath id="clip0_11_1427">
<rect width="22.6449" height="22.6449" fill="white" transform="translate(0.113281 0.0628662)"/>
</clipPath>
</defs>
</svg>
