<svg width="51" height="51" viewBox="0 0 51 51" fill="none" xmlns="http://www.w3.org/2000/svg">
<path d="M40.838 24.227L34.4918 27.3075L25.8892 27.6436L17.0118 27.4987L10.9404 24.227L25.8892 20.8096L40.838 24.227Z" fill="#F4AA73"/>
<path d="M26.8429 11.6433L29.7276 17.4883C29.804 17.6431 29.9169 17.7769 30.0565 17.8784C30.1961 17.9798 30.3583 18.0458 30.5291 18.0706L36.9795 19.0079C37.8525 19.1347 38.2012 20.2077 37.5694 20.8234L33.66 24.6342L32.7062 25.3779C32.5827 25.4984 32.4902 25.6471 32.4369 25.8112C32.3835 25.9753 32.3709 26.15 32.4001 26.3201L33.6976 32.7396C33.8467 33.6091 32.9341 34.2722 32.1532 33.8617L26.3839 30.8285C26.2311 30.7482 26.0611 30.7063 25.8885 30.7063C25.716 30.7063 25.546 30.7482 25.3932 30.8285L19.6239 33.8617C18.843 34.2722 17.9303 33.6091 18.0795 32.7396L19.8461 26.3553C19.8752 26.1852 19.8626 26.0106 19.8093 25.8464C19.7559 25.6823 19.6635 25.5336 19.5399 25.4131L15.6078 21.0298C14.976 20.414 15.3246 19.3411 16.1977 19.2142L20.9051 18.1205L21.248 18.0706C21.4188 18.0458 21.581 17.9798 21.7206 17.8784C21.8602 17.7769 21.9731 17.6431 22.0494 17.4883L24.9342 11.6433C25.3244 10.8521 26.4525 10.8521 26.8429 11.6433Z" fill="#FFEF92"/>
<path d="M32.1534 33.8618L26.3835 30.828C26.2307 30.7481 26.0609 30.7063 25.8884 30.7063C25.716 30.7063 25.5461 30.7481 25.3933 30.828L19.6235 33.8618C18.843 34.2721 17.9301 33.6089 18.0791 32.7394L19.1808 26.3155C19.2102 26.1453 19.1977 25.9706 19.1445 25.8064C19.0913 25.6421 18.9989 25.4933 18.8754 25.3727L14.2073 20.8235C13.5757 20.2078 13.9243 19.1343 14.7972 19.0079L20.9048 18.12C22.0116 22.2331 25.7677 25.2612 30.2303 25.2612C31.4377 25.2612 32.5942 25.039 33.6594 24.6338L32.9014 25.3727C32.7778 25.4933 32.6855 25.6421 32.6323 25.8064C32.5791 25.9706 32.5666 26.1453 32.596 26.3155L33.6977 32.7394C33.8467 33.6089 32.9339 34.2721 32.1534 33.8618Z" fill="#FEE45A"/>
<path d="M40.838 24.2269V42.3386C40.838 42.7372 40.5626 43.0825 40.1748 43.1715L25.8892 46.4367L24.248 37.3978L25.8892 27.6435L28.9 27.9411L32.5815 26.114L40.838 24.2269Z" fill="#F4AA73"/>
<path d="M25.8893 27.6435V46.4367L13.4368 43.5905L12.1886 42.7652C12.0001 42.7219 11.8319 42.6159 11.7114 42.4646C11.591 42.3133 11.5254 42.1256 11.5254 41.9322L10.9404 24.2269L19.3143 28.1721L25.8893 27.6435Z" fill="#E29A6C"/>
<path d="M13.4368 24.7978V43.5909L11.6037 43.1715C11.4152 43.1282 11.247 43.0223 11.1265 42.871C11.006 42.7197 10.9404 42.532 10.9404 42.3386V24.2269L13.4368 24.7978Z" fill="#D48C64"/>
<path d="M25.8892 27.6435L20.4869 33.0458C20.4671 33.0657 20.4425 33.0802 20.4156 33.088C20.3886 33.0958 20.3601 33.0967 20.3327 33.0905L8.13388 30.3449L6.22766 29.668C6.09975 29.6392 6.05383 29.4807 6.14648 29.388L10.9501 24.7811L13.5481 24.823L25.8892 27.6435Z" fill="#FBBD80"/>
<path d="M13.5478 24.8229L8.13341 30.3454L5.72449 29.8029C5.59716 29.7738 5.55059 29.6157 5.64381 29.5225L10.9402 24.2269L13.0643 24.2692L13.5478 24.8229Z" fill="#F4AA73"/>
<path d="M25.8887 27.6435L31.2909 33.0458C31.3108 33.0657 31.3354 33.0802 31.3623 33.088C31.3893 33.0958 31.4178 33.0967 31.4452 33.0905L46.0528 29.8027C46.1807 29.7739 46.2267 29.6153 46.134 29.5227L40.8375 24.2269L25.8887 27.6435Z" fill="#FBBD80"/>
<path d="M25.8887 8.26781C25.8067 8.26782 25.7256 8.25168 25.6499 8.22033C25.5741 8.18897 25.5054 8.143 25.4474 8.08505C25.3895 8.0271 25.3435 7.95831 25.3121 7.88259C25.2808 7.80687 25.2646 7.72572 25.2646 7.64377V5.08095C25.2646 4.999 25.2808 4.91784 25.3121 4.84213C25.3435 4.76641 25.3895 4.69761 25.4474 4.63966C25.5054 4.58171 25.5741 4.53575 25.6499 4.50439C25.7256 4.47303 25.8067 4.4569 25.8887 4.45691C25.9706 4.4569 26.0518 4.47303 26.1275 4.50439C26.2032 4.53574 26.272 4.58171 26.33 4.63966C26.388 4.69761 26.4339 4.7664 26.4653 4.84212C26.4967 4.91784 26.5128 4.99899 26.5128 5.08095V7.64369C26.5128 7.72565 26.4967 7.80681 26.4653 7.88254C26.434 7.95827 26.388 8.02707 26.33 8.08503C26.2721 8.14299 26.2033 8.18896 26.1275 8.22032C26.0518 8.25168 25.9707 8.26782 25.8887 8.26781Z" fill="#FEE45A"/>
<path d="M25.8887 8.26781C25.8067 8.26782 25.7256 8.25168 25.6499 8.22033C25.5741 8.18897 25.5054 8.143 25.4474 8.08505C25.3895 8.0271 25.3435 7.95831 25.3121 7.88259C25.2808 7.80687 25.2646 7.72572 25.2646 7.64377V5.08095C25.2646 4.999 25.2808 4.91784 25.3121 4.84213C25.3435 4.76641 25.3895 4.69761 25.4474 4.63966C25.5054 4.58171 25.5741 4.53575 25.6499 4.50439C25.7256 4.47303 25.8067 4.4569 25.8887 4.45691C25.9706 4.4569 26.0518 4.47303 26.1275 4.50439C26.2032 4.53574 26.272 4.58171 26.33 4.63966C26.388 4.69761 26.4339 4.7664 26.4653 4.84212C26.4967 4.91784 26.5128 4.99899 26.5128 5.08095V7.64369C26.5128 7.72565 26.4967 7.80681 26.4653 7.88254C26.434 7.95827 26.388 8.02707 26.33 8.08503C26.2721 8.14299 26.2033 8.18896 26.1275 8.22032C26.0518 8.25168 25.9707 8.26782 25.8887 8.26781ZM31.1512 13.0934C31.0046 13.0936 30.8626 13.0419 30.7505 12.9474C30.6877 12.8947 30.6359 12.8302 30.598 12.7575C30.5602 12.6849 30.537 12.6054 30.5299 12.5238C30.5227 12.4422 30.5317 12.3599 30.5564 12.2818C30.581 12.2036 30.6208 12.1311 30.6735 12.0683L32.3207 10.1051C32.3734 10.0423 32.4379 9.99048 32.5106 9.95262C32.5833 9.91477 32.6627 9.8916 32.7444 9.88445C32.826 9.8773 32.9082 9.88631 32.9864 9.91095C33.0646 9.9356 33.1371 9.9754 33.1999 10.0281C33.2627 10.0808 33.3145 10.1453 33.3523 10.218C33.3901 10.2907 33.4133 10.3701 33.4204 10.4517C33.4276 10.5334 33.4186 10.6156 33.3939 10.6937C33.3693 10.7719 33.3295 10.8444 33.2768 10.9072L31.6296 12.8704C31.5711 12.9404 31.4979 12.9966 31.4152 13.0351C31.3326 13.0737 31.2425 13.0936 31.1512 13.0934Z" fill="#FEE45A"/>
<path d="M31.1511 13.0934C31.0044 13.0936 30.8625 13.0419 30.7503 12.9474C30.6875 12.8948 30.6357 12.8302 30.5979 12.7576C30.56 12.6849 30.5369 12.6054 30.5297 12.5238C30.5226 12.4422 30.5316 12.3599 30.5562 12.2818C30.5809 12.2036 30.6206 12.1311 30.6733 12.0683L32.3205 10.1051C32.3732 10.0423 32.4377 9.99048 32.5104 9.95263C32.5831 9.91477 32.6625 9.89161 32.7442 9.88446C32.8258 9.87731 32.9081 9.88631 32.9862 9.91096C33.0644 9.93561 33.137 9.97541 33.1997 10.0281C33.2625 10.0808 33.3143 10.1453 33.3521 10.218C33.39 10.2907 33.4131 10.3701 33.4203 10.4517C33.4274 10.5334 33.4184 10.6156 33.3938 10.6938C33.3691 10.7719 33.3293 10.8444 33.2766 10.9072L31.6294 12.8704C31.5709 12.9404 31.4977 12.9966 31.4151 13.0351C31.3324 13.0737 31.2423 13.0936 31.1511 13.0934ZM38.4085 15.6049C38.2804 15.6051 38.1553 15.5658 38.0503 15.4923C37.9453 15.4189 37.8654 15.3149 37.8216 15.1946C37.7777 15.0742 37.772 14.9432 37.8052 14.8194C37.8383 14.6957 37.9088 14.5851 38.007 14.5028L39.9701 12.8556C40.0969 12.7492 40.2608 12.6975 40.4257 12.7119C40.5905 12.7264 40.7429 12.8057 40.8493 12.9325C40.9557 13.0593 41.0074 13.2231 40.993 13.388C40.9785 13.5529 40.8992 13.7053 40.7724 13.8117L38.8093 15.4589C38.6971 15.5534 38.5552 15.6051 38.4085 15.6049Z" fill="#FEE45A"/>
<path d="M38.4086 15.605C38.2805 15.6051 38.1554 15.5658 38.0504 15.4924C37.9454 15.419 37.8655 15.315 37.8217 15.1946C37.7778 15.0742 37.7721 14.9432 37.8053 14.8195C37.8384 14.6957 37.9089 14.5851 38.0071 14.5028L39.9702 12.8556C40.097 12.7492 40.2609 12.6976 40.4258 12.712C40.5906 12.7264 40.743 12.8057 40.8494 12.9325C40.9558 13.0593 41.0075 13.2232 40.9931 13.3881C40.9786 13.5529 40.8993 13.7053 40.7725 13.8117L38.8094 15.4589C38.6972 15.5534 38.5553 15.6051 38.4086 15.605ZM20.6262 13.0935C20.535 13.0936 20.4449 13.0737 20.3622 13.0352C20.2796 12.9967 20.2064 12.9405 20.1478 12.8705L18.5005 10.9073C18.4478 10.8446 18.408 10.772 18.3834 10.6938C18.3587 10.6157 18.3497 10.5334 18.3569 10.4518C18.364 10.3701 18.3872 10.2907 18.425 10.218C18.4629 10.1453 18.5147 10.0808 18.5775 10.0281C18.6403 9.97544 18.7128 9.93563 18.791 9.91098C18.8691 9.88632 18.9514 9.87731 19.033 9.88445C19.1147 9.8916 19.1941 9.91475 19.2668 9.9526C19.3395 9.99045 19.404 10.0422 19.4567 10.105L21.104 12.0683C21.1567 12.131 21.1965 12.2036 21.2211 12.2817C21.2458 12.3599 21.2548 12.4422 21.2476 12.5238C21.2405 12.6054 21.2173 12.6849 21.1795 12.7576C21.1416 12.8303 21.0898 12.8948 21.027 12.9474C20.9148 13.0419 20.7729 13.0936 20.6262 13.0935Z" fill="#FEE45A"/>
<path d="M20.6267 13.0935C20.5354 13.0936 20.4453 13.0737 20.3627 13.0352C20.28 12.9967 20.2068 12.9405 20.1482 12.8705L18.5009 10.9073C18.4482 10.8446 18.4084 10.772 18.3838 10.6938C18.3592 10.6157 18.3501 10.5334 18.3573 10.4518C18.3644 10.3701 18.3876 10.2907 18.4255 10.218C18.4633 10.1453 18.5151 10.0808 18.5779 10.0281C18.6407 9.97544 18.7132 9.93563 18.7914 9.91098C18.8696 9.88632 18.9518 9.87731 19.0335 9.88445C19.1151 9.8916 19.1945 9.91475 19.2672 9.9526C19.3399 9.99045 19.4045 10.0422 19.4571 10.105L21.1044 12.0683C21.1571 12.131 21.1969 12.2036 21.2216 12.2817C21.2462 12.3599 21.2552 12.4422 21.2481 12.5238C21.2409 12.6054 21.2177 12.6849 21.1799 12.7576C21.142 12.8303 21.0902 12.8948 21.0274 12.9474C20.9153 13.0419 20.7733 13.0936 20.6267 13.0935ZM13.3691 15.605C13.2225 15.6051 13.0805 15.5534 12.9684 15.4589L11.0052 13.8117C10.9424 13.7591 10.8906 13.6945 10.8527 13.6218C10.8149 13.5492 10.7918 13.4697 10.7846 13.3881C10.7702 13.2232 10.8218 13.0594 10.9282 12.9326C11.0346 12.8058 11.187 12.7264 11.3519 12.712C11.4335 12.7049 11.5157 12.7139 11.5939 12.7385C11.672 12.7632 11.7446 12.8029 11.8074 12.8556L13.7706 14.5028C13.8687 14.5852 13.9392 14.6957 13.9723 14.8194C14.0055 14.9432 13.9997 15.0741 13.9559 15.1945C13.912 15.3149 13.8322 15.4188 13.7272 15.4923C13.6223 15.5657 13.4973 15.605 13.3691 15.605Z" fill="#FEE45A"/>
<path d="M13.3691 15.6049C13.2225 15.6051 13.0805 15.5533 12.9684 15.4589L11.0052 13.8117C10.9424 13.759 10.8906 13.6945 10.8527 13.6218C10.8149 13.5491 10.7918 13.4697 10.7846 13.388C10.7702 13.2232 10.8218 13.0593 10.9282 12.9325C11.0346 12.8057 11.187 12.7264 11.3519 12.712C11.4335 12.7048 11.5157 12.7138 11.5939 12.7385C11.672 12.7631 11.7446 12.8029 11.8074 12.8556L13.7706 14.5028C13.8687 14.5851 13.9392 14.6957 13.9723 14.8194C14.0055 14.9431 13.9997 15.0741 13.9559 15.1945C13.912 15.3148 13.8322 15.4188 13.7272 15.4922C13.6223 15.5657 13.4973 15.605 13.3691 15.6049Z" fill="#FEE45A"/>
</svg>
