<svg width="51" height="51" viewBox="0 0 51 51" fill="none" xmlns="http://www.w3.org/2000/svg">
<path d="M27.969 43.4305H7.62721C7.24437 43.4305 6.86527 43.3551 6.51157 43.2086C6.15787 43.0621 5.83649 42.8473 5.56578 42.5766C5.29507 42.3059 5.08033 41.9845 4.93383 41.6308C4.78732 41.2771 4.71191 40.898 4.71191 40.5152V6.89576C4.71191 6.12258 5.01906 5.38106 5.56578 4.83434C6.11251 4.28762 6.85402 3.98047 7.62721 3.98047H34.9484C35.7216 3.98047 36.4631 4.28762 37.0098 4.83434C37.5565 5.38106 37.8637 6.12258 37.8637 6.89576V33.0496L27.969 43.4305Z" fill="#3AB7FC"/>
<path d="M16.5676 46.3334H37.8517C38.6249 46.3334 39.3664 46.0263 39.9131 45.4796C40.4599 44.9328 40.767 44.1913 40.767 43.4181V9.79872C40.767 9.02553 40.4599 8.28402 39.9131 7.73729C39.3664 7.19057 38.6249 6.88342 37.8517 6.88342H10.5305C9.75734 6.88342 9.01583 7.19057 8.4691 7.73729C7.92238 8.28402 7.61523 9.02553 7.61523 9.79872V36.8958L16.5676 46.3334Z" fill="#E6E6E6"/>
<path d="M23.7161 30.0302C23.7161 32.8802 21.4044 35.192 18.5456 35.192C15.6956 35.192 13.3838 32.8802 13.3838 30.0302C13.3838 28.66 13.9281 27.346 14.8969 26.3772C15.8658 25.4083 17.1798 24.864 18.55 24.864C19.9201 24.864 21.2342 25.4083 22.203 26.3772C23.1719 27.346 23.7161 28.66 23.7161 30.0302Z" fill="#ED7161"/>
<path d="M21.0072 30.4176C20.8942 30.069 20.5951 29.9085 20.2686 29.7964C20.2439 29.7876 20.2192 29.7823 20.1945 29.7743C20.191 29.7735 20.1901 29.7655 20.1875 29.7593C20.2775 29.6852 20.3745 29.6164 20.4575 29.5343C20.8422 29.1532 20.7813 28.2461 20.1866 27.8543C20.0189 27.744 19.6025 27.564 19.1242 27.564V26.4946H18.4651V27.527H17.963V26.4946H17.303V27.5596H16.0042V28.2532C16.1401 28.2532 16.2786 28.2514 16.4163 28.254C16.7251 28.2585 16.8398 28.3749 16.8398 28.6837V31.3679C16.8398 31.6308 16.7666 31.7032 16.5063 31.704H16.1251L15.998 32.4629H17.3039V33.5605H17.963V32.5035H18.4651V33.5605H19.1242V32.4876C19.3589 32.4567 19.5875 32.4399 19.8098 32.3958C20.1778 32.3235 20.5378 32.2114 20.7769 31.8999C21.121 31.4535 21.1775 30.9435 21.0072 30.4176ZM17.9736 28.3123C18.3522 28.2902 18.721 28.2761 19.0783 28.4067C19.351 28.5064 19.5028 28.7102 19.4983 28.967C19.4948 29.2185 19.3342 29.4196 19.058 29.5123C18.7095 29.6287 18.3495 29.6199 17.9736 29.6102V28.3123ZM19.3695 31.5505C18.9222 31.7305 18.4519 31.712 17.9745 31.7023V30.264C18.443 30.2667 18.8983 30.2199 19.3369 30.3885C19.6307 30.5014 19.786 30.6937 19.7913 30.9602C19.7975 31.2435 19.6722 31.4287 19.3695 31.5505Z" fill="#DDF2FF"/>
<path d="M16.5676 39.811C16.5676 39.4282 16.4922 39.0491 16.3457 38.6954C16.1992 38.3417 15.9844 38.0203 15.7137 37.7496C15.443 37.4789 15.1216 37.2642 14.7679 37.1177C14.4142 36.9712 14.0351 36.8958 13.6523 36.8958H7.61523L16.5676 46.3334V39.811Z" fill="#88C057"/>
<path d="M46.9948 14.5149C47.0634 14.3947 47.0826 14.2526 47.0485 14.1185C47.0145 13.9844 46.9298 13.8687 46.8122 13.7958L44.9187 12.6169C44.8014 12.5438 44.6603 12.519 44.5251 12.5476C44.3899 12.5762 44.271 12.6561 44.1934 12.7705L40.7487 17.8511C40.7082 17.9106 40.6802 17.9778 40.6663 18.0484C40.6524 18.1191 40.6529 18.1918 40.6678 18.2623C40.6828 18.3327 40.7117 18.3995 40.7531 18.4584C40.7944 18.5174 40.8472 18.5674 40.9084 18.6055L43.2095 20.0375C43.2707 20.0756 43.3389 20.1009 43.41 20.1119C43.4812 20.123 43.5538 20.1195 43.6236 20.1018C43.6934 20.0841 43.7589 20.0525 43.8162 20.0088C43.8734 19.9652 43.9213 19.9104 43.9569 19.8478L46.9948 14.5149Z" fill="#333333"/>
<path d="M45.1672 19.5892L40.4474 16.651L28.4766 35.821L33.1954 38.7592L45.1672 19.5892Z" fill="#666666"/>
<path d="M45.5145 18.0178L41.4928 15.5146C41.4178 15.4681 41.3325 15.4408 41.2445 15.4351C41.1565 15.4294 41.0684 15.4455 40.9881 15.482L37.8989 16.8911C37.7013 16.9811 37.5354 17.1293 37.4242 17.3164L32.5254 25.8646C32.5254 25.8646 34.6607 26.2431 34.6784 23.8343L39.0407 17.9296L40.0837 17.2352L44.8025 20.1726L45.6848 18.7546C45.7221 18.6951 45.7473 18.6288 45.759 18.5595C45.7706 18.4902 45.7684 18.4193 45.7526 18.3509C45.7368 18.2824 45.7076 18.2178 45.6668 18.1606C45.6259 18.1035 45.5742 18.055 45.5145 18.0178ZM33.1951 38.7593L28.3819 42.647L27.1201 41.8608L28.4736 35.8211L33.1951 38.7593Z" fill="#ED7161"/>
<path d="M27.12 41.8608L26.9339 43.165C26.9277 43.2094 26.9345 43.2547 26.9535 43.2953C26.9726 43.336 27.003 43.3702 27.0411 43.394C27.0792 43.4177 27.1233 43.4298 27.1682 43.429C27.213 43.4281 27.2567 43.4142 27.2939 43.3891L28.3818 42.6461L27.12 41.8608Z" fill="#333333"/>
<path d="M11.7119 9.901H14.284V20.6728H11.7119V9.901Z" fill="#ED7161"/>
<path d="M15.5586 16.186H18.1307V20.6728H15.5586V16.186Z" fill="#88C057"/>
<path d="M19.4053 11.6992H21.9773V20.6727H19.4053V11.6992Z" fill="#FFCC66"/>
<path d="M23.2529 14.4937H25.825V20.6737H23.2529V14.4937Z" fill="#3AB7FC"/>
<path d="M10.2344 19.9846H27.3017V21.362H10.2344V19.9846Z" fill="#666666"/>
</svg>
