<svg width="30" height="30" viewBox="0 0 30 30" fill="none" xmlns="http://www.w3.org/2000/svg">
<circle cx="15" cy="15" r="15" fill="#EAEAEA"/>
<path d="M14.542 6.0752C12.7145 6.0752 10.9618 6.80117 9.66958 8.09341C8.37734 9.38566 7.65137 11.1383 7.65137 12.9658C7.65137 18.5439 14.542 23.7939 14.542 23.7939C14.542 23.7939 21.4326 18.5439 21.4326 12.9658C21.4326 11.1383 20.7066 9.38566 19.4144 8.09341C18.1222 6.80117 16.3695 6.0752 14.542 6.0752ZM14.542 16.2471C13.893 16.2471 13.2586 16.0546 12.719 15.6941C12.1794 15.3335 11.7589 14.8211 11.5105 14.2215C11.2622 13.6219 11.1972 12.9622 11.3238 12.3257C11.4504 11.6892 11.7629 11.1045 12.2218 10.6456C12.6807 10.1867 13.2654 9.87423 13.9019 9.74762C14.5384 9.62101 15.1981 9.68599 15.7977 9.93434C16.3972 10.1827 16.9097 10.6033 17.2703 11.1429C17.6308 11.6825 17.8232 12.3169 17.8232 12.9658C17.8232 13.8361 17.4775 14.6707 16.8622 15.286C16.2468 15.9014 15.4122 16.2471 14.542 16.2471Z" fill="#2C2C2C"/>
</svg>
