<svg width="115" height="77" viewBox="0 0 115 77" fill="none" xmlns="http://www.w3.org/2000/svg">
<g clip-path="url(#clip0_11_1410)">
<path d="M96.129 28.6711C96.0336 28.5522 95.9048 28.4891 95.7538 28.4816C87.9259 28.1857 81.6423 21.8748 81.3859 14.0395C81.376 13.7621 81.1506 13.5404 80.8732 13.5404H48.2155C47.9381 13.5404 47.7102 13.7621 47.7028 14.0395C47.4477 21.8748 41.1604 28.1857 33.335 28.4816C33.1839 28.4891 33.0538 28.5522 32.9597 28.6711C32.8619 28.7875 32.8223 28.9237 32.847 29.0748C37.3164 57.6458 48.9982 70.7047 64.3815 75.8044C64.4942 75.8391 64.5958 75.8391 64.7047 75.8044C80.0905 70.7035 91.7736 57.6446 96.2417 29.0736C96.2627 28.9237 96.2243 28.7863 96.129 28.6711ZM89.8454 33.4451C88.0931 42.0705 85.1803 50.93 80.1351 57.9406C76.0905 63.5567 71.0292 67.4923 64.7283 69.9282C64.6057 69.974 64.4831 69.974 64.3592 69.9282C58.0583 67.4923 52.9957 63.5567 48.9524 57.9406C43.9084 50.93 40.9944 42.0705 39.2421 33.4451C39.1889 33.1925 39.33 32.9436 39.5715 32.8594C45.704 30.6934 50.4954 25.6952 52.374 19.4352C52.4409 19.2135 52.6341 19.0698 52.8657 19.0698H76.2218C76.4497 19.0698 76.6466 19.2135 76.7134 19.4352C78.5921 25.694 83.3834 30.6934 89.516 32.8594C89.7587 32.9423 89.8986 33.1925 89.8454 33.4451ZM58.0446 35.6495H54.8075V33.7609C54.8075 31.0823 55.9022 28.6501 57.6645 26.8841C59.4304 25.1219 61.8626 24.0271 64.5413 24.0271C67.2236 24.0271 69.6558 25.1219 71.4181 26.8841C73.184 28.6501 74.2788 31.0823 74.2788 33.7609V35.6495H71.0391V33.7609C71.0391 31.9776 70.3085 30.3528 69.1295 29.1727C67.953 27.9962 66.3283 27.2631 64.5413 27.2631C62.758 27.2631 61.1332 27.9962 59.953 29.1727C58.7765 30.3516 58.0434 31.9776 58.0434 33.7609V35.6495H58.0446ZM74.758 37.699H54.3307C53.0353 37.699 51.9753 38.7591 51.9753 40.0544V52.26C51.9753 53.5554 53.0353 54.6155 54.3307 54.6155H74.758C76.0534 54.6155 77.1134 53.5554 77.1134 52.26V40.0544C77.1134 38.7591 76.0534 37.699 74.758 37.699ZM64.5425 51.5591C61.5691 51.5591 59.1406 49.1331 59.1406 46.1572C59.1406 43.1801 61.5704 40.7541 64.5425 40.7541C67.5196 40.7541 69.9481 43.1801 69.9481 46.1572C69.9493 49.1331 67.5196 51.5591 64.5425 51.5591ZM67.7797 43.9517C68.1797 44.3517 68.1797 45.0018 67.7797 45.4018L64.8199 48.3616C64.4199 48.7616 63.7697 48.7616 63.3697 48.3616L61.3103 46.2959C60.9103 45.8959 60.9103 45.2495 61.3103 44.8458C61.7103 44.4458 62.3605 44.4458 62.7605 44.8458L64.0979 46.1832L66.3307 43.9504C66.7295 43.5517 67.3797 43.5517 67.7797 43.9517Z" fill="#0D5785"/>
</g>
<circle opacity="0.2" cx="9.89391" cy="35.628" r="9.05797" fill="#0D5785"/>
<circle opacity="0.5" cx="102.889" cy="4.52899" r="4.52899" fill="#0D5785"/>
<circle opacity="0.4" cx="107.418" cy="62.802" r="7.54831" fill="#0D5785"/>
<defs>
<clipPath id="clip0_11_1410">
<rect width="63.4058" height="63.4058" fill="white" transform="translate(32.8408 12.9831)"/>
</clipPath>
</defs>
</svg>
