<svg width="21" height="20" viewBox="0 0 21 20" fill="none" xmlns="http://www.w3.org/2000/svg">
<g clip-path="url(#clip0_16_5426)">
<path d="M18.98 12.7198L18.82 12.5598C18.42 12.1598 18.02 11.9198 17.54 11.6798C16.98 11.4398 16.42 11.2798 15.78 11.2798C13.38 11.2798 11.46 13.1998 11.46 15.5998C11.46 16.8798 12.02 17.9998 12.98 18.8798C13.78 19.5998 14.74 19.9198 15.78 19.9198C16.6155 19.9236 17.4342 19.684 18.1358 19.2303C18.8375 18.7766 19.3919 18.1284 19.7312 17.3648C20.0706 16.6012 20.1803 15.7554 20.0469 14.9305C19.9135 14.1056 19.5427 13.3374 18.98 12.7198ZM18.1 16.1598H16.26V17.9998H15.38V16.1598H13.54V15.1998H15.38V13.3598H16.26V15.1998H18.1V16.1598Z" fill="#8B8B8B"/>
<path d="M8.74043 9.6C11.3914 9.6 13.5404 7.45097 13.5404 4.8C13.5404 2.14903 11.3914 0 8.74043 0C6.08946 0 3.94043 2.14903 3.94043 4.8C3.94043 7.45097 6.08946 9.6 8.74043 9.6Z" fill="#8B8B8B"/>
<path d="M12.5003 20.0002H1.62031C1.22031 20.0002 0.820312 19.6802 0.820312 19.2002V16.0802C0.820312 13.1202 4.34031 10.7202 8.74031 10.7202C10.1003 10.7202 11.3803 10.9602 12.5003 11.3602C11.2203 12.3202 10.3403 13.9202 10.3403 15.6802C10.3403 17.2802 11.0603 18.7202 12.1803 19.7602C12.3403 19.8402 12.4203 19.9202 12.5003 20.0002Z" fill="#8B8B8B"/>
</g>
<defs>
<clipPath id="clip0_16_5426">
<rect width="20" height="20" fill="white" transform="translate(0.5)"/>
</clipPath>
</defs>
</svg>
