<svg width="31" height="30" viewBox="0 0 31 30" fill="none" xmlns="http://www.w3.org/2000/svg">
<circle cx="15.5" cy="15" r="15" fill="#EAEAEA"/>
<path d="M15.5 10.75C16.3802 10.75 17.0938 10.0365 17.0938 9.15625C17.0938 8.27605 16.3802 7.5625 15.5 7.5625C14.6198 7.5625 13.9062 8.27605 13.9062 9.15625C13.9062 10.0365 14.6198 10.75 15.5 10.75Z" fill="black"/>
<path d="M15.5 16.5938C16.3802 16.5938 17.0938 15.8802 17.0938 15C17.0938 14.1198 16.3802 13.4062 15.5 13.4062C14.6198 13.4062 13.9062 14.1198 13.9062 15C13.9062 15.8802 14.6198 16.5938 15.5 16.5938Z" fill="black"/>
<path d="M15.5 22.4375C16.3802 22.4375 17.0938 21.724 17.0938 20.8438C17.0938 19.9635 16.3802 19.25 15.5 19.25C14.6198 19.25 13.9062 19.9635 13.9062 20.8438C13.9062 21.724 14.6198 22.4375 15.5 22.4375Z" fill="black"/>
</svg>
