<svg width="28" height="27" viewBox="0 0 28 27" fill="none" xmlns="http://www.w3.org/2000/svg">
<path d="M21.3472 26.1562C22.9675 26.1562 24.2861 24.8392 24.2861 23.2182V9.08608C24.2861 9.08318 24.2857 9.08033 24.2857 9.07743C24.2855 9.06652 24.2849 9.05561 24.2841 9.04473C24.2837 9.04009 24.2836 9.0354 24.2831 9.03081C24.2816 9.0154 24.2794 9.00006 24.2765 8.98483C24.2759 8.98119 24.275 8.9776 24.2743 8.97402C24.2716 8.96115 24.2686 8.94839 24.265 8.93573L24.2624 8.92655C24.2479 8.87802 24.2268 8.83169 24.1998 8.78887L24.1987 8.78718C24.1891 8.77222 24.1789 8.75773 24.1681 8.74372C24.1576 8.73015 24.1465 8.71706 24.1348 8.70449L16.8997 1.01798C16.8876 1.00511 16.8749 0.993195 16.8618 0.981699C16.8589 0.979115 16.8559 0.976689 16.853 0.974211C16.8414 0.964402 16.8294 0.955174 16.8172 0.946472L16.8117 0.94257C16.7815 0.921657 16.7492 0.903815 16.7154 0.889308L16.7152 0.889256C16.6416 0.857716 16.5621 0.842375 16.4821 0.844273H6.65319C5.03287 0.844273 3.71436 2.16131 3.71436 3.78237V23.2182C3.71436 24.8393 5.03293 26.1563 6.65319 26.1563H21.3472V26.1562ZM4.82658 23.2182V3.78232C4.82658 2.77556 5.64602 1.95491 6.65319 1.95491H15.9387V7.49756C15.9387 8.67965 16.9009 9.64142 18.0833 9.64142H23.1738V23.2181C23.1738 24.2248 22.3544 25.0455 21.3472 25.0455H6.65319C5.64602 25.0456 4.82658 24.2249 4.82658 23.2182Z" fill="white"/>
<path d="M9.34836 18.3953H10.0775C10.6561 18.3953 11.1106 18.2588 11.441 17.9811C11.773 17.7034 11.939 17.3342 11.939 16.872C11.939 16.5586 11.8614 16.2794 11.7094 16.0327C11.5558 15.7861 11.3402 15.5968 11.061 15.4634C10.7817 15.33 10.4606 15.2618 10.0976 15.2618H8.20508V20.0055H9.34836V18.3953ZM9.34836 16.146H10.1101C10.3164 16.1475 10.4792 16.2142 10.5987 16.3476C10.7181 16.4795 10.7787 16.6563 10.7787 16.8782C10.7787 17.0798 10.7212 17.2365 10.6049 17.3467C10.4886 17.4584 10.3195 17.5142 10.0977 17.5142H9.34841L9.34836 16.146ZM15.223 19.7108C15.5566 19.5153 15.8156 19.2469 15.9986 18.9026C16.1817 18.5597 16.2732 18.1688 16.2732 17.7344V17.5173C16.2717 17.086 16.177 16.6982 15.9894 16.3523C15.8017 16.0063 15.5395 15.7364 15.206 15.5472C14.8709 15.3579 14.494 15.2617 14.0751 15.2617H12.5471V20.0055H14.1076C14.5172 20.0024 14.8895 19.9062 15.223 19.7108ZM13.6903 19.1259V16.146H14.075C14.4117 16.146 14.6676 16.2608 14.8429 16.4934C15.0198 16.7261 15.1082 17.0705 15.1082 17.5297V17.7344C15.1082 18.1952 15.0197 18.5426 14.8429 18.7769C14.6676 19.0096 14.4163 19.1259 14.0874 19.1259H13.6903ZM18.0044 18.1161H19.8489V17.2365H18.0044V16.146H20.0335V15.2617H16.8612V20.0055H18.0044V18.1161Z" fill="white"/>
</svg>
