<svg width="51" height="51" viewBox="0 0 51 51" fill="none" xmlns="http://www.w3.org/2000/svg">
<path d="M39.739 45.2458L38.7531 44.3865L32.6205 43.1982C31.2783 43.0201 30.0292 42.4144 29.0581 41.471L21.106 33.7454C20.7464 33.3896 20.5399 32.9074 20.5306 32.4015C20.5213 31.8957 20.71 31.4062 21.0563 31.0374C21.4027 30.6686 21.8794 30.4497 22.3849 30.4273C22.8903 30.4049 23.3845 30.5807 23.7622 30.9174L27.9081 34.6798H37.1031C39.1327 34.6801 41.079 35.4866 42.5139 36.9219L45.5154 39.7538C45.9653 40.2062 45.9528 40.9413 45.4864 41.378L41.3225 45.281C40.8725 45.7021 40.1694 45.6864 39.739 45.2458Z" fill="#FFCBBA"/>
<path d="M28.5426 34.6798C28.0958 34.6212 27.6177 34.797 27.2692 35.1243C27.0935 35.2956 26.9567 35.5028 26.8682 35.7317C26.7796 35.9606 26.7413 36.2058 26.756 36.4508C26.7739 36.9524 27.0396 37.4359 27.438 37.75C27.638 37.9086 27.8755 38.0187 28.1231 38.0797C28.2481 38.1109 28.3755 38.1265 28.5028 38.1305L28.8418 38.1351C30.6199 38.1281 32.398 38.0836 34.176 37.8875C32.398 37.6922 30.6199 37.6469 28.8418 37.6398L28.5137 37.6414C28.4191 37.6404 28.3248 37.6294 28.2325 37.6086C28.0479 37.5662 27.8736 37.4873 27.72 37.3766C27.4075 37.1578 27.1942 36.8032 27.1396 36.4157C27.0091 35.6344 27.6302 34.7642 28.5426 34.6798Z" fill="#EFB7A8"/>
<path d="M43.8716 50.4957L50.6581 44.1357C50.8237 43.9804 50.9209 43.7657 50.9282 43.5388C50.9355 43.3118 50.8524 43.0913 50.6971 42.9256L47.5918 39.6117C47.4365 39.4461 47.2217 39.3489 46.9948 39.3416C46.7679 39.3342 46.5473 39.4174 46.3817 39.5726L39.5952 45.9326C39.513 46.0095 39.4469 46.1018 39.4005 46.2043C39.354 46.3068 39.3283 46.4175 39.3247 46.5299C39.321 46.6424 39.3396 46.7544 39.3793 46.8597C39.419 46.965 39.4791 47.0614 39.5561 47.1435L42.6615 50.4558C42.8167 50.6216 43.0313 50.7189 43.2583 50.7264C43.4852 50.7338 43.7058 50.6509 43.8716 50.4957Z" fill="#ED524E"/>
<path d="M27.8809 36.1211C27.8808 36.2487 27.9058 36.375 27.9546 36.4929C28.0033 36.6107 28.0749 36.7178 28.165 36.808C28.2552 36.8982 28.3623 36.9697 28.4802 37.0185C28.5981 37.0673 28.7244 37.0923 28.8519 37.0922H29.6222C29.98 37.0922 29.98 35.1501 29.6222 35.1501H28.8519C28.3168 35.1501 27.8809 35.586 27.8809 36.1211Z" fill="#EFB7A8"/>
<path d="M7.23438 21.5209L7.64061 21.4123L12.7303 13.6321C13.2752 12.7994 14.1016 12.1904 15.0583 11.9165L19.5027 10.6439L15.7653 16.6398L16.7653 18.7491L18.659 18.7897L23.0666 15.1961C23.4624 14.8741 23.9619 14.7073 24.4717 14.7268C24.9816 14.7463 25.4669 14.9509 25.8368 15.3022C26.2068 15.6535 26.4362 16.1276 26.4821 16.6357C26.5279 17.1438 26.3872 17.6513 26.0861 18.0632L20.7675 25.32C20.7675 25.32 19.0644 28.5644 14.7654 28.9495L9.87725 29.9839L7.23438 21.5209Z" fill="#FFCBBA"/>
<path d="M9.69358 31.908L4.82657 33.2213C4.64633 33.2681 4.45502 33.2442 4.29187 33.1544C4.12873 33.0646 4.00614 32.9158 3.94925 32.7385L0.88139 22.9052C0.85248 22.8126 0.842557 22.7151 0.852214 22.6186C0.861871 22.5221 0.89091 22.4285 0.937592 22.3434C0.984274 22.2584 1.04764 22.1836 1.12389 22.1236C1.20015 22.0636 1.28772 22.0197 1.38137 21.9943L6.24839 20.6858C6.42862 20.639 6.61994 20.6629 6.78308 20.7527C6.94622 20.8424 7.06882 20.9913 7.1257 21.1686L10.1928 30.9971C10.2217 31.0897 10.2316 31.1872 10.222 31.2838C10.2123 31.3803 10.1833 31.4739 10.1366 31.559C10.0899 31.644 10.0265 31.7188 9.95028 31.7787C9.87403 31.8387 9.78645 31.8827 9.6928 31.908H9.69358Z" fill="#70C1F9"/>
<path d="M26.7208 0.890362L37.2126 7.36514C37.7266 7.68309 37.8868 8.35807 37.5688 8.8729L25.9872 27.6379C25.9117 27.7604 25.8127 27.8667 25.6961 27.951C25.5794 28.0352 25.4473 28.0956 25.3073 28.1288C25.1673 28.1619 25.0221 28.1672 24.88 28.1442C24.738 28.1212 24.6018 28.0705 24.4794 27.9949L13.9876 21.5201C13.8652 21.4445 13.7589 21.3456 13.6747 21.2289C13.5905 21.1122 13.5302 20.9801 13.4971 20.84C13.464 20.7 13.4589 20.5549 13.4819 20.4128C13.5049 20.2708 13.5557 20.1347 13.6314 20.0124L25.213 1.24738C25.2885 1.1249 25.3874 1.01851 25.5041 0.934272C25.6208 0.850037 25.7529 0.789616 25.8929 0.756461C26.0329 0.723306 26.1781 0.718066 26.3201 0.741041C26.4622 0.764017 26.5983 0.814757 26.7208 0.890362Z" fill="#7BD681"/>
<path d="M26.0211 24.5942C25.5721 24.3171 25.0313 24.2298 24.5178 24.3514C24.0043 24.473 23.5601 24.7936 23.283 25.2427L16.9824 21.3537C17.1197 21.1313 17.2119 20.8841 17.2536 20.626C17.2954 20.368 17.2859 20.1043 17.2257 19.8499C17.1654 19.5956 17.0557 19.3556 16.9027 19.1436C16.7497 18.9317 16.5565 18.752 16.334 18.6148L25.1751 4.29026C25.3975 4.42759 25.6448 4.51976 25.9028 4.5615C26.1608 4.60324 26.4246 4.59373 26.6789 4.53351C26.9333 4.4733 27.1733 4.36356 27.3852 4.21056C27.5971 4.05757 27.7768 3.86431 27.914 3.64185L34.2146 7.53077C33.9375 7.97987 33.8501 8.52065 33.9717 9.03415C34.0933 9.54766 34.4139 9.99183 34.863 10.269L26.0211 24.5942Z" fill="#E9E9FF"/>
<path d="M30.1431 7.07766C30.2969 7.17205 30.4305 7.29579 30.5364 7.44182C30.6423 7.58785 30.7184 7.75331 30.7604 7.92876C30.8024 8.1042 30.8094 8.2862 30.781 8.46435C30.7526 8.6425 30.6894 8.81332 30.5951 8.96705C30.5007 9.12078 30.3769 9.25442 30.2309 9.36033C30.0849 9.46625 29.9194 9.54236 29.744 9.58432C29.5685 9.62629 29.3865 9.63329 29.2084 9.60492C29.0302 9.57655 28.8594 9.51337 28.7057 9.41899C28.3952 9.22837 28.1732 8.92222 28.0884 8.56789C28.0036 8.21356 28.0631 7.84008 28.2537 7.5296C28.4444 7.21912 28.7505 6.99708 29.1048 6.91233C29.4592 6.82757 29.8326 6.88705 30.1431 7.07766ZM22.4957 19.4679C22.6495 19.5622 22.7831 19.686 22.889 19.832C22.9949 19.978 23.071 20.1435 23.113 20.3189C23.155 20.4944 23.162 20.6764 23.1336 20.8545C23.1052 21.0327 23.0421 21.2035 22.9477 21.3572C22.8533 21.511 22.7295 21.6446 22.5835 21.7505C22.4375 21.8564 22.272 21.9326 22.0966 21.9745C21.9211 22.0165 21.7391 22.0235 21.561 21.9951C21.3828 21.9667 21.212 21.9036 21.0583 21.8092C20.7478 21.6186 20.5258 21.3124 20.441 20.9581C20.3563 20.6038 20.4157 20.2303 20.6063 19.9198C20.797 19.6093 21.1031 19.3873 21.4574 19.3025C21.8118 19.2178 22.1853 19.2772 22.4957 19.4679Z" fill="#7BD681"/>
<path d="M29.1064 15.7123C29.8107 13.7772 28.8129 11.6374 26.8778 10.9331C24.9426 10.2288 22.8029 11.2265 22.0986 13.1617C21.3942 15.0968 22.392 17.2366 24.3271 17.9409C26.2623 18.6452 28.402 17.6475 29.1064 15.7123Z" fill="#7BD681"/>
<path d="M24.0083 14.7649C23.6685 14.4711 23.6161 14.0891 23.7388 13.6727L23.7724 13.5696C23.7813 13.5437 23.781 13.5155 23.7715 13.4899C23.7619 13.4642 23.7437 13.4427 23.7201 13.429L23.4201 13.2555C23.3931 13.2399 23.3734 13.2141 23.3653 13.1839C23.3573 13.1538 23.3615 13.1217 23.3771 13.0946L23.5122 12.8602C23.5201 12.8468 23.5305 12.8351 23.5428 12.8257C23.5552 12.8163 23.5693 12.8095 23.5843 12.8056C23.5994 12.8016 23.615 12.8007 23.6304 12.8029C23.6458 12.805 23.6606 12.8102 23.674 12.818L24.0068 13.0102C24.0307 13.0241 24.0588 13.0292 24.086 13.0244C24.1133 13.0197 24.1381 13.0056 24.156 12.9844C24.1989 12.9352 24.2411 12.8774 24.2864 12.836C24.4581 12.6807 24.6745 12.5837 24.9046 12.5589C25.1347 12.534 25.3668 12.5827 25.5676 12.6977C25.5811 12.7054 25.5929 12.7157 25.6023 12.728C25.6118 12.7403 25.6187 12.7543 25.6227 12.7692C25.6267 12.7842 25.6277 12.7998 25.6256 12.8152C25.6235 12.8305 25.6184 12.8453 25.6106 12.8587L25.2981 13.3985C25.2842 13.4226 25.2623 13.441 25.2361 13.4506C25.21 13.4602 25.1813 13.4602 25.1552 13.4508C25.099 13.4289 25.0416 13.4104 24.9833 13.3954C24.8705 13.3668 24.751 13.3825 24.6494 13.4391C24.5477 13.4958 24.4715 13.5891 24.4364 13.7C24.3942 13.8297 24.4052 13.9539 24.5091 14.0539C24.6411 14.1813 24.7974 14.2602 24.9809 14.2024C25.0903 14.1688 25.1903 14.1008 25.288 14.0368C25.4841 13.9086 25.6676 13.7586 25.8708 13.643C26.302 13.3969 26.7153 13.4352 27.0817 13.7391C27.4441 14.0414 27.5027 14.4305 27.384 14.8641V14.8649C27.3771 14.8899 27.3787 14.9166 27.3886 14.9406C27.3985 14.9647 27.4161 14.9847 27.4387 14.9977L27.7777 15.193C27.7912 15.2007 27.803 15.2111 27.8125 15.2234C27.8219 15.2358 27.8288 15.2499 27.8328 15.2649C27.8368 15.2799 27.8378 15.2956 27.8357 15.311C27.8336 15.3264 27.8285 15.3413 27.8207 15.3547L27.6855 15.589C27.6777 15.6025 27.6673 15.6142 27.6549 15.6236C27.6426 15.6329 27.6285 15.6398 27.6134 15.6437C27.5984 15.6476 27.5828 15.6485 27.5674 15.6464C27.552 15.6443 27.5372 15.6391 27.5238 15.6312L27.1949 15.4406C27.1723 15.4274 27.1459 15.4222 27.1199 15.4259C27.094 15.4296 27.07 15.4419 27.052 15.4609C26.8309 15.6914 26.5543 15.882 26.2387 15.8953C26.0456 15.9015 25.854 15.8599 25.6809 15.7742C25.6663 15.7671 25.6532 15.7571 25.6426 15.7448C25.632 15.7324 25.6241 15.718 25.6193 15.7025C25.6145 15.6869 25.613 15.6706 25.6149 15.6544C25.6168 15.6382 25.622 15.6226 25.6301 15.6086L25.9465 15.0617C25.9607 15.0369 25.9834 15.0181 26.0104 15.0087C26.0374 14.9994 26.0669 15.0002 26.0934 15.0109C26.1184 15.0211 26.1434 15.0305 26.1692 15.0391C26.3778 15.1109 26.5332 15.0742 26.6379 14.932C26.7371 14.7969 26.7426 14.6406 26.6551 14.518C26.545 14.3664 26.3192 14.2774 26.1543 14.3422C26.0372 14.3875 25.9293 14.4594 25.8208 14.5258C25.5958 14.6649 25.3833 14.8289 25.1466 14.9445C24.7341 15.1453 24.3435 15.0555 24.0083 14.7649Z" fill="#E9E9FF"/>
<path d="M20.7679 25.32L26.0864 18.0632C26.3875 17.6513 26.5283 17.1439 26.4824 16.6357C26.4366 16.1276 26.2072 15.6535 25.8372 15.3022C25.4672 14.9509 24.9819 14.7463 24.4721 14.7268C23.9623 14.7073 23.4628 14.8741 23.067 15.1961L18.6593 18.7898L16.7664 18.7491L15.7665 16.6398L13.3275 17.3453L12.0986 20.3139L13.6345 24.2755L14.8626 26.9535L17.8453 27.2145L19.5429 26.8395L20.7679 25.32Z" fill="#FFCBBA"/>
<path d="M25.3319 17.5952L24.5624 18.6405L22.6562 16.6812L23.5757 15.9312C23.7929 15.7515 24.064 15.6555 24.3445 15.6555C24.6445 15.6555 24.9304 15.7664 25.1523 15.9601C25.6319 16.3812 25.7038 17.0828 25.3319 17.5952Z" fill="#EFB7A8"/>
</svg>
