<svg width="51" height="51" viewBox="0 0 51 51" fill="none" xmlns="http://www.w3.org/2000/svg">
<path d="M12.9785 23.8334V37.1982L24.5825 43.8977L24.677 43.8462V30.4127L12.9785 23.8334Z" fill="#F16932"/>
<path d="M24.6777 30.4127V43.8462L36.1873 37.1982V23.8334L24.6777 30.4127Z" fill="#F88D28"/>
<path d="M36.1867 23.8075V23.8418L24.6772 30.4126C21.2243 28.4714 16.4402 25.7744 12.9873 23.8332V23.8075L24.5913 17.1079C28.0098 19.092 32.7596 21.8234 36.1867 23.8075Z" fill="#FEC233"/>
<path d="M20.4253 28.0162L20.3995 28.0334V32.0789L17.2559 30.3181V26.2383L20.4253 28.0162Z" fill="#FF4B40"/>
<path d="M32.0207 21.4026L31.2047 21.8493L20.4253 28.0163L17.2559 26.2383V26.2126L28.8513 19.5731L32.0207 21.4026Z" fill="#FF493D"/>
<path d="M44.6299 22.648C42.5685 14.1104 34.5806 7.84025 25.8883 7.33349V3.8291C23.638 5.28067 19.1201 8.20959 16.8783 9.66116C19.1286 11.1127 23.6466 14.0416 25.8883 15.4932V12.2895C25.8883 11.9287 31.1363 13.2429 31.7118 13.4834C41.6151 17.4601 44.8189 30.7648 38.2739 39.0706C33.7904 44.9284 25.7423 47.0585 18.8366 44.6278C8.98481 41.278 4.07179 29.5366 8.60688 20.1572C1.53798 33.2986 13.1248 49.2745 27.735 47.4965C39.7255 46.2511 47.7306 34.1404 44.6299 22.648Z" fill="#0593FC"/>
</svg>
