<svg width="51" height="51" viewBox="0 0 51 51" fill="none" xmlns="http://www.w3.org/2000/svg">
<path d="M36.2335 41.7339V11.389C36.2335 9.87175 34.9922 8.63037 33.4749 8.63037H8.6473C7.13005 8.63037 5.88867 9.87175 5.88867 11.389V41.7339C5.88867 43.2511 7.13005 44.4925 8.6473 44.4925H33.4749C34.2066 44.4925 34.9082 44.2019 35.4256 43.6845C35.9429 43.1672 36.2335 42.4655 36.2335 41.7339Z" fill="#AD6D40"/>
<path d="M32.7854 11.3889H9.33712C8.95623 11.3889 8.64746 11.6977 8.64746 12.0786V41.0441C8.64746 41.425 8.95623 41.7338 9.33712 41.7338H32.7854C33.1663 41.7338 33.4751 41.425 33.4751 41.0441V12.0786C33.4751 11.6977 33.1663 11.3889 32.7854 11.3889Z" fill="#F8F8FF"/>
<path d="M26.5784 8.63033V10.6993C26.5784 11.4579 25.9578 12.0786 25.1991 12.0786H16.9233C16.1646 12.0786 15.5439 11.4579 15.5439 10.6993V8.63033C15.5439 8.25102 15.8543 7.94067 16.2336 7.94067H18.3922C18.6957 6.74757 19.7784 5.8717 21.0612 5.8717C22.344 5.8717 23.4267 6.74757 23.7302 7.94067H25.8888C26.2681 7.94067 26.5784 8.25102 26.5784 8.63033Z" fill="#CBCBF4"/>
<path d="M45.8887 25.8441V44.4924C45.8887 45.251 45.2681 45.8717 44.5094 45.8717H23.8197C23.0611 45.8717 22.4404 45.251 22.4404 44.4924V25.8441H45.8887Z" fill="#EA9453"/>
<path d="M45.6785 25.3456L41.5861 21.2532C41.52 21.187 41.4416 21.1344 41.3552 21.0986C41.2688 21.0627 41.1762 21.0442 41.0827 21.0442H27.2475C27.1539 21.0442 27.0613 21.0626 26.9749 21.0985C26.8885 21.1343 26.81 21.1869 26.744 21.2532L22.6516 25.3456C22.2026 25.7945 22.5206 26.5614 23.1551 26.5614H45.1758C45.8103 26.5614 46.1275 25.7945 45.6785 25.3456Z" fill="#FCB36B"/>
<path d="M37.6124 26.5614V31.389C37.6124 31.5719 37.5397 31.7473 37.4104 31.8766C37.2811 32.006 37.1056 32.0786 36.9227 32.0786H31.4055C31.2226 32.0786 31.0472 32.006 30.9178 31.8766C30.7885 31.7473 30.7158 31.5719 30.7158 31.389V26.5614L31.4055 25.8717H36.9227L37.6124 26.5614Z" fill="#723535"/>
<path d="M29.3372 39.6648H25.8889C25.508 39.6648 25.1992 39.9736 25.1992 40.3545V42.4234C25.1992 42.8043 25.508 43.1131 25.8889 43.1131H29.3372C29.718 43.1131 30.0268 42.8043 30.0268 42.4234V40.3545C30.0268 39.9736 29.718 39.6648 29.3372 39.6648Z" fill="#DDF2FF"/>
<path d="M37.6124 26.5614L35.5434 21.0442H32.7848L30.7158 26.5614H37.6124Z" fill="#914747"/>
<path d="M38.7906 39.1772C38.7266 39.1131 38.6506 39.0622 38.5669 39.0275C38.4833 38.9928 38.3936 38.975 38.303 38.975C38.2124 38.975 38.1227 38.9928 38.0391 39.0275C37.9554 39.0622 37.8794 39.1131 37.8154 39.1772L37.1258 39.8668C37.029 39.9632 36.963 40.0861 36.9362 40.2199C36.9095 40.3538 36.923 40.4926 36.9753 40.6188C37.0275 40.7449 37.1161 40.8527 37.2297 40.9284C37.3433 41.0041 37.4768 41.0444 37.6133 41.0441V43.1131C37.6133 43.296 37.686 43.4714 37.8153 43.6007C37.9447 43.7301 38.1201 43.8027 38.303 43.8027C38.4859 43.8027 38.6613 43.7301 38.7907 43.6007C38.92 43.4714 38.9927 43.296 38.9927 43.1131V41.0441C39.1292 41.0444 39.2627 41.0041 39.3763 40.9284C39.4899 40.8527 39.5785 40.7449 39.6307 40.6188C39.6829 40.4926 39.6965 40.3538 39.6697 40.2199C39.643 40.0861 39.577 39.9632 39.4802 39.8668L38.7906 39.1772ZM43.6182 39.8668L42.9285 39.1772C42.8645 39.1131 42.7885 39.0622 42.7049 39.0275C42.6212 38.9928 42.5315 38.975 42.4409 38.975C42.3504 38.975 42.2607 38.9928 42.177 39.0275C42.0933 39.0622 42.0173 39.1131 41.9533 39.1772L41.2637 39.8668C41.1669 39.9632 41.101 40.0861 41.0742 40.2199C41.0474 40.3538 41.061 40.4926 41.1132 40.6188C41.1655 40.7449 41.254 40.8527 41.3676 40.9284C41.4812 41.0041 41.6148 41.0444 41.7513 41.0441V43.1131C41.7513 43.296 41.8239 43.4714 41.9533 43.6007C42.0826 43.7301 42.258 43.8027 42.4409 43.8027C42.6238 43.8027 42.7993 43.7301 42.9286 43.6007C43.0579 43.4714 43.1306 43.296 43.1306 43.1131V41.0441C43.2671 41.0444 43.4007 41.0041 43.5143 40.9284C43.6279 40.8527 43.7164 40.7449 43.7686 40.6188C43.8209 40.4926 43.8345 40.3538 43.8077 40.2199C43.7809 40.0861 43.7149 39.9632 43.6182 39.8668Z" fill="#20295E"/>
<path d="M14.854 21.0441C14.7634 21.0442 14.6737 21.0264 14.5901 20.9917C14.5064 20.957 14.4304 20.9062 14.3664 20.842L12.9871 19.4627C12.8578 19.3334 12.7852 19.158 12.7852 18.9751C12.7852 18.7923 12.8578 18.6169 12.9871 18.4876C13.1164 18.3582 13.2918 18.2856 13.4747 18.2856C13.6576 18.2856 13.833 18.3582 13.9623 18.4876L14.7471 19.2724L17.0389 15.8344C17.0891 15.7591 17.1537 15.6944 17.229 15.644C17.3043 15.5936 17.3887 15.5586 17.4776 15.5408C17.5664 15.5231 17.6578 15.523 17.7467 15.5406C17.8355 15.5582 17.9201 15.5931 17.9954 15.6434C18.0708 15.6937 18.1355 15.7583 18.1859 15.8336C18.2362 15.9088 18.2713 15.9933 18.289 16.0821C18.3068 16.1709 18.3068 16.2624 18.2892 16.3512C18.2716 16.4401 18.2367 16.5246 18.1864 16.6L15.4278 20.7379C15.3648 20.8323 15.2795 20.9097 15.1794 20.9633C15.0793 21.0168 14.9675 21.0441 14.854 21.0441ZM14.854 29.32C14.7634 29.3201 14.6737 29.3023 14.5901 29.2676C14.5064 29.2329 14.4304 29.1821 14.3664 29.1179L12.9871 27.7386C12.9231 27.6746 12.8723 27.5986 12.8376 27.5149C12.803 27.4312 12.7852 27.3416 12.7852 27.251C12.7852 27.1605 12.803 27.0708 12.8376 26.9871C12.8723 26.9035 12.9231 26.8275 12.9871 26.7634C13.0512 26.6994 13.1272 26.6486 13.2108 26.614C13.2945 26.5793 13.3842 26.5615 13.4747 26.5615C13.5653 26.5615 13.6549 26.5793 13.7386 26.614C13.8222 26.6486 13.8983 26.6994 13.9623 26.7634L14.7471 27.5483L17.0389 24.1103C17.1404 23.9581 17.2982 23.8525 17.4776 23.8167C17.657 23.7809 17.8432 23.8178 17.9954 23.9193C18.1476 24.0208 18.2532 24.1786 18.289 24.358C18.3249 24.5374 18.288 24.7237 18.1864 24.8758L15.4278 29.0138C15.3648 29.1082 15.2795 29.1856 15.1794 29.2392C15.0793 29.2927 14.9675 29.32 14.854 29.32ZM14.854 37.5959C14.7634 37.596 14.6737 37.5782 14.5901 37.5435C14.5064 37.5088 14.4304 37.4579 14.3664 37.3938L12.9871 36.0145C12.9231 35.9505 12.8723 35.8744 12.8376 35.7908C12.803 35.7071 12.7852 35.6174 12.7852 35.5269C12.7852 35.4363 12.803 35.3467 12.8376 35.263C12.8723 35.1794 12.9231 35.1033 12.9871 35.0393C13.0512 34.9753 13.1272 34.9245 13.2108 34.8898C13.2945 34.8552 13.3842 34.8373 13.4747 34.8373C13.5653 34.8373 13.6549 34.8552 13.7386 34.8898C13.8222 34.9245 13.8983 34.9753 13.9623 35.0393L14.7471 35.8241L17.0389 32.3862C17.0891 32.3108 17.1537 32.2461 17.229 32.1958C17.3043 32.1454 17.3887 32.1103 17.4776 32.0926C17.5664 32.0748 17.6578 32.0748 17.7467 32.0924C17.8355 32.11 17.9201 32.1449 17.9954 32.1952C18.0708 32.2454 18.1355 32.31 18.1859 32.3853C18.2362 32.4606 18.2713 32.5451 18.289 32.6339C18.3068 32.7227 18.3068 32.8142 18.2892 32.903C18.2716 32.9919 18.2367 33.0764 18.1864 33.1517L15.4278 37.2897C15.3648 37.3841 15.2795 37.4615 15.1794 37.515C15.0793 37.5686 14.9675 37.5959 14.854 37.5959Z" fill="#43A867"/>
</svg>
