<svg width="51" height="51" viewBox="0 0 51 51" fill="none" xmlns="http://www.w3.org/2000/svg">
<path d="M30.0908 21.1842H37.9033V10.2467H6.65332V44.6217H30.0908V21.1842Z" fill="#F0F0F0"/>
<path d="M25.4033 7.1217C25.4033 6.2929 25.0741 5.49805 24.488 4.912C23.902 4.32594 23.1071 3.9967 22.2783 3.9967C21.4495 3.9967 20.6547 4.32594 20.0686 4.912C19.4826 5.49805 19.1533 6.2929 19.1533 7.1217H16.0283V10.2467H28.5283V7.1217H25.4033ZM22.2783 7.1217C22.0711 7.1217 21.8724 7.03939 21.7259 6.89288C21.5794 6.74637 21.4971 6.54765 21.4971 6.34045C21.4971 6.13325 21.5794 5.93454 21.7259 5.78803C21.8724 5.64151 22.0711 5.5592 22.2783 5.5592C22.4855 5.5592 22.6842 5.64151 22.8307 5.78803C22.9773 5.93454 23.0596 6.13325 23.0596 6.34045C23.0596 6.54765 22.9773 6.74637 22.8307 6.89288C22.6842 7.03939 22.4855 7.1217 22.2783 7.1217Z" fill="#505050"/>
<path d="M23.0596 4.10686C22.8049 4.03709 22.5424 4.00008 22.2783 3.9967C21.4495 3.9967 20.6547 4.32594 20.0686 4.912C19.4826 5.49805 19.1533 6.2929 19.1533 7.1217H20.7158C20.7158 5.66702 21.7143 4.45608 23.0596 4.10686ZM16.0283 7.1217H17.5908V10.2467H16.0283V7.1217Z" fill="#3C3C3C"/>
<path d="M6.65332 10.2467H9.77832V44.6217H6.65332V10.2467Z" fill="#D2D2D2"/>
<path d="M11.3408 13.3717H14.4658V16.4967H11.3408V13.3717Z" fill="#FAB400"/>
<path d="M16.0283 14.9342H33.2158V16.4967H16.0283V14.9342Z" fill="#D2D2D2"/>
<path d="M11.3408 18.0592H14.4658V21.1842H11.3408V18.0592Z" fill="#FAB400"/>
<path d="M16.0283 19.6217H33.2158V21.1842H16.0283V19.6217Z" fill="#D2D2D2"/>
<path d="M11.3408 22.7467H14.4658V25.8717H11.3408V22.7467Z" fill="#FAB400"/>
<path d="M11.3408 27.4342H14.4658V30.5592H11.3408V27.4342ZM11.3408 32.1217H14.4658V35.2467H11.3408V32.1217ZM11.3408 36.8092H14.4658V39.9342H11.3408V36.8092Z" fill="#FA6450"/>
<path d="M16.0283 24.3092H30.0908V25.8717H16.0283V24.3092ZM16.0283 38.3717H30.0908V39.9342H16.0283V38.3717ZM16.0283 28.9967H30.0908V30.5592H16.0283V28.9967ZM16.0283 33.6842H30.0908V35.2467H16.0283V33.6842Z" fill="#D2D2D2"/>
<path d="M31.6533 35.2467H44.1533V47.7467H31.6533V35.2467Z" fill="#FAB400"/>
<path d="M31.6533 35.2467H33.2158V47.7467H31.6533V35.2467Z" fill="#DC9600"/>
<path d="M36.3408 35.2467V38.3717L37.9033 36.8092L39.4658 38.3717V35.2467H36.3408Z" fill="#FA6450"/>
<path d="M41.0283 44.2311H42.5908V45.0123H41.0283V44.2311Z" fill="#F0F0F0"/>
<path d="M31.6533 22.7467H44.1533V35.2467H31.6533V22.7467Z" fill="#FAB400"/>
<path d="M33.2158 33.6842V22.7467H31.6533V35.2467H44.1533V33.6842H33.2158Z" fill="#DC9600"/>
<path d="M36.3408 22.7467V25.8717L37.9033 24.3092L39.4658 25.8717V22.7467H36.3408Z" fill="#FA6450"/>
<path d="M41.0283 31.7311H42.5908V32.5123H41.0283V31.7311Z" fill="#F0F0F0"/>
</svg>
