<svg width="51" height="50" viewBox="0 0 51 50" fill="none" xmlns="http://www.w3.org/2000/svg">
<path d="M44.4605 40.315C44.5144 40.8923 44.4475 41.4744 44.2642 42.0244C44.0809 42.5744 43.7851 43.0803 43.3956 43.5098C43.0094 43.9416 42.5361 44.2868 42.007 44.5228C41.4778 44.7588 40.9048 44.8801 40.3254 44.8789H10.4804C9.901 44.8801 9.32791 44.7588 8.79877 44.5228C8.26962 44.2868 7.79638 43.9416 7.41013 43.5098C7.02068 43.0803 6.72489 42.5744 6.54155 42.0244C6.35822 41.4744 6.29136 40.8923 6.34522 40.315L8.55801 18.2563L8.68248 16.9425C8.75461 16.2616 9.07522 15.6313 9.58298 15.172C10.0907 14.7127 10.75 14.4567 11.4346 14.4531H39.3711C40.0558 14.4567 40.715 14.7127 41.2228 15.172C41.7305 15.6313 42.0511 16.2616 42.1233 16.9425L42.2477 18.2563L44.4605 40.315Z" fill="#82BCF4"/>
<path d="M25.4032 34.0501C23.57 34.0479 21.8124 33.3187 20.5161 32.0223C19.2197 30.726 18.4905 28.9684 18.4883 27.1351V25.7521C18.4883 25.3853 18.634 25.0336 18.8934 24.7742C19.1527 24.5148 19.5045 24.3691 19.8713 24.3691C20.2381 24.3691 20.5898 24.5148 20.8492 24.7742C21.1086 25.0336 21.2543 25.3853 21.2543 25.7521V27.1351C21.2543 28.2355 21.6914 29.2908 22.4695 30.0689C23.2476 30.847 24.3029 31.2841 25.4032 31.2841C26.5036 31.2841 27.5589 30.847 28.337 30.0689C29.1151 29.2908 29.5522 28.2355 29.5522 27.1351V25.7521C29.5522 25.3853 29.6979 25.0336 29.9573 24.7742C30.2167 24.5148 30.5684 24.3691 30.9352 24.3691C31.302 24.3691 31.6538 24.5148 31.9131 24.7742C32.1725 25.0336 32.3182 25.3853 32.3182 25.7521V27.1351C32.316 28.9684 31.5868 30.726 30.2904 32.0223C28.9941 33.3187 27.2365 34.0479 25.4032 34.0501Z" fill="#EDEBF2"/>
<path d="M42.2473 18.2563C42.1425 18.4235 42.0171 18.5768 41.8739 18.7127C41.6204 18.9727 41.317 19.1789 40.982 19.3191C40.6469 19.4593 40.2871 19.5306 39.9239 19.5287H10.881C10.4182 19.5279 9.96303 19.411 9.55711 19.1887C9.15119 18.9664 8.80753 18.6458 8.55762 18.2563L8.68209 16.9425C8.75422 16.2616 9.07483 15.6313 9.58258 15.172C10.0903 14.7127 10.7496 14.4567 11.4342 14.4531H39.3707C40.0554 14.4567 40.7146 14.7127 41.2224 15.172C41.7301 15.6313 42.0507 16.2616 42.1229 16.9425L42.2473 18.2563Z" fill="#4A91CC"/>
<path d="M24.4016 8.87961C24.0717 8.30247 23.6079 7.81304 23.0494 7.45255C22.4909 7.09206 21.8539 6.87106 21.1921 6.80816C20.5303 6.74527 19.8631 6.84231 19.2466 7.09113C18.6302 7.33994 18.0825 7.73324 17.6498 8.2379L11.9062 14.9344C11.7345 15.1352 11.6238 15.381 11.5874 15.6428C11.551 15.9045 11.5903 16.1712 11.7008 16.4113C11.8112 16.6513 11.9881 16.8548 12.2106 16.9974C12.433 17.1401 12.6917 17.2161 12.9559 17.2163H26.7859C27.0289 17.2168 27.2677 17.1532 27.4783 17.032C27.6889 16.9109 27.8639 16.7363 27.9856 16.526C28.1073 16.3157 28.1715 16.077 28.1716 15.834C28.1717 15.591 28.1078 15.3523 27.9863 15.1418L24.4016 8.87961Z" fill="#FFDE76"/>
<path d="M34.0823 8.12447C33.739 7.57591 33.2722 7.11526 32.7191 6.77932C32.166 6.44338 31.542 6.24147 30.8969 6.18974C30.2519 6.138 29.6037 6.23786 29.0041 6.48135C28.4046 6.72483 27.8703 7.10519 27.4439 7.59202L20.2136 15.8526C20.0389 16.0526 19.9255 16.2985 19.8868 16.5612C19.8481 16.8239 19.8859 17.0921 19.9956 17.3339C20.1052 17.5757 20.2822 17.7808 20.5053 17.9247C20.7284 18.0687 20.9882 18.1454 21.2537 18.1456H37.8496C38.0964 18.1456 38.3388 18.0796 38.5515 17.9543C38.7642 17.829 38.9395 17.649 39.0592 17.4331C39.1789 17.2172 39.2386 16.9731 39.2321 16.7263C39.2256 16.4796 39.1532 16.239 39.0224 16.0297L34.0823 8.12447Z" fill="#F26674"/>
</svg>
