<svg width="51" height="51" viewBox="0 0 51 51" fill="none" xmlns="http://www.w3.org/2000/svg">
<path d="M37.0349 27.7934C43.1187 27.2868 47.6399 21.9442 47.1333 15.8604C46.6268 9.77657 41.2842 5.25533 35.2003 5.76192C29.1165 6.26852 24.5952 11.6111 25.1018 17.695C25.6084 23.7788 30.951 28.3 37.0349 27.7934Z" fill="#FDB800"/>
<path fill-rule="evenodd" clip-rule="evenodd" d="M43.2701 8.37976C45.6495 10.4073 47.1591 13.4254 47.1591 16.7965C47.1591 22.9013 42.2101 27.8504 36.1052 27.8504C32.7341 27.8504 29.716 26.3408 27.6885 23.9613C29.618 25.6055 32.1196 26.5984 34.8533 26.5984C40.9582 26.5984 45.9072 21.6494 45.9072 15.5445C45.9071 12.8108 44.9142 10.3093 43.2701 8.37976Z" fill="#F4A40E"/>
<path d="M36.8835 24.4539C41.1233 24.0285 44.2155 20.2466 43.79 16.0068C43.3646 11.767 39.5827 8.6748 35.3429 9.10023C31.1031 9.52566 28.0109 13.3076 28.4363 17.5474C28.8618 21.7872 32.6437 24.8794 36.8835 24.4539Z" fill="#FFDA2D"/>
<path fill-rule="evenodd" clip-rule="evenodd" d="M36.1051 9.08105C38.336 9.08105 40.3455 10.0283 41.7541 11.5422C40.4745 10.5993 38.8936 10.0417 37.1822 10.0417C32.9211 10.0417 29.4668 13.496 29.4668 17.7571C29.4668 19.7872 30.2513 21.6338 31.5332 23.0114C29.6267 21.6067 28.3896 19.3461 28.3896 16.7964C28.3896 12.5354 31.8439 9.08105 36.1051 9.08105Z" fill="#FFC700"/>
<path fill-rule="evenodd" clip-rule="evenodd" d="M36.1922 13.2792C36.1946 13.0815 36.2748 12.8928 36.4154 12.7538C36.556 12.6149 36.7458 12.537 36.9435 12.537C37.1411 12.537 37.3309 12.6149 37.4715 12.7538C37.6121 12.8928 37.6923 13.0815 37.6947 13.2792V13.9401C37.9191 13.9825 38.1363 14.0572 38.3393 14.1618C38.6721 14.3319 38.96 14.5782 39.1797 14.8805C39.2936 15.0418 39.3394 15.2414 39.3071 15.4362C39.2748 15.6309 39.1671 15.8051 39.0073 15.921C38.8474 16.0368 38.6483 16.085 38.4532 16.0551C38.258 16.0251 38.0826 15.9194 37.9648 15.761C37.8825 15.6471 37.7775 15.5552 37.6586 15.4942C37.5453 15.436 37.4133 15.4031 37.2698 15.4031H36.7639C36.5296 15.4031 36.3158 15.4996 36.1604 15.6549C36.005 15.8103 35.9086 16.0241 35.9086 16.2585C35.9086 16.4929 36.005 16.7066 36.1604 16.862C36.3158 17.0174 36.5296 17.1138 36.7639 17.1138H37.1232C37.7723 17.1138 38.362 17.3789 38.7889 17.8058C39.2158 18.2328 39.481 18.8224 39.481 19.4717C39.481 20.1208 39.2159 20.7105 38.789 21.1375C38.4872 21.4399 38.1091 21.6547 37.6948 21.7591V22.4509C37.6924 22.6486 37.6122 22.8373 37.4716 22.9763C37.331 23.1152 37.1413 23.1931 36.9436 23.1931C36.7459 23.1931 36.5562 23.1152 36.4155 22.9763C36.2749 22.8373 36.1947 22.6486 36.1923 22.4509V21.7899C35.9679 21.7475 35.7508 21.6728 35.5477 21.5683C35.215 21.3981 34.9271 21.1519 34.7073 20.8496C34.6495 20.7698 34.608 20.6794 34.5851 20.5836C34.5623 20.4878 34.5585 20.3884 34.574 20.2911C34.5895 20.1939 34.6241 20.1006 34.6757 20.0167C34.7272 19.9327 34.7948 19.8598 34.8746 19.802C34.9544 19.7442 35.0447 19.7027 35.1406 19.6798C35.2364 19.6569 35.3358 19.6531 35.433 19.6687C35.5303 19.6842 35.6236 19.7187 35.7075 19.7703C35.7914 19.8219 35.8644 19.8895 35.9222 19.9692C36.0045 20.083 36.1096 20.175 36.2285 20.2361C36.3418 20.2942 36.4737 20.3272 36.6174 20.3272H37.1232C37.3576 20.3272 37.5713 20.2307 37.7267 20.0753C37.8821 19.9199 37.9786 19.7062 37.9786 19.4718C37.9786 19.2374 37.8821 19.0236 37.7267 18.8682C37.5713 18.7129 37.3577 18.6164 37.1233 18.6164H36.7641C36.1149 18.6164 35.5252 18.3513 35.0982 17.9243C34.6713 17.4974 34.4062 16.9077 34.4062 16.2585C34.4062 15.6092 34.6713 15.0197 35.0982 14.5926C35.4 14.2902 35.7782 14.0754 36.1924 13.971V13.2792H36.1922Z" fill="#FFC700"/>
<path fill-rule="evenodd" clip-rule="evenodd" d="M35.3545 12.2106C35.3579 12.0136 35.4385 11.8258 35.579 11.6877C35.7195 11.5496 35.9087 11.4722 36.1057 11.4722C36.3028 11.4722 36.4919 11.5496 36.6324 11.6877C36.7729 11.8258 36.8536 12.0136 36.8569 12.2106V12.8716C37.0814 12.9141 37.2985 12.9887 37.5016 13.0933C37.8343 13.2635 38.1222 13.5097 38.3419 13.8121C38.4562 13.9733 38.5022 14.1731 38.47 14.3681C38.4378 14.563 38.33 14.7374 38.17 14.8534C38.01 14.9693 37.8107 15.0175 37.6154 14.9873C37.4201 14.9572 37.2446 14.8512 37.1269 14.6924C37.0472 14.5806 36.9423 14.4892 36.8207 14.4256C36.7074 14.3675 36.5753 14.3345 36.4318 14.3345H35.9259C35.6916 14.3345 35.4778 14.431 35.3224 14.5864C35.167 14.7417 35.0706 14.9554 35.0706 15.1899C35.0706 15.4243 35.167 15.638 35.3224 15.7934C35.4778 15.9488 35.6916 16.0453 35.9259 16.0453H36.2852C36.9343 16.0453 37.524 16.3103 37.9509 16.7372C38.3779 17.1643 38.643 17.7538 38.643 18.4031C38.643 19.0523 38.3779 19.6419 37.951 20.0689C37.6493 20.3713 37.2711 20.5862 36.8568 20.6906V21.3823C36.8535 21.5793 36.7728 21.7671 36.6323 21.9053C36.4918 22.0434 36.3027 22.1208 36.1056 22.1208C35.9086 22.1208 35.7194 22.0434 35.5789 21.9053C35.4384 21.7671 35.3578 21.5793 35.3544 21.3823V20.7213C35.13 20.6789 34.9129 20.6042 34.7098 20.4997C34.3771 20.3295 34.0892 20.0833 33.8695 19.781C33.7527 19.6199 33.7048 19.419 33.7361 19.2225C33.7675 19.026 33.8757 18.8501 34.0368 18.7334C34.1979 18.6166 34.3988 18.5687 34.5952 18.6C34.7917 18.6314 34.9677 18.7395 35.0844 18.9007C35.1667 19.0144 35.2718 19.1064 35.3907 19.1675C35.504 19.2256 35.6359 19.2586 35.7796 19.2586H36.2854C36.3976 19.2584 36.5087 19.236 36.6122 19.1928C36.7158 19.1496 36.8098 19.0863 36.8888 19.0067C37.0442 18.8513 37.1407 18.6376 37.1407 18.4032C37.1407 18.1688 37.0442 17.9551 36.8888 17.7997C36.7334 17.6443 36.5198 17.5478 36.2854 17.5478H35.9262C35.277 17.5478 34.6873 17.2827 34.2603 16.8557C33.8334 16.4287 33.5684 15.839 33.5684 15.1899C33.5684 14.5406 33.8334 13.9511 34.2603 13.524C34.5621 13.2217 34.9403 13.0068 35.3545 12.9024V12.2106Z" fill="#FDB800"/>
<path fill-rule="evenodd" clip-rule="evenodd" d="M5.51953 26.3515V39.8729C6.51844 39.4125 7.39547 39.0604 8.19075 38.8158C9.13163 38.4973 10.0408 38.3473 10.9548 38.4019C11.9269 38.4481 12.8316 38.7303 13.8025 39.2442L13.8056 39.2459L20.2454 42.6573C21.7118 43.4341 23.2173 43.6892 24.8205 43.2596L44.6333 37.951C46.4012 37.4773 47.4598 35.6433 46.9862 33.8752C46.5127 32.1073 44.6784 31.0482 42.9106 31.5219L29.1129 35.2187C29.1299 35.1911 29.1466 35.1632 29.1631 35.1351C30.181 33.388 29.5826 31.1188 27.8355 30.1008L16.7303 23.6308C15.1968 22.9943 13.6502 22.9925 12.1156 23.6266L5.51953 26.3515Z" fill="#FFD6BD"/>
<path fill-rule="evenodd" clip-rule="evenodd" d="M24.9726 35.0014C26.4758 35.8762 28.3592 35.5587 29.5062 34.3437C29.4235 34.6201 29.3083 34.8858 29.163 35.1351C28.1436 36.8845 25.8777 37.4831 24.1289 36.4627C21.9678 35.2015 19.7972 33.9619 17.6299 32.7105C17.2265 32.4775 17.0869 31.9571 17.3199 31.5537C17.5527 31.1502 18.0733 31.0108 18.4767 31.2437C20.6397 32.4924 22.8013 33.7375 24.9726 35.0014Z" fill="#F9C6AA"/>
<path fill-rule="evenodd" clip-rule="evenodd" d="M5.51953 37.8465V39.8729C6.51844 39.4125 7.39547 39.0605 8.19075 38.8158C9.13163 38.4973 10.0409 38.3473 10.9549 38.4019C11.9271 38.4481 12.8319 38.7303 13.8026 39.2442L13.8057 39.2459L20.2455 42.6574C21.7119 43.4342 23.2174 43.6893 24.8206 43.2597L44.6334 37.9512C46.4012 37.4774 47.4599 35.6435 46.9862 33.8753C46.9721 33.8224 46.9566 33.7702 46.94 33.7185C46.605 34.7618 45.7644 35.6217 44.6333 35.9248L24.8206 41.2331C23.2173 41.6627 21.7118 41.4076 20.2455 40.6308L13.8057 37.2194L13.8026 37.2177C12.8318 36.7038 11.927 36.4216 10.9549 36.3754C10.0409 36.3209 9.13174 36.4709 8.19075 36.7894C7.39547 37.0341 6.51833 37.3861 5.51953 37.8465Z" fill="#F9C6AA"/>
<path fill-rule="evenodd" clip-rule="evenodd" d="M7.09869 23.9106V40.4391C7.09869 40.8424 6.7688 41.1722 6.36583 41.1722H3.31098C2.90791 41.1722 2.57812 40.8425 2.57812 40.4391V23.9106C2.57812 23.5075 2.90802 23.1775 3.31098 23.1775H6.36583C6.7688 23.1776 7.09869 23.5075 7.09869 23.9106Z" fill="#64B5F6"/>
<path fill-rule="evenodd" clip-rule="evenodd" d="M7.0988 23.9106V24.103H4.23802C3.83505 24.103 3.50516 24.4327 3.50516 24.8361L3.50505 41.1722H3.31109C2.90813 41.1722 2.57823 40.8425 2.57812 40.4392V23.9106C2.57812 23.5073 2.90802 23.1777 3.31098 23.1776H6.36583C6.76891 23.1776 7.0988 23.5072 7.0988 23.9106Z" fill="#42A5F5"/>
</svg>
