<svg width="190" height="133" viewBox="0 0 190 133" fill="none" xmlns="http://www.w3.org/2000/svg">
<path d="M131.434 28.1614C131.434 26.9348 129.594 26.2658 125.915 26.1543L125.747 24.8999C127.643 25.0114 129.984 25.0671 132.772 25.0671C138.403 25.0671 142.779 24.9278 145.902 24.649V25.9034C145.902 25.9034 144.898 26.0986 142.891 26.4888C140.828 26.9348 139.769 27.4645 139.713 28.0777C139.657 28.5795 139.629 31.3114 139.629 36.2733C139.629 59.7448 139.797 72.3447 140.131 74.073C140.354 75.3553 142.529 75.9965 146.654 75.9965H146.989L147.156 77.0836C144.48 76.8606 140.968 76.7491 136.619 76.7491C131.657 76.7491 127.81 76.8885 125.078 77.1673L125.162 75.7456C129.399 75.7456 131.518 74.9372 131.518 73.3204V51.2426H108.185V73.3204C108.185 74.9372 110.304 75.7456 114.541 75.7456L114.625 77.0836C112.841 77.0279 110.694 77 108.185 77C102.666 77 97.7877 77.1115 93.5506 77.3345V75.9965C93.5506 75.9965 93.6621 75.9965 93.8851 75.9965C97.3975 75.9965 99.293 75.3553 99.5718 74.073C99.6833 73.404 99.7948 68.3027 99.9063 58.7691C100.018 49.2356 100.074 41.3188 100.074 35.0189C100.074 30.726 100.046 28.4123 99.9899 28.0777C99.8227 27.4645 98.8749 26.9348 97.1466 26.4888L94.7214 25.9034V24.649C97.3417 24.872 100.687 24.9835 104.757 24.9835C108.994 24.9835 112.311 24.872 114.708 24.649V26.3216C110.416 26.6003 108.241 27.2415 108.185 28.245V49.3192H131.518L131.434 28.1614Z" fill="white"/>
<rect x="83.2939" y="13.7627" width="27.8313" height="71.5663" fill="#0D5785"/>
<rect x="100.727" y="20.797" width="18.962" height="8.25765" fill="#0D5785"/>
<rect x="101.644" y="71.5662" width="18.962" height="8.25765" fill="#0D5785"/>
<path d="M67.3339 77.9198H64.0724C64.0724 77.9198 58.8039 63.4244 48.2668 34.4334C46.873 30.7538 45.2283 28.4401 43.3328 27.4923C41.939 26.8233 40.3779 26.2936 38.6496 25.9034V24.6489C41.2699 24.872 45.5071 24.9835 51.361 24.9835C57.7725 24.9835 62.2048 24.872 64.6578 24.6489V26.3215C63.9331 26.3773 62.6508 26.6281 60.811 27.0742C58.9711 27.5202 57.9676 27.9104 57.8004 28.2449C57.5216 28.8582 57.3822 29.7224 57.3822 30.8374C57.3822 32.3985 57.661 34.0153 58.2185 35.6878C59.2778 38.7542 60.4486 42.0156 61.7309 45.4723C63.0132 48.8731 64.3512 52.4134 65.745 56.093C67.1945 59.7169 68.1981 62.2814 68.7556 63.7867C71.4317 56.4833 74.7768 46.42 78.7909 33.5971L81.8015 23.8127L83.9759 23.8963C84.9236 27.6317 87.4325 34.6285 91.5024 44.8869C95.5722 55.0895 98.2205 61.9469 99.447 65.4593C99.8373 64.177 101.092 60.4416 103.21 54.2532C105.329 48.009 107.141 42.4895 108.646 37.6949C110.151 32.9002 110.904 30.0848 110.904 29.2485C110.904 28.4679 110.319 27.8547 109.148 27.4087L104.13 26.0706V24.8162C106.75 25.0392 109.677 25.1507 112.911 25.1507C116.2 25.1507 119.1 25.0392 121.608 24.8162V26.4888C119.323 26.6003 117.455 27.0742 116.005 27.9104C115.504 28.2449 114.835 29.0812 113.998 30.4193L112.66 32.3427C111.545 35.8551 109.956 40.6776 107.893 46.8103C105.886 52.943 104.074 58.5182 102.458 63.5359C100.897 68.5535 99.447 73.3482 98.1089 77.9198H95.2656C94.1506 74.4632 92.701 70.5606 90.917 66.212C89.1887 61.8076 87.1816 56.985 84.8958 51.7443C82.6099 46.4479 80.9931 42.6568 80.0453 40.371C79.4321 42.378 77.4529 48.0647 74.1078 57.431C70.8184 66.7973 68.5605 73.627 67.3339 77.9198Z" fill="white"/>
<path d="M8.73813 124.692V104.66H0.930125V102.132H19.5861V104.66H11.7461V124.692H8.73813ZM22.4476 124.692V101.14H25.3596V112.084H24.9436C25.413 110.847 26.1703 109.908 27.2156 109.268C28.261 108.628 29.4663 108.308 30.8316 108.308C32.773 108.308 34.2023 108.831 35.1196 109.876C36.0583 110.922 36.5276 112.5 36.5276 114.612V124.692H33.6156V114.772C33.6156 113.343 33.3383 112.308 32.7836 111.668C32.229 111.007 31.3223 110.676 30.0636 110.676C28.6556 110.676 27.5143 111.114 26.6396 111.988C25.7863 112.863 25.3596 114.026 25.3596 115.476V124.692H22.4476ZM48.6194 124.98C46.0594 124.98 44.0327 124.244 42.5394 122.772C41.0674 121.3 40.3314 119.274 40.3314 116.692C40.3314 114.986 40.6514 113.514 41.2914 112.276C41.9527 111.018 42.8594 110.047 44.0114 109.364C45.1634 108.66 46.5074 108.308 48.0434 108.308C49.5154 108.308 50.7634 108.628 51.7874 109.268C52.8114 109.887 53.59 110.772 54.1234 111.924C54.6567 113.076 54.9234 114.442 54.9234 116.02V116.98H42.6034V115.252H52.9394L52.3954 115.668C52.3954 114.004 52.022 112.714 51.2754 111.796C50.55 110.879 49.4727 110.42 48.0434 110.42C46.486 110.42 45.2807 110.964 44.4274 112.052C43.574 113.119 43.1474 114.58 43.1474 116.436V116.724C43.1474 118.687 43.6274 120.17 44.5874 121.172C45.5687 122.175 46.9234 122.676 48.6514 122.676C49.6114 122.676 50.5074 122.538 51.3394 122.26C52.1714 121.983 52.9714 121.524 53.7394 120.884L54.6994 122.9C53.974 123.562 53.0674 124.074 51.9794 124.436C50.9127 124.799 49.7927 124.98 48.6194 124.98ZM65.2249 124.692L57.3209 102.132H60.4569L67.1449 122.036H65.9929L73.0969 102.132H75.4329L82.0889 122.036H81.0649L87.9769 102.132H90.9209L82.9529 124.692H80.3609L73.8649 105.652H74.5369L67.7849 124.692H65.2249ZM99.8069 124.98C97.2469 124.98 95.2202 124.244 93.7269 122.772C92.2549 121.3 91.5189 119.274 91.5189 116.692C91.5189 114.986 91.8389 113.514 92.4789 112.276C93.1402 111.018 94.0469 110.047 95.1989 109.364C96.3509 108.66 97.6949 108.308 99.2309 108.308C100.703 108.308 101.951 108.628 102.975 109.268C103.999 109.887 104.778 110.772 105.311 111.924C105.844 113.076 106.111 114.442 106.111 116.02V116.98H93.7909V115.252H104.127L103.583 115.668C103.583 114.004 103.21 112.714 102.463 111.796C101.738 110.879 100.66 110.42 99.2309 110.42C97.6735 110.42 96.4682 110.964 95.6149 112.052C94.7615 113.119 94.3349 114.58 94.3349 116.436V116.724C94.3349 118.687 94.8149 120.17 95.7749 121.172C96.7562 122.175 98.1109 122.676 99.8389 122.676C100.799 122.676 101.695 122.538 102.527 122.26C103.359 121.983 104.159 121.524 104.927 120.884L105.887 122.9C105.162 123.562 104.255 124.074 103.167 124.436C102.1 124.799 100.98 124.98 99.8069 124.98ZM118.268 124.98C116.839 124.98 115.602 124.628 114.556 123.924C113.511 123.199 112.818 122.207 112.476 120.948H112.828V124.692H109.916V101.14H112.828V112.276H112.476C112.839 111.039 113.532 110.068 114.556 109.364C115.602 108.66 116.839 108.308 118.268 108.308C119.698 108.308 120.946 108.65 122.012 109.332C123.079 109.994 123.9 110.943 124.476 112.18C125.074 113.418 125.372 114.911 125.372 116.66C125.372 118.388 125.074 119.882 124.476 121.14C123.9 122.378 123.068 123.327 121.98 123.988C120.914 124.65 119.676 124.98 118.268 124.98ZM117.596 122.676C119.047 122.676 120.21 122.175 121.084 121.172C121.98 120.148 122.428 118.644 122.428 116.66C122.428 114.676 121.98 113.183 121.084 112.18C120.21 111.156 119.047 110.644 117.596 110.644C116.124 110.644 114.951 111.146 114.076 112.148C113.223 113.151 112.796 114.644 112.796 116.628C112.796 118.612 113.223 120.116 114.076 121.14C114.951 122.164 116.124 122.676 117.596 122.676ZM129.611 124.692V102.132H132.587V111.988H145.707V102.132H148.715V124.692H145.707V114.516H132.587V124.692H129.611ZM159.582 124.98C157.641 124.98 156.179 124.458 155.198 123.412C154.238 122.367 153.758 120.756 153.758 118.58V108.596H156.67V118.516C156.67 119.924 156.958 120.959 157.534 121.62C158.11 122.282 159.006 122.612 160.222 122.612C161.545 122.612 162.611 122.175 163.422 121.3C164.254 120.404 164.67 119.22 164.67 117.748V108.596H167.582V124.692H164.766V121.14H165.182C164.734 122.356 164.019 123.306 163.038 123.988C162.057 124.65 160.905 124.98 159.582 124.98ZM180.831 124.98C179.402 124.98 178.164 124.628 177.119 123.924C176.074 123.199 175.38 122.207 175.039 120.948H175.391V124.692H172.479V101.14H175.391V112.276H175.039C175.402 111.039 176.095 110.068 177.119 109.364C178.164 108.66 179.402 108.308 180.831 108.308C182.26 108.308 183.508 108.65 184.575 109.332C185.642 109.994 186.463 110.943 187.039 112.18C187.636 113.418 187.935 114.911 187.935 116.66C187.935 118.388 187.636 119.882 187.039 121.14C186.463 122.378 185.631 123.327 184.543 123.988C183.476 124.65 182.239 124.98 180.831 124.98ZM180.159 122.676C181.61 122.676 182.772 122.175 183.647 121.172C184.543 120.148 184.991 118.644 184.991 116.66C184.991 114.676 184.543 113.183 183.647 112.18C182.772 111.156 181.61 110.644 180.159 110.644C178.687 110.644 177.514 111.146 176.639 112.148C175.786 113.151 175.359 114.644 175.359 116.628C175.359 118.612 175.786 120.116 176.639 121.14C177.514 122.164 178.687 122.676 180.159 122.676Z" fill="white"/>
</svg>
