<svg width="51" height="51" viewBox="0 0 51 51" fill="none" xmlns="http://www.w3.org/2000/svg">
<path d="M27.5636 14.9304C29.0037 14.9304 28.2836 15.6505 29.7238 15.6505L26.8435 19.2509H23.9631L21.0828 15.6505C22.523 15.6505 21.8029 14.9304 23.2431 14.9304C24.6832 14.9304 23.9631 15.6505 25.4033 15.6505C26.8435 15.6505 26.1234 14.9304 27.5636 14.9304ZM30.8471 35.0927H19.9595C19.5666 35.0935 19.1793 35.0007 18.8294 34.8219C18.4796 34.6431 18.1775 34.3835 17.948 34.0646C17.7185 33.7457 17.5683 33.3768 17.5099 32.9883C17.4515 32.5998 17.4865 32.203 17.612 31.8307L18.0729 30.4338C18.159 30.1811 18.2028 29.9159 18.2025 29.6489V27.8919C18.2025 26.3641 18.8094 24.8988 19.8898 23.8185C20.9701 22.7382 22.4353 22.1312 23.9631 22.1312H26.8435C28.3713 22.1312 29.8365 22.7382 30.9169 23.8185C31.9972 24.8988 32.6041 26.3641 32.6041 27.8919V29.6489C32.6038 29.9159 32.6476 30.1811 32.7337 30.4338L33.1946 31.8307C33.2807 32.0834 33.3245 32.3486 33.3242 32.6156C33.3242 33.2726 33.0632 33.9026 32.5987 34.3672C32.1341 34.8317 31.5041 35.0927 30.8471 35.0927Z" fill="#00B39D"/>
<path d="M27.8592 19.6757C27.9946 19.8077 28.102 19.9657 28.175 20.1401C28.248 20.3146 28.2851 20.5019 28.2841 20.691C28.2829 21.0726 28.1308 21.4383 27.861 21.7081C27.5912 21.978 27.2255 22.1301 26.8439 22.1312H23.9636C23.5825 22.1284 23.2178 21.9757 22.9484 21.7063C22.6789 21.4368 22.5263 21.0721 22.5234 20.691C22.5246 20.3094 22.6767 19.9438 22.9465 19.6739C23.2163 19.4041 23.582 19.252 23.9636 19.2509H26.8439C27.033 19.2499 27.2204 19.287 27.3948 19.36C27.5693 19.433 27.7272 19.5403 27.8592 19.6757Z" fill="#00B39D"/>
<path d="M21.0824 43.0136L22.5513 44.2377C18.1327 43.5548 14.104 41.3139 11.1934 37.9199C8.28271 34.5259 6.68209 30.2028 6.68075 25.7316H4.52051L6.89678 22.8801L8.12091 21.4111L9.7339 23.3482L11.7213 25.7316H9.56108C9.56116 29.316 10.7768 32.7944 13.0094 35.5986C15.242 38.4028 18.3596 40.3669 21.8529 41.1702C22.2345 41.2638 22.6234 41.343 23.0194 41.4006L21.0824 43.0136Z" fill="#FF6243"/>
<path d="M43.9086 28.583C43.2257 33.0017 40.9848 37.0304 37.5908 39.941C34.1968 42.8517 29.8736 44.4523 25.4025 44.4536V46.6139L22.551 44.2376L21.082 43.0135L23.019 41.4005L25.4025 39.4131V41.5733C28.9869 41.5732 32.4653 40.3576 35.2695 38.125C38.0737 35.8924 40.0378 32.7748 40.8411 29.2815C40.9347 28.8999 41.0139 28.511 41.0715 28.115L42.6845 30.052L43.9086 28.583Z" fill="#00CCB3"/>
<path d="M21.0827 43.0136L22.5517 44.2377C21.9018 44.1373 21.2576 44.0027 20.6219 43.8345L19.6426 43.0136L21.5796 41.4006L21.8532 41.1702C22.2349 41.2638 22.6237 41.343 23.0198 41.4006L21.0827 43.0136Z" fill="#E5583C"/>
<path d="M46.285 25.7316L43.9087 28.5831L42.6846 30.052L41.0716 28.115L39.0842 25.7316H41.2444C41.2444 22.1472 40.0287 18.6687 37.7961 15.8646C35.5635 13.0604 32.4459 11.0962 28.9527 10.293C28.571 10.1994 28.1822 10.1202 27.7861 10.0626L29.7232 8.4496L28.2542 7.22546C32.6729 7.90835 36.7015 10.1493 39.6122 13.5432C42.5228 16.9372 44.1234 21.2604 44.1248 25.7316H46.285Z" fill="#FF6243"/>
<path d="M29.7231 8.44965L27.786 10.0626L25.4026 12.0501V9.88981C21.8182 9.88989 18.3397 11.1055 15.5356 13.3382C12.7314 15.5708 10.7673 18.6884 9.96403 22.1816C9.87042 22.5632 9.79121 22.9521 9.7336 23.3481L8.12062 21.4111L6.89648 22.8801C7.57937 18.4614 9.82028 14.4327 13.2143 11.5221C16.6083 8.61145 20.9314 7.01083 25.4026 7.00949V4.84924L28.2541 7.22551L29.7231 8.44965Z" fill="#00CCB3"/>
<path d="M31.1633 8.4496L29.2263 10.0626L28.9527 10.293C28.571 10.1994 28.1822 10.1202 27.7861 10.0626L29.7232 8.4496L28.2542 7.22546C28.9041 7.32585 29.5483 7.46046 30.184 7.62871L31.1633 8.4496Z" fill="#E5583C"/>
<path d="M43.9087 28.5831C43.8083 29.233 43.6737 29.8772 43.5054 30.5129L42.6845 31.4922L41.0715 29.5552L40.8411 29.2816C40.9347 28.9 41.0139 28.5111 41.0715 28.1151L42.6845 30.0521L43.9087 28.5831ZM9.96403 22.1816C9.87042 22.5632 9.79121 22.9521 9.7336 23.3481L8.12062 21.4111L6.89648 22.8801C6.99687 22.2302 7.13148 21.586 7.29973 20.9503L8.12062 19.9709L9.7336 21.908L9.96403 22.1816Z" fill="#00B39D"/>
<path d="M26.1229 27.8919H24.6827C24.4917 27.8919 24.3086 27.816 24.1735 27.681C24.0385 27.546 23.9626 27.3628 23.9626 27.1718C23.9626 26.9809 24.0385 26.7977 24.1735 26.6627C24.3086 26.5276 24.4917 26.4517 24.6827 26.4517H26.1229C26.3138 26.4517 26.497 26.5276 26.632 26.6627C26.7671 26.7977 26.8429 26.9809 26.8429 27.1718H28.2831C28.2831 26.5989 28.0555 26.0494 27.6504 25.6443C27.2453 25.2392 26.6958 25.0116 26.1229 25.0116V24.2915H24.6827V25.0116C24.1098 25.0116 23.5603 25.2392 23.1552 25.6443C22.7501 26.0494 22.5225 26.5989 22.5225 27.1718C22.5225 27.7448 22.7501 28.2942 23.1552 28.6993C23.5603 29.1045 24.1098 29.3321 24.6827 29.3321H26.1229C26.3138 29.3321 26.497 29.4079 26.632 29.543C26.7671 29.678 26.8429 29.8612 26.8429 30.0522C26.8429 30.2431 26.7671 30.4263 26.632 30.5613C26.497 30.6964 26.3138 30.7722 26.1229 30.7722H24.6827C24.4917 30.7722 24.3086 30.6964 24.1735 30.5613C24.0385 30.4263 23.9626 30.2431 23.9626 30.0522H22.5225C22.5225 30.6251 22.7501 31.1746 23.1552 31.5797C23.5603 31.9848 24.1098 32.2124 24.6827 32.2124V32.9325H26.1229V32.2124C26.6958 32.2124 27.2453 31.9848 27.6504 31.5797C28.0555 31.1746 28.2831 30.6251 28.2831 30.0522C28.2831 29.4792 28.0555 28.9298 27.6504 28.5246C27.2453 28.1195 26.6958 27.8919 26.1229 27.8919Z" fill="#FF6243"/>
</svg>
