<svg width="51" height="51" viewBox="0 0 51 51" fill="none" xmlns="http://www.w3.org/2000/svg">
<path fill-rule="evenodd" clip-rule="evenodd" d="M8.06322 3.52808H31.2866C31.4953 3.52808 31.6748 3.60245 31.8223 3.74999L36.0758 8.00348C36.2232 8.15102 36.2977 8.33049 36.2977 8.53912V40.3467C36.2977 40.764 35.9573 41.1043 35.5401 41.1043H8.06322C7.64596 41.1043 7.30566 40.764 7.30566 40.3467V4.28563C7.30566 3.86847 7.64596 3.52808 8.06322 3.52808Z" fill="#ECEFF1"/>
<path fill-rule="evenodd" clip-rule="evenodd" d="M8.06322 3.52808H9.44915V41.1043H8.06322C7.64596 41.1043 7.30566 40.764 7.30566 40.3467V4.28563C7.30566 3.86838 7.64596 3.52808 8.06322 3.52808Z" fill="#D1D1D6"/>
<path fill-rule="evenodd" clip-rule="evenodd" d="M31.6004 3.59375C31.6832 3.63209 31.7583 3.68501 31.8224 3.74997L36.0758 8.00345C36.1408 8.06744 36.1937 8.14261 36.2321 8.22537H31.9792C31.8788 8.22517 31.7826 8.1852 31.7116 8.11421C31.6406 8.04322 31.6006 7.94699 31.6004 7.84659V3.59375ZM12.3621 18.8965C12.5579 18.8965 12.7456 18.9743 12.8841 19.1127C13.0225 19.2511 13.1003 19.4389 13.1003 19.6347C13.1003 19.8305 13.0225 20.0182 12.8841 20.1567C12.7456 20.2951 12.5579 20.3729 12.3621 20.3729H11.1298C10.934 20.3729 10.7462 20.2951 10.6078 20.1567C10.4694 20.0182 10.3916 19.8305 10.3916 19.6347C10.3916 19.4389 10.4694 19.2511 10.6078 19.1127C10.7462 18.9743 10.934 18.8965 11.1298 18.8965H12.3621ZM24.5134 18.8965C24.7092 18.8965 24.897 18.9743 25.0354 19.1127C25.1739 19.2511 25.2516 19.4389 25.2516 19.6347C25.2516 19.8305 25.1739 20.0182 25.0354 20.1567C24.897 20.2951 24.7092 20.3729 24.5134 20.3729H14.9247C14.7289 20.3729 14.5411 20.2951 14.4027 20.1567C14.2643 20.0182 14.1865 19.8305 14.1865 19.6347C14.1865 19.4389 14.2643 19.2511 14.4027 19.1127C14.5411 18.9743 14.7289 18.8965 14.9247 18.8965H24.5134ZM24.5134 15.4762C24.7092 15.4762 24.897 15.554 25.0354 15.6924C25.1739 15.8309 25.2516 16.0186 25.2516 16.2144C25.2516 16.4102 25.1739 16.5979 25.0354 16.7364C24.897 16.8748 24.7092 16.9526 24.5134 16.9526H14.9247C14.7289 16.9526 14.5411 16.8748 14.4027 16.7364C14.2643 16.5979 14.1865 16.4102 14.1865 16.2144C14.1865 16.0186 14.2643 15.8309 14.4027 15.6924C14.5411 15.554 14.7289 15.4762 14.9247 15.4762H24.5134ZM12.3621 15.4762C12.5579 15.4762 12.7456 15.554 12.8841 15.6924C13.0225 15.8309 13.1003 16.0186 13.1003 16.2144C13.1003 16.4102 13.0225 16.5979 12.8841 16.7364C12.7456 16.8748 12.5579 16.9526 12.3621 16.9526H11.1298C10.934 16.9526 10.7462 16.8748 10.6078 16.7364C10.4694 16.5979 10.3916 16.4102 10.3916 16.2144C10.3916 16.0186 10.4694 15.8309 10.6078 15.6924C10.7462 15.554 10.934 15.4762 11.1298 15.4762H12.3621Z" fill="#A79BA7"/>
<path d="M20.1312 13.5836C22.2549 12.7048 23.264 10.2708 22.3852 8.14714C21.5065 6.02346 19.0725 5.01427 16.9488 5.89306C14.8251 6.77185 13.8159 9.20584 14.6947 11.3295C15.5735 13.4532 18.0075 14.4624 20.1312 13.5836Z" fill="#FFC338"/>
<path fill-rule="evenodd" clip-rule="evenodd" d="M18.535 5.58118C20.8333 5.58118 22.6965 7.44434 22.6965 9.74267C22.6965 12.041 20.8333 13.9042 18.535 13.9042C18.4161 13.904 18.2972 13.8989 18.1787 13.8888C20.3102 13.7081 21.9839 11.921 21.9839 9.74267C21.9839 7.5643 20.3102 5.77726 18.1787 5.59649C18.2972 5.58636 18.4161 5.58125 18.535 5.58118Z" fill="#F5B829"/>
<path fill-rule="evenodd" clip-rule="evenodd" d="M20.2039 8.29258C20.2511 8.40975 20.2503 8.54079 20.2017 8.65737C20.153 8.77394 20.0605 8.86669 19.944 8.91555C19.8275 8.96441 19.6964 8.96545 19.5792 8.91846C19.4619 8.87147 19.3679 8.78022 19.3174 8.66444C19.2106 8.41014 19.0081 8.26342 18.7857 8.20705C18.6426 8.17101 18.4933 8.16729 18.3485 8.19616C18.2137 8.22329 18.0903 8.27773 17.9944 8.3556C17.8818 8.44714 17.8104 8.57872 17.8182 8.74121C17.8252 8.8846 17.9014 8.9838 18.0075 9.05309C18.1695 9.15884 18.3978 9.21835 18.6162 9.25425C18.9533 9.30961 19.3221 9.40244 19.6334 9.59039C20.0008 9.81222 20.2778 10.1462 20.3402 10.6604C20.3448 10.6985 20.3478 10.7456 20.3491 10.801C20.3603 11.275 20.1448 11.6278 19.8208 11.8736C19.5889 12.0495 19.3031 12.1631 19.0163 12.2211V12.3758C19.0163 12.5033 18.9656 12.6257 18.8755 12.7158C18.7853 12.806 18.663 12.8567 18.5355 12.8567C18.4079 12.8567 18.2856 12.806 18.1955 12.7158C18.1053 12.6257 18.0546 12.5033 18.0546 12.3758V12.2114C17.8265 12.1589 17.6096 12.0691 17.4189 11.9421C17.0916 11.7242 16.8408 11.4023 16.7346 10.9765C16.7042 10.853 16.7241 10.7224 16.79 10.6136C16.8559 10.5047 16.9623 10.4265 17.0859 10.3961C17.147 10.3811 17.2106 10.3782 17.2729 10.3877C17.3351 10.3973 17.3949 10.4189 17.4488 10.4516C17.5577 10.5174 17.6359 10.6239 17.6663 10.7474C17.7093 10.9199 17.8129 11.0517 17.9485 11.142C18.1232 11.2583 18.3487 11.3139 18.5785 11.3083C18.6154 11.3075 18.6625 11.3036 18.7198 11.2966C18.9154 11.2729 19.1085 11.2125 19.2422 11.111C19.3333 11.0418 19.394 10.9466 19.391 10.8235C19.3899 10.8066 19.3881 10.7898 19.3858 10.7731C19.3655 10.6052 19.2677 10.4918 19.1374 10.4131C18.951 10.3005 18.6992 10.2399 18.462 10.201C18.1349 10.1473 17.7788 10.0489 17.4851 9.85706C17.1356 9.62887 16.8845 9.29088 16.8601 8.78633C16.8358 8.28732 17.0506 7.88723 17.3893 7.6118C17.5792 7.45742 17.8086 7.34559 18.0544 7.28146V7.10937C18.0544 6.98185 18.1051 6.85955 18.1953 6.76937C18.2855 6.6792 18.4078 6.62854 18.5353 6.62854C18.6628 6.62854 18.7851 6.6792 18.8753 6.76937C18.9655 6.85955 19.0161 6.98185 19.0161 7.10937V7.27491L19.0183 7.27546C19.515 7.40132 19.9667 7.72769 20.2039 8.29258Z" fill="#FFE177"/>
<path fill-rule="evenodd" clip-rule="evenodd" d="M30.3285 21.7887H32.9352C33.1893 21.7887 33.3965 21.9959 33.3965 22.2501V37.2219C33.3965 37.476 33.1893 37.6833 32.9352 37.6833H30.3285C30.2063 37.683 30.0891 37.6343 30.0026 37.5479C29.9161 37.4614 29.8674 37.3442 29.8672 37.2219V22.2501C29.8672 21.9959 30.0744 21.7887 30.3285 21.7887Z" fill="#8AC9FE"/>
<path fill-rule="evenodd" clip-rule="evenodd" d="M32.0127 21.7887H32.9354C33.1895 21.7887 33.3968 21.9959 33.3968 22.2501V37.2219C33.3968 37.476 33.1895 37.6833 32.9354 37.6833H32.0127C32.2668 37.6833 32.4741 37.476 32.4741 37.2219V22.2501C32.4741 21.9959 32.2668 21.7887 32.0127 21.7887Z" fill="#60B7FF"/>
<path fill-rule="evenodd" clip-rule="evenodd" d="M23.7748 27.8894H26.3815C26.6357 27.8894 26.8429 28.0966 26.8429 28.3508V37.222C26.8429 37.4761 26.6357 37.6834 26.3815 37.6834H23.7748C23.6526 37.6831 23.5353 37.6345 23.4489 37.548C23.3624 37.4615 23.3137 37.3443 23.3135 37.222V28.3508C23.3135 28.0966 23.5207 27.8894 23.7748 27.8894Z" fill="#6CF5C2"/>
<path fill-rule="evenodd" clip-rule="evenodd" d="M25.459 27.8894H26.3817C26.6358 27.8894 26.8431 28.0966 26.8431 28.3508V37.222C26.8431 37.4761 26.6358 37.6834 26.3817 37.6834H25.459C25.7131 37.6834 25.9203 37.4761 25.9203 37.222V28.3508C25.9203 28.0966 25.7131 27.8894 25.459 27.8894Z" fill="#00E499"/>
<path fill-rule="evenodd" clip-rule="evenodd" d="M17.2221 26.4183H19.8287C20.0828 26.4183 20.2901 26.6256 20.2901 26.8797V37.222C20.2901 37.4761 20.0828 37.6833 19.8287 37.6833H17.2221C17.0998 37.6831 16.9826 37.6344 16.8961 37.5479C16.8097 37.4615 16.761 37.3443 16.7607 37.222V26.8796C16.761 26.7573 16.8097 26.6402 16.8962 26.5537C16.9826 26.4673 17.0998 26.4186 17.2221 26.4183Z" fill="#FFE177"/>
<path fill-rule="evenodd" clip-rule="evenodd" d="M18.9053 26.4183H19.828C20.0821 26.4183 20.2894 26.6256 20.2894 26.8797V37.222C20.2894 37.4761 20.0821 37.6833 19.828 37.6833H18.9053C19.1594 37.6833 19.3666 37.4761 19.3666 37.222V26.8796C19.3664 26.7573 19.3177 26.6402 19.2312 26.5537C19.1447 26.4673 19.0275 26.4186 18.9053 26.4183Z" fill="#FFD064"/>
<path fill-rule="evenodd" clip-rule="evenodd" d="M10.6684 30.7881H13.275C13.5291 30.7881 13.7364 30.9953 13.7364 31.2494V37.222C13.7364 37.4761 13.5291 37.6833 13.275 37.6833H10.6684C10.5461 37.6831 10.4289 37.6344 10.3424 37.5479C10.256 37.4615 10.2073 37.3443 10.207 37.222V31.2494C10.207 30.9953 10.4143 30.7881 10.6684 30.7881Z" fill="#FE646F"/>
<path fill-rule="evenodd" clip-rule="evenodd" d="M12.3525 30.7881H13.2753C13.5294 30.7881 13.7366 30.9953 13.7366 31.2494V37.222C13.7366 37.4761 13.5294 37.6833 13.2753 37.6833H12.3525C12.6067 37.6833 12.8139 37.4761 12.8139 37.222V31.2494C12.8137 31.1272 12.765 31.01 12.6785 30.9235C12.592 30.837 12.4748 30.7883 12.3525 30.7881Z" fill="#FD4755"/>
<path fill-rule="evenodd" clip-rule="evenodd" d="M12.4247 27.7112C12.2706 27.827 12.0772 27.8777 11.8862 27.8524C11.6951 27.8271 11.5216 27.7279 11.403 27.576C11.2843 27.4241 11.23 27.2317 11.2518 27.0402C11.2735 26.8487 11.3695 26.6734 11.5192 26.552L18.0726 21.4491C18.1671 21.3752 18.2782 21.3256 18.3963 21.3045C18.5144 21.2835 18.6358 21.2917 18.75 21.3284L18.7501 21.3279L24.8747 23.313L29.6922 18.4544L29.5622 18.4658C29.4656 18.4742 29.3683 18.4634 29.276 18.4341C29.1836 18.4049 29.0978 18.3577 29.0237 18.2953C28.9495 18.233 28.8883 18.1566 28.8437 18.0705C28.799 17.9845 28.7718 17.8906 28.7634 17.794C28.7551 17.6974 28.7659 17.6002 28.7951 17.5078C28.8244 17.4154 28.8716 17.3297 28.9339 17.2555C28.9963 17.1813 29.0727 17.1202 29.1587 17.0755C29.2448 17.0309 29.3387 17.0036 29.4353 16.9953L31.5685 16.8082C31.681 16.7984 31.7943 16.8147 31.8995 16.8556C32.0048 16.8965 32.0992 16.961 32.1756 17.0442C32.252 17.1273 32.3083 17.2269 32.3401 17.3353C32.372 17.4436 32.3785 17.5578 32.3593 17.6691L32.1264 19.7525C32.0818 20.157 31.7177 20.4488 31.3132 20.4041C30.9087 20.3595 30.6169 19.9954 30.6616 19.5909L30.6645 19.5645L25.6006 24.6717C25.505 24.7679 25.3846 24.8357 25.2528 24.8678C25.121 24.8999 24.9829 24.8949 24.8538 24.8534L18.669 22.8489L12.4247 27.7112Z" fill="#A79BA7"/>
<path fill-rule="evenodd" clip-rule="evenodd" d="M35.7029 29.7844C36.5625 29.9892 37.3839 30.3298 38.1363 30.7933L39.7176 30.091L41.5813 31.9547L40.8792 33.5354C41.3429 34.2879 41.6835 35.1097 41.8882 35.9696L43.5015 36.5905V39.2261L41.8878 39.8472C41.683 40.7068 41.3425 41.5283 40.879 42.2806L41.5813 43.8619L39.7176 45.7256L38.1368 45.0235C37.3842 45.4872 36.5625 45.8278 35.7026 46.0325L35.0817 47.6458H32.446L31.825 46.0321C30.9654 45.8274 30.1439 45.4868 29.3916 45.0233L27.8103 45.7256L25.9466 43.8619L26.6487 42.2812C26.185 41.5286 25.8444 40.707 25.6397 39.8471L24.0264 39.2261V36.5905L25.6398 35.9694C25.8446 35.1097 26.1852 34.2882 26.6488 33.5358L25.9466 31.9547L27.8103 30.091L29.3916 30.7933C30.1439 30.3297 30.9653 29.9892 31.825 29.7844L32.4461 28.1708H35.0817L35.7029 29.7844Z" fill="#FFE177"/>
<path fill-rule="evenodd" clip-rule="evenodd" d="M29.3922 45.0233L27.8109 45.7256L27.5674 45.4821L29.0499 44.8236C29.1624 44.8928 29.2765 44.9594 29.3922 45.0233ZM35.7034 29.7844C36.563 29.9892 37.3845 30.3298 38.1368 30.7932L37.6874 30.9928C36.9348 30.5294 35.7715 29.989 34.9117 29.7843L34.2906 28.1707H35.0823L35.7034 29.7844ZM38.1374 45.0235C37.3848 45.4872 36.5631 45.8278 35.7032 46.0325L35.0823 47.6458H34.2906L34.9116 46.0325C35.7716 45.8279 36.9353 45.2874 37.6878 44.8238L38.1374 45.0235ZM27.5674 30.3344L27.8109 30.0908L29.3922 30.7931C29.2765 30.8569 29.1625 30.9235 29.05 30.9927L27.5674 30.3344ZM39.1699 30.3344L39.7181 30.0908L41.5818 31.9546L40.8797 33.5353C41.3434 34.2878 41.684 35.1095 41.8887 35.9694L43.502 36.5904V39.226L41.8883 39.8471C41.6836 40.7067 41.343 41.5281 40.8795 42.2805L41.5818 43.8618L39.7181 45.7255L39.1699 45.482L40.7901 43.8618L40.0878 42.2805C40.5514 41.5282 40.8919 40.7067 41.0967 39.8471L42.7103 39.226V36.5904L41.097 35.9694C40.8922 35.1096 40.5516 34.2879 40.088 33.5353L40.7901 31.9546L39.1699 30.3344Z" fill="#FFD064"/>
<path d="M37.0068 41.1578C38.8017 39.3629 38.8017 36.4528 37.0068 34.6578C35.2119 32.8629 32.3018 32.8629 30.5068 34.6578C28.7119 36.4528 28.7119 39.3629 30.5068 41.1578C32.3018 42.9528 35.2119 42.9528 37.0068 41.1578Z" fill="#ECEFF1"/>
<path fill-rule="evenodd" clip-rule="evenodd" d="M33.7642 33.312C31.2256 33.312 29.168 35.3696 29.168 37.9083C29.168 40.4469 31.2256 42.5045 33.7642 42.5045C33.8872 42.5045 34.0091 42.4995 34.1297 42.49C31.7621 42.3037 29.8991 40.3238 29.8991 37.9082C29.8991 35.4926 31.7621 33.5127 34.1297 33.3264C34.0081 33.3169 33.8862 33.3121 33.7642 33.312Z" fill="#D1D1D6"/>
</svg>
