<svg width="23" height="22" viewBox="0 0 23 22" fill="none" xmlns="http://www.w3.org/2000/svg">
<g clip-path="url(#clip0_16_5434)">
<path fill-rule="evenodd" clip-rule="evenodd" d="M11.7862 1.83841C9.96208 1.7772 8.16473 2.28958 6.64712 3.30344C4.94077 4.44423 3.69111 6.14996 3.11777 8.12082C2.96251 8.10187 2.7766 8.11023 2.55584 8.17267C1.73162 8.40681 1.11199 9.0819 0.833254 9.67673C0.471456 10.4519 0.318987 11.4774 0.479818 12.5354C0.639533 13.5905 1.08523 14.4601 1.6427 15C2.20185 15.5402 2.83318 15.7158 3.46034 15.584C4.3941 15.3847 4.85708 15.2355 4.72635 14.3659L4.09362 10.1486C4.15788 9.00083 4.48812 7.88369 5.05826 6.88543C5.6284 5.88718 6.42283 5.03515 7.3788 4.39664C8.66714 3.53475 10.1933 3.09851 11.7425 3.14931C13.2917 3.20011 14.786 3.73539 16.0151 4.67984C16.8637 5.33046 17.5615 6.15694 18.0607 7.10259C18.5599 8.04824 18.8486 9.09067 18.907 10.1584L18.4644 13.1082C17.9841 14.4248 17.1405 15.5781 16.0313 16.4346C14.9221 17.2911 13.5928 17.8155 12.1976 17.9471H10.3117C10.1963 17.9468 10.0819 17.9694 9.97526 18.0134C9.86859 18.0574 9.77166 18.1221 9.69003 18.2036C9.60841 18.2852 9.54369 18.3821 9.49959 18.4888C9.4555 18.5954 9.4329 18.7097 9.43308 18.8251V19.2884C9.43286 19.4038 9.45544 19.5181 9.49951 19.6248C9.54359 19.7315 9.6083 19.8284 9.68993 19.91C9.77157 19.9916 9.86851 20.0563 9.9752 20.1003C10.0819 20.1444 10.1962 20.1669 10.3117 20.1667H12.6895C12.8048 20.1668 12.919 20.1442 13.0256 20.1002C13.1321 20.0561 13.2289 19.9914 13.3103 19.9098C13.3918 19.8282 13.4563 19.7314 13.5002 19.6248C13.5441 19.5182 13.5665 19.4039 13.5662 19.2886V19.0461C15.7026 18.523 17.5638 17.2149 18.7796 15.3819L19.5414 15.584C20.1613 15.7448 20.8002 15.5399 21.3591 15C21.9165 14.4598 22.3619 13.5905 22.5219 12.5354C22.6836 11.4771 22.5264 10.4536 22.1691 9.67673C21.8103 8.89989 21.276 8.40653 20.6592 8.22953C20.4008 8.15511 20.1204 8.12779 19.8798 8.12082C19.3621 6.33833 18.2889 4.76762 16.8165 3.63736C15.3692 2.52629 13.6098 1.89711 11.7862 1.83841Z" fill="#8B8B8B"/>
<path fill-rule="evenodd" clip-rule="evenodd" d="M14.5699 9.4255C14.8719 9.42586 15.1615 9.54604 15.3751 9.75966C15.5887 9.97328 15.7088 10.2629 15.7091 10.565C15.7086 10.867 15.5883 11.1565 15.3748 11.3701C15.1612 11.5837 14.8716 11.7039 14.5696 11.7044C14.2672 11.7045 13.9772 11.5845 13.7632 11.3709C13.5492 11.1572 13.4288 10.8673 13.4285 10.565C13.4285 10.4152 13.4581 10.2669 13.5155 10.1286C13.5729 9.99023 13.657 9.86455 13.7629 9.75871C13.8689 9.65287 13.9947 9.56895 14.1331 9.51172C14.2715 9.4545 14.4198 9.42511 14.5696 9.42522L14.5699 9.4255ZM11.501 9.4255C11.7263 9.42561 11.9466 9.49252 12.1339 9.61778C12.3212 9.74304 12.4671 9.92103 12.5533 10.1292C12.6395 10.3374 12.662 10.5665 12.618 10.7875C12.574 11.0085 12.4654 11.2115 12.3061 11.3708C12.1467 11.5301 11.9437 11.6386 11.7227 11.6825C11.5017 11.7265 11.2726 11.7039 11.0645 11.6177C10.8563 11.5315 10.6783 11.3855 10.5531 11.1982C10.4279 11.0108 10.361 10.7906 10.361 10.5652C10.3608 10.4155 10.3902 10.2672 10.4475 10.1288C10.5047 9.99042 10.5887 9.86469 10.6946 9.7588C10.8004 9.65291 10.9262 9.56894 11.0646 9.5117C11.2029 9.45446 11.3512 9.42535 11.501 9.4255ZM8.43296 9.4255C8.58472 9.42214 8.73562 9.44913 8.8768 9.50489C9.01799 9.56064 9.14661 9.64404 9.25513 9.75018C9.36364 9.85632 9.44986 9.98307 9.50873 10.123C9.56759 10.2629 9.59791 10.4132 9.59791 10.565C9.59791 10.7168 9.56759 10.867 9.50873 11.0069C9.44986 11.1469 9.36364 11.2736 9.25513 11.3798C9.14661 11.4859 9.01799 11.5693 8.8768 11.625C8.73562 11.6808 8.58472 11.7078 8.43296 11.7044C8.1338 11.6998 7.84848 11.5776 7.63858 11.3644C7.42868 11.1512 7.31103 10.864 7.31103 10.5648C7.31103 10.2656 7.42868 9.97844 7.63858 9.76523C7.84848 9.55202 8.1338 9.43017 8.43296 9.4255ZM11.501 4.52979C8.15896 4.52979 5.46582 7.13429 5.46582 10.5647C5.46582 12.2123 6.08879 13.6684 7.10367 14.7368L6.74354 16.3512C6.6248 16.8825 6.99329 17.2398 7.47104 16.9739L9.04729 16.0945C9.82177 16.4299 10.657 16.602 11.501 16.6001C14.8442 16.6001 17.5356 13.9973 17.5356 10.5655C17.5356 7.13485 14.8442 4.53034 11.501 4.53034V4.52979Z" fill="#8B8B8B"/>
</g>
<defs>
<clipPath id="clip0_16_5434">
<rect width="22" height="22" fill="white" transform="translate(0.5)"/>
</clipPath>
</defs>
</svg>
