<svg width="31" height="30" viewBox="0 0 31 30" fill="none" xmlns="http://www.w3.org/2000/svg">
<path d="M20.7393 28.604V17.9779L19.0157 17.1705L18.5479 14.6859H12.4518L11.984 17.1705L10.3159 17.9519V28.604H20.7393Z" fill="#E2B48A"/>
<path d="M27.9124 29.7656L27.4671 24.0736C27.3946 23.1459 27.0775 22.2539 26.548 21.4887C26.0185 20.7235 25.2956 20.1123 24.453 19.7175L19.6694 17.4764V18.8606H19.1243V19.5872H11.0995V17.5849L6.54678 19.7175C5.70402 20.1122 4.981 20.7233 4.4514 21.4886C3.9218 22.2538 3.60456 23.1458 3.53201 24.0736L3.0874 29.7656H27.9124Z" fill="#BAC2D3"/>
<path d="M16.2111 19.6031H13.9198L13.4834 20.6205L14.7985 22.2942L14.0339 25.964L15.4981 29.1363L17.1385 25.7243L16.4513 22.2257L17.4926 20.5136L16.2111 19.6031Z" fill="#DA2A47"/>
<path d="M27.4673 24.0736C27.3948 23.1458 27.0777 22.2539 26.5481 21.4887C26.0186 20.7235 25.2957 20.1123 24.453 19.7175L20.0937 17.6747C19.7381 19.6992 18.8939 21.5545 17.9765 23.3817C17.5522 24.2236 17.1522 25.0777 16.7772 25.9427C16.5679 26.4244 15.4999 29.2385 15.4999 29.2385C15.4999 29.2385 13.7683 24.9284 13.4531 24.1113C13.0258 23.0032 12.697 21.8501 12.1308 20.8017C12.0332 20.6221 11.9316 20.4447 11.8261 20.2697C10.8628 19.8914 10.3676 19.0744 10.3858 17.9187L6.54678 19.7175C5.70402 20.1122 4.981 20.7234 4.4514 21.4886C3.9218 22.2538 3.60456 23.1458 3.53201 24.0736L3.0874 29.7656H27.9124L27.4673 24.0736Z" fill="#707583"/>
<path d="M27.4673 24.0736C27.3948 23.1458 27.0777 22.2539 26.5481 21.4887C26.0186 20.7235 25.2957 20.1123 24.453 19.7175L20.0937 17.6747C19.7381 19.6992 18.8939 21.5545 17.9765 23.3817C17.5522 24.2236 17.1522 25.0777 16.7772 25.9427C16.5679 26.4244 15.4999 29.2385 15.4999 29.2385C15.4999 29.2385 13.7683 24.9284 13.4531 24.1113C13.0258 23.0032 12.697 21.8501 12.1308 20.8017C12.0332 20.6221 11.9316 20.4447 11.8261 20.2697C10.8628 19.8914 10.3676 19.0744 10.3858 17.9187L6.54678 19.7175C5.70402 20.1122 4.981 20.7234 4.4514 21.4886C3.9218 22.2538 3.60456 23.1458 3.53201 24.0736L3.0874 29.7656H27.9124L27.4673 24.0736Z" fill="#384868"/>
<path d="M27.9123 29.7656H24.5514L24.1061 24.0726C24.0328 23.145 23.7151 22.2533 23.1853 21.4884C22.6554 20.7235 21.9323 20.1126 21.0896 19.7179L19.7607 19.0945C19.8962 18.6273 20.0065 18.1532 20.0912 17.6742L24.4529 19.7179C25.2953 20.1127 26.0181 20.7237 26.5475 21.4886C27.077 22.2536 27.3942 23.1452 27.467 24.0726L27.9123 29.7656Z" fill="#2F3A5A"/>
<path d="M22.1368 11.473C22.3854 10.4105 22.105 9.43638 21.5105 9.29726C20.916 9.15815 20.2325 9.9067 19.9839 10.9692C19.7352 12.0317 20.0156 13.0058 20.6102 13.1449C21.2047 13.284 21.8882 12.5355 22.1368 11.473Z" fill="#E2B48A"/>
<path d="M10.3436 13.1534C10.9381 13.0142 11.2184 12.04 10.9696 10.9776C10.7208 9.91512 10.0371 9.16669 9.44264 9.30591C8.84814 9.44512 8.56791 10.4193 8.81671 11.4817C9.06552 12.5442 9.74914 13.2926 10.3436 13.1534Z" fill="#E2B48A"/>
<path d="M15.4765 16.8143C18.561 16.8143 21.0614 13.368 21.0614 9.11671C21.0614 4.86545 18.561 1.41913 15.4765 1.41913C12.3921 1.41913 9.8916 4.86545 9.8916 9.11671C9.8916 13.368 12.3921 16.8143 15.4765 16.8143Z" fill="#F0C191"/>
<path d="M20.7112 11.7722C20.7112 11.7722 22.6835 8.24833 22.2563 5.45364C21.829 2.65896 19.9462 1.77677 18.8276 1.77677C18.8276 1.77677 17.3177 -0.458933 13.5867 0.45302C9.8557 1.36497 8.35547 5.46208 9.06141 8.04677C9.76734 10.6315 10.238 11.8188 10.238 11.8188C10.238 11.8188 9.76734 8.51411 10.2968 6.6895C10.8262 4.86489 12.4148 3.42419 13.0327 3.92388C13.6505 4.42357 17.5922 4.25786 18.2393 3.15044C19.0894 3.77341 19.6585 4.70753 19.822 5.74872C20.033 7.42544 20.9749 8.45505 20.8868 9.66091C20.7987 10.8668 20.7112 11.7722 20.7112 11.7722Z" fill="#2F3A5A"/>
<path d="M18.855 16.3085L15.4999 19.5869L18.4948 21.645L19.8963 17.5783L18.855 16.3085ZM11.1035 17.5783L12.6218 21.55L15.4999 19.5869L12.1448 16.3085L11.1035 17.5783Z" fill="#D9E2E9"/>
<path d="M20.7689 17.992L18.8543 16.3085L18.8504 16.3045C18.8504 16.3045 18.8154 21.3342 15.4988 29.1363C12.1814 21.3342 12.1472 16.3045 12.1472 16.3045L12.1432 16.3085L10.2289 17.992L9.8916 20.838L11.479 20.5842L10.2886 22.3889C10.9789 24.0703 15.4993 29.3203 15.4993 29.3203C16.2106 28.5349 20.1263 24.0016 20.7359 22.5157L19.5183 20.5842L21.2951 20.6348L20.7689 17.992Z" fill="#43567C"/>
</svg>
