<svg width="31" height="30" viewBox="0 0 31 30" fill="none" xmlns="http://www.w3.org/2000/svg">
<circle cx="15.5" cy="15" r="15" fill="#EAEAEA"/>
<path fill-rule="evenodd" clip-rule="evenodd" d="M16.3997 22.075C15.0312 22.0772 13.6844 21.7332 12.4846 21.075L8 22.5L9.46177 18.1877C8.70004 16.9376 8.29799 15.5016 8.2999 14.0377C8.2999 9.59881 11.926 6 16.4002 6C20.8734 6 24.5 9.59831 24.5 14.0377C24.5 18.4767 20.8734 22.075 16.3997 22.075ZM16.3997 7.28004C12.6445 7.28004 9.58987 10.3113 9.58987 14.0377C9.58987 15.5159 10.0715 16.8853 10.8868 17.9995L10.0362 20.5089L12.6529 19.6773C13.7657 20.4082 15.0683 20.7968 16.3997 20.7949C20.1544 20.7949 23.21 17.7637 23.21 14.0377C23.21 10.3118 20.1544 7.28004 16.3997 7.28004ZM20.4901 15.8888C20.4404 15.8069 20.3078 15.7572 20.1097 15.6589C19.9111 15.5601 18.9345 15.0834 18.7527 15.0184C18.5705 14.9523 18.4379 14.9191 18.3059 15.1167C18.1738 15.3143 17.793 15.7572 17.6768 15.8888C17.5611 16.0204 17.4454 16.0367 17.2468 15.9384C17.0482 15.8396 16.4086 15.6316 15.65 14.9603C15.0601 14.4384 14.6614 13.7934 14.5457 13.5963C14.43 13.3992 14.5333 13.2925 14.6326 13.1941C14.7219 13.1063 14.8312 12.9643 14.9305 12.8496C15.0298 12.7344 15.0631 12.6524 15.1291 12.5209C15.1951 12.3893 15.1624 12.2746 15.1127 12.1758C15.0631 12.077 14.6658 11.1077 14.5 10.713C14.3347 10.3188 14.1698 10.3848 14.0531 10.3848C13.9374 10.3848 13.8049 10.3679 13.6728 10.3679C13.5407 10.3679 13.3252 10.4176 13.1435 10.6147C12.9613 10.8118 12.4484 11.2885 12.4484 12.2582C12.4484 13.2274 13.1599 14.1639 13.2592 14.2949C13.3585 14.4265 14.6326 16.4806 16.6504 17.2691C18.6698 18.0581 18.6698 17.7949 19.0338 17.7622C19.3977 17.7294 20.208 17.2855 20.3744 16.8257C20.5392 16.3654 20.5392 15.9707 20.4901 15.8888Z" fill="#2C2C2C"/>
</svg>
