<svg width="31" height="30" viewBox="0 0 31 30" fill="none" xmlns="http://www.w3.org/2000/svg">
<circle cx="15.5" cy="15" r="15" fill="#EAEAEA"/>
<path fill-rule="evenodd" clip-rule="evenodd" d="M15.8018 22.8877C14.4493 22.8899 13.1182 22.5499 11.9324 21.8993L7.5 23.3078L8.94474 19.0457C8.19188 17.8102 7.79452 16.3909 7.79641 14.9441C7.79641 10.5569 11.3803 7 15.8023 7C20.2234 7 23.8078 10.5564 23.8078 14.9441C23.8078 19.3313 20.2234 22.8877 15.8018 22.8877ZM15.8018 8.26513C12.0904 8.26513 9.07135 11.2611 9.07135 14.9441C9.07135 16.405 9.54737 17.7585 10.3532 18.8597L9.51252 21.3399L12.0987 20.5179C13.1985 21.2404 14.486 21.6244 15.8018 21.6226C19.5128 21.6226 22.5328 18.6266 22.5328 14.9441C22.5328 11.2616 19.5128 8.26513 15.8018 8.26513ZM19.8446 16.7736C19.7955 16.6926 19.6645 16.6435 19.4686 16.5464C19.2724 16.4487 18.3071 15.9776 18.1275 15.9133C17.9474 15.848 17.8163 15.8152 17.6858 16.0105C17.5553 16.2058 17.1789 16.6435 17.064 16.7736C16.9497 16.9036 16.8353 16.9198 16.639 16.8226C16.4427 16.725 15.8107 16.5194 15.0608 15.8559C14.4778 15.3401 14.0838 14.7026 13.9694 14.5078C13.8551 14.313 13.9572 14.2075 14.0553 14.1103C14.1436 14.0235 14.2516 13.8831 14.3497 13.7698C14.4479 13.6559 14.4808 13.5749 14.546 13.4449C14.6113 13.3148 14.5789 13.2015 14.5298 13.1038C14.4808 13.0062 14.0882 12.0482 13.9243 11.6581C13.7609 11.2685 13.5979 11.3337 13.4826 11.3337C13.3683 11.3337 13.2372 11.317 13.1067 11.317C12.9762 11.317 12.7632 11.3661 12.5836 11.5609C12.4035 11.7558 11.8965 12.2269 11.8965 13.1853C11.8965 14.1432 12.5998 15.0687 12.6979 15.1983C12.7961 15.3283 14.0553 17.3585 16.0497 18.1378C18.0455 18.9176 18.0455 18.6575 18.4052 18.6251C18.7649 18.5927 19.5658 18.154 19.7302 17.6996C19.8931 17.2447 19.8931 16.8545 19.8446 16.7736Z" fill="#2C2C2C"/>
</svg>
